<svg version="1.1" id="luchemos-por-wrapper" xmlns="http://www.w3.org/2000/svg" xmlns:xlink="http://www.w3.org/1999/xlink" x="0px" y="0px"
	 viewBox="0 0 451 55.7" style="enable-background:new 0 0 451 55.7;" xml:space="preserve">
<style type="text/css">
	.st0{fill:#FFFFFF;}
</style>
<g id="luchemos-por">
	<path class="st0" d="M5.9,50.5c-0.4-3.3-0.8-6.7-1.1-10.4c-0.3-3.7-0.5-7.4-0.6-11.2C4.1,25,4,21.3,4,17.6c0-3.7,0-7.2,0.1-10.4
		c0.7-1.3,1.6-1.9,2.7-1.9s2,0.8,2.7,2.4c-0.2,2.6-0.2,5.6-0.2,9c0,3.5,0.1,7,0.3,10.5c0.1,3.6,0.3,7,0.5,10.2
		c0.2,3.3,0.4,6,0.7,8.2l14.3-5c0.7,0,1.2,0.5,1.7,1.5c0.5,1,0.8,1.9,0.9,2.8c-1.3,0.7-3,1.5-5.2,2.4c-2.2,0.9-4.3,1.7-6.6,2.4
		c-2.2,0.7-4.3,1.2-6.1,1.4C7.9,51.5,6.6,51.2,5.9,50.5z"/>
	<path class="st0" d="M53.3,52.3c-0.6-0.7-1-1.9-1.3-3.6c-0.3-1.7-0.6-3.5-0.8-5.3c-0.2-1.9-0.4-3.6-0.6-5.2
		c-0.2-1.6-0.4-2.7-0.7-3.3c-0.6,3.1-1.4,5.8-2.2,7.9c-0.9,2.1-1.8,3.8-2.9,5.1c-1,1.3-2.1,2.2-3.3,2.8c-1.2,0.6-2.3,0.8-3.4,0.8
		c-1.5-0.2-2.7-1.2-3.8-3c-1.1-1.8-1.9-4-2.6-6.6c-0.7-2.6-1.2-5.6-1.6-8.8c-0.4-3.3-0.7-6.5-0.9-9.8c-0.2-3.3-0.3-6.4-0.3-9.3
		c-0.1-2.9-0.1-5.4,0-7.4c0.2-0.4,0.5-0.7,1-1c0.5-0.3,1-0.5,1.6-0.5c0.6-0.1,1.1,0,1.6,0.2c0.5,0.2,0.9,0.7,1.1,1.3
		c0,1.7,0,3.7,0,6.2c0,2.4,0.1,5,0.2,7.8c0.1,2.7,0.3,5.5,0.5,8.3c0.2,2.8,0.5,5.3,0.9,7.6c0.4,2.3,0.8,4.2,1.3,5.7
		c0.5,1.5,1.2,2.5,1.9,2.7c1.1-0.1,2.1-0.9,3-2.5c0.9-1.6,1.8-3.7,2.5-6.1c0.8-2.5,1.4-5.2,2-8.2c0.6-3,1.1-5.8,1.5-8.6
		c0.4-2.7,0.8-5.2,1-7.4s0.4-3.8,0.5-4.7c0.1-0.4,0.3-0.8,0.8-1C50.9,6.1,51.4,6,52,6c0.6,0,1.1,0.1,1.6,0.3c0.5,0.2,0.8,0.5,1,0.9
		c0.1,3.4,0.1,7.1,0.1,11.1c0,4,0.2,7.9,0.4,11.8c0.2,3.9,0.6,7.6,1,11c0.4,3.5,1.1,6.4,1.9,8.7c0,0.7-0.2,1.2-0.5,1.6
		c-0.4,0.4-0.8,0.6-1.3,0.8c-0.5,0.2-1,0.2-1.6,0.2C54,52.5,53.6,52.4,53.3,52.3z"/>
	<path class="st0" d="M60.1,32.6c-0.1-2.2,0.2-4.7,1-7.5c0.8-2.8,2-5.5,3.6-8.2c1.6-2.7,3.6-5.1,6.1-7.2c2.4-2.1,5.3-3.5,8.5-4.2
		c0.8,0.1,1.3,0.5,1.7,1.3c0.3,0.8,0.1,1.8-0.7,2.9c-4.7,2.5-8.4,5.5-11.2,9s-4.2,7.9-4.2,13c0,1.4,0.1,2.9,0.4,4.4
		c0.3,1.5,0.7,3,1.2,4.3c0.5,1.3,1.2,2.4,2,3.4c0.8,0.9,1.7,1.5,2.7,1.8c1,0.3,2.2,0.1,3.5-0.5c1.3-0.6,2.7-1.8,4.2-3.6
		c0.5-0.4,1-0.5,1.3-0.3c0.4,0.3,0.7,0.7,0.8,1.3c0.1,0.6,0.2,1.3,0,2c-0.1,0.8-0.4,1.4-0.9,1.9c-2,2.2-3.8,3.6-5.6,4.3
		c-1.8,0.7-3.5,0.9-5,0.5c-1.5-0.4-2.9-1.2-4.1-2.5c-1.2-1.3-2.2-2.8-3-4.6c-0.8-1.8-1.4-3.7-1.9-5.7C60.2,36.4,60,34.4,60.1,32.6z"
		/>
	<path class="st0" d="M90.4,34.3c0.7-1.5,1.5-3.1,2.5-4.6c1-1.6,2.1-3,3.2-4.4c1.1-1.4,2.4-2.6,3.7-3.5c1.3-1,2.5-1.6,3.7-2
		c1.1-0.3,2.2-0.3,3.2,0.3c1,0.5,1.9,1.5,2.5,3.1c0.2,0.5,0.4,1.4,0.5,2.7c0.1,1.3,0.3,2.7,0.3,4.4c0.1,1.7,0.2,3.5,0.2,5.3
		c0.1,1.9,0.1,3.7,0.2,5.4c0.1,1.7,0.1,3.3,0.2,4.7c0.1,1.4,0.2,2.4,0.3,3.1c0.1,1-0.1,1.8-0.7,2.3c-0.6,0.5-1.2,0.8-1.9,0.9
		c-0.7,0.1-1.4-0.1-2.1-0.4c-0.7-0.4-1-0.9-1.1-1.7c0.1-1.1,0.1-2.8,0.3-5.1c0.1-2.2,0.2-4.6,0.2-7c0-2.4-0.1-4.7-0.3-6.9
		c-0.2-2.2-0.5-3.7-1.1-4.7c-0.5-0.8-1.2-1.1-2-0.7c-0.8,0.4-1.7,1.2-2.7,2.5c-1,1.3-1.9,2.8-2.9,4.7c-1,1.9-1.9,3.8-2.7,5.9
		c-0.8,2-1.6,4.1-2.1,6.1c-0.6,2-0.9,3.7-1.1,5.2c-0.1,1-0.4,1.6-0.9,1.9c-0.5,0.3-1.1,0.5-1.6,0.5c-0.6,0-1.1-0.2-1.6-0.4
		c-0.5-0.3-0.7-0.5-0.7-0.8c-0.3,0.5-0.5,0-0.5-1.4c-0.1-1.4-0.1-3.5,0-6.1c0.1-2.6,0.1-5.7,0.2-9.1c0.1-3.5,0.1-6.9,0.2-10.4
		c0-3.5,0-6.7,0-9.8c-0.1-3.1-0.2-5.5-0.5-7.4c0.2-0.8,0.5-1.4,1-1.8c0.5-0.4,1-0.7,1.5-0.7c0.5-0.1,1,0,1.5,0.3
		c0.5,0.3,0.9,0.7,1.1,1.2V34.3z"/>
	<path class="st0" d="M115,23.4c-0.8-0.6-1.4-1.2-1.8-1.8c-0.4-0.6-0.6-1.2-0.6-1.8c0-0.6,0.3-1.1,0.8-1.5c0.5-0.4,1.3-0.7,2.3-0.7
		c0.6-1.2,1.1-2.6,1.7-4c0.6-1.4,1.3-2.7,2.2-4c0.9-1.2,2-2.2,3.4-3.1c1.4-0.8,3.1-1.3,5.3-1.4c1.2,0,2.2,0.2,3.1,0.7
		c0.9,0.4,1.7,1.1,2.3,1.8c0.6,0.8,1.1,1.6,1.4,2.6c0.3,1,0.5,2,0.5,3.1c0,2.2-0.5,4-1.4,5.3c-1,1.4-2.2,2.5-3.7,3.2
		c-1.5,0.8-3.2,1.3-5.1,1.6c-1.9,0.3-3.7,0.4-5.5,0.4c-0.2,0.3-0.3,1.1-0.3,2.3c-0.1,1.2,0,2.5,0.1,4.1c0.1,1.5,0.4,3.2,0.7,4.9
		c0.3,1.7,0.7,3.4,1.3,4.9c0.5,1.5,1.2,2.9,2.1,4c0.8,1.1,1.8,1.8,2.9,2.1c1.1,0.3,2,0.3,2.8,0c0.8-0.3,1.4-0.7,2-1.2
		c0.5-0.5,1-1.1,1.3-1.7c0.3-0.6,0.6-1,0.9-1.3c0.6-0.6,1.1-0.8,1.5-0.8c0.4,0.1,0.8,0.3,1.1,0.6c0.3,0.4,0.5,0.8,0.6,1.3
		c0.1,0.5,0.1,1,0,1.3c-0.3,1-0.7,1.9-1.4,2.7c-0.6,0.9-1.4,1.6-2.2,2.3c-0.8,0.6-1.8,1.2-2.8,1.5c-1,0.4-2.1,0.5-3.2,0.5
		c-2.4,0-4.4-1-6.1-2.9c-1.7-1.9-3-4.3-4-7.2c-1-2.9-1.6-5.9-2-9.2C114.8,29.1,114.8,26.1,115,23.4z M131.2,13
		c-0.2-1.9-0.8-2.9-1.9-3.2c-1.1-0.3-2.2-0.1-3.4,0.6c-1.2,0.7-2.3,1.8-3.4,3.2c-1,1.4-1.6,2.9-1.8,4.4c0.7,0.2,1.7,0.3,2.9,0.3
		c1.2,0,2.3-0.2,3.5-0.5c1.1-0.4,2.1-0.9,2.9-1.7C130.8,15.4,131.2,14.3,131.2,13z"/>
	<path class="st0" d="M140.8,10.5c0.5-1.4,1.1-2.3,1.8-2.7c0.7-0.4,1.3-0.6,2-0.5c0.7,0.1,1.3,0.3,1.8,0.7c0.5,0.4,0.9,0.6,1.1,0.7
		c1.9,2.9,3.8,5.8,5.8,8.8c1.9,3,4.3,5.7,6.9,8.2c3.1-3.9,5.6-7.1,7.7-9.6c2-2.5,3.7-4.4,4.9-5.8c1.3-1.4,2.2-2.3,2.9-2.9
		c0.6-0.5,1.1-0.8,1.5-0.9c0.4-0.1,0.7-0.1,0.9,0c0.3,0.1,0.6,0.1,1.1,0c0.9,0,1.6,0.7,2.1,2.2c0.5,1.5,0.8,3.4,1.1,5.8
		c0.2,2.4,0.3,5.1,0.3,8.1c0,3,0,6.1,0,9.2c0,3.1,0,6.1,0,9c0,2.9,0.2,5.5,0.4,7.7c0.1,1-0.1,1.9-0.6,2.5c-0.5,0.7-1.2,1.1-1.9,1.3
		c-0.7,0.2-1.4,0-2-0.4c-0.6-0.4-1-1.3-1.1-2.6c-0.4-5-0.6-9.5-0.7-13.6c-0.1-4-0.1-7.6,0-10.6c0-3,0.1-5.5,0.1-7.4
		c0.1-1.9,0-3.3-0.1-4c-2.1,2.4-4.1,4.7-5.9,6.9c-1.8,2.3-3.4,4.3-4.9,5.9c-1.5,1.7-2.8,3-3.8,3.8c-1.1,0.9-1.9,1.1-2.6,0.6
		c-0.3,0-0.8-0.2-1.4-0.6c-0.6-0.4-1.4-1.1-2.5-2.2c-1.1-1.1-2.5-2.6-4.1-4.6c-1.7-2-3.7-4.5-6.2-7.7c0,1.1,0,2.6,0.1,4.4
		c0.1,1.8,0.1,3.8,0.2,6c0.1,2.2,0.2,4.4,0.3,6.8c0.1,2.3,0.2,4.6,0.3,6.7c0.1,2.1,0.2,4.1,0.2,5.8c0.1,1.8,0.1,3.2,0.1,4.2
		c0.1,1-0.2,1.8-0.7,2.4c-0.5,0.6-1.2,0.9-1.9,0.9c-0.7,0.1-1.3-0.2-1.9-0.6c-0.6-0.5-0.9-1.2-0.9-2.3c-0.3-5.4-0.4-10.5-0.4-15
		c0-4.6,0-8.6,0-12c0-3.4,0.1-6.2,0.1-8.4C140.9,12.5,140.9,11.1,140.8,10.5z"/>
	<path class="st0" d="M197.5,51.6c-1.7,0-3.3-0.6-4.5-1.9c-1.3-1.3-2.3-2.9-3.1-5.1c-0.8-2.1-1.4-4.5-1.7-7.2
		c-0.4-2.7-0.5-5.4-0.4-8.2c0.1-2.8,0.4-5.6,0.9-8.3c0.5-2.7,1.2-5.2,2.1-7.3c0.9-2.2,2-3.9,3.4-5.3c1.3-1.4,2.8-2.2,4.5-2.4
		c2-0.2,3.7,0.3,5.2,1.5c1.5,1.2,2.8,2.9,3.8,5c1,2.1,1.8,4.5,2.3,7.3s0.8,5.6,0.8,8.5c0,2.9-0.3,5.7-0.8,8.5
		c-0.5,2.8-1.3,5.3-2.4,7.5c-1.1,2.2-2.5,4-4.1,5.3C201.7,50.9,199.8,51.6,197.5,51.6z M199,10.9c-1,0-1.9,0.5-2.7,1.5
		c-0.8,1-1.5,2.3-2,4c-0.6,1.6-1,3.5-1.3,5.6c-0.3,2.1-0.5,4.2-0.6,6.4c-0.1,2.2,0,4.3,0.2,6.4c0.2,2.1,0.5,3.9,0.9,5.6
		c0.4,1.7,1,3,1.7,4c0.7,1,1.6,1.6,2.5,1.6c1.6,0.1,3-0.7,4.3-2.4c1.2-1.7,2.1-3.9,2.8-6.5c0.7-2.6,1.1-5.4,1.2-8.5
		c0.1-3.1,0-5.9-0.5-8.5c-0.4-2.6-1.2-4.8-2.3-6.6C202.2,11.7,200.8,10.8,199,10.9z"/>
	<path class="st0" d="M218.7,46.2c0.3,0,1-0.1,2-0.3c1-0.2,2.1-0.5,3.4-0.8c1.3-0.3,2.6-0.8,4-1.3c1.4-0.5,2.7-1.1,3.9-1.9
		c1.2-0.7,2.2-1.5,3.1-2.4c0.8-0.9,1.4-1.9,1.6-3c0.1-0.7-0.4-1.2-1.5-1.5c-1-0.3-2.3-0.6-3.9-0.9c-1.6-0.3-3.3-0.5-5.1-0.9
		c-1.8-0.3-3.5-0.8-5.1-1.4c-1.6-0.6-2.9-1.4-4-2.3c-1.1-1-1.6-2.2-1.5-3.9c-0.2-1.3-0.1-2.9,0.5-4.5c0.6-1.7,1.4-3.4,2.6-5.1
		c1.1-1.7,2.5-3.3,4.2-4.9c1.6-1.5,3.4-2.8,5.3-3.9c1.9-1,4-1.8,6.1-2.1c2.1-0.4,4.2-0.3,6.4,0.3c0.6,0.3,1.1,0.8,1.3,1.4
		c0.3,0.7,0.3,1.3,0.3,1.9c-0.1,0.6-0.3,1.1-0.6,1.6c-0.3,0.4-0.8,0.5-1.3,0.4c-2.1-0.2-4.3,0-6.6,0.5c-2.2,0.5-4.3,1.3-6.1,2.4
		c-1.9,1.1-3.4,2.5-4.6,4.3c-1.2,1.7-1.8,3.8-1.8,6.1c0,1.3,0.5,2.3,1.6,3c1.1,0.7,2.4,1.2,4,1.6c1.6,0.4,3.4,0.7,5.3,0.9
		c1.9,0.2,3.6,0.5,5.3,0.9c1.6,0.4,3,1,4,1.7c1.1,0.7,1.6,1.8,1.6,3.1c0.2,1.5-0.2,2.9-1.1,4.2c-0.9,1.3-2,2.6-3.5,3.8
		c-1.4,1.2-3.1,2.3-4.9,3.2c-1.9,1-3.7,1.8-5.6,2.5c-1.9,0.7-3.7,1.2-5.4,1.6c-1.7,0.4-3.2,0.5-4.3,0.5c-1-0.2-1.6-0.6-1.9-1.1
		c-0.3-0.5-0.4-1.1-0.3-1.6c0.1-0.5,0.5-1,1-1.4C217.5,46.4,218,46.2,218.7,46.2z"/>
	<path class="st0" d="M272.8,49.2c0.1,0.2,0.1-0.5,0.2-1.9c0.1-1.4,0.1-3.3,0.1-5.7c0-2.4,0-5.1,0-8.1c0-3-0.1-6.1-0.2-9.2
		c-0.1-3.1-0.3-6.1-0.5-9c-0.3-2.9-0.6-5.3-1-7.4c0.1-0.9,0.4-1.6,1-2c0.5-0.4,1.1-0.7,1.7-0.8c0.6-0.1,1.2,0.1,1.7,0.3
		c0.5,0.3,0.8,0.7,0.8,1.3c1.8-0.9,3.9-1.5,6.3-1.8c2.4-0.3,4.7-0.1,6.8,0.4c2.1,0.6,3.9,1.6,5.2,3c1.3,1.5,1.9,3.5,1.6,6.1
		c-0.3,2.4-1,4.4-2.3,6.2c-1.2,1.8-2.7,3.4-4.5,4.8c-1.7,1.4-3.6,2.6-5.7,3.7c-2,1.1-4.1,2.1-6.1,3l0.1,17.3c-0.1,0.6-0.4,1-0.9,1.3
		c-0.6,0.3-1.2,0.5-1.9,0.5c-0.7,0-1.3-0.1-1.8-0.5C273,50.5,272.7,49.9,272.8,49.2z M277.7,11.9c-0.1,0.8-0.2,2-0.2,3.4
		c0,1.4,0,2.9,0,4.3c0,1.5,0.1,2.8,0.2,4c0.1,1.2,0.2,2,0.2,2.4c1.5-0.2,3-0.6,4.5-1.3c1.6-0.7,3-1.6,4.3-2.7
		c1.3-1.1,2.3-2.4,3.2-3.9c0.8-1.5,1.2-3,1.1-4.6c0.2-1.4-0.2-2.4-1.2-2.9c-1-0.5-2.3-0.8-3.8-0.8c-1.5,0-3.1,0.3-4.7,0.7
		C279.8,10.9,278.6,11.4,277.7,11.9z"/>
	<path class="st0" d="M309,51.6c-1.7,0-3.3-0.6-4.5-1.9c-1.3-1.3-2.3-2.9-3.1-5.1c-0.8-2.1-1.4-4.5-1.7-7.2
		c-0.4-2.7-0.5-5.4-0.4-8.2c0.1-2.8,0.4-5.6,0.9-8.3c0.5-2.7,1.2-5.2,2.1-7.3c0.9-2.2,2-3.9,3.4-5.3c1.3-1.4,2.8-2.2,4.5-2.4
		c2-0.2,3.7,0.3,5.2,1.5c1.5,1.2,2.8,2.9,3.8,5c1,2.1,1.8,4.5,2.3,7.3s0.8,5.6,0.8,8.5c0,2.9-0.3,5.7-0.8,8.5
		c-0.5,2.8-1.3,5.3-2.4,7.5c-1.1,2.2-2.5,4-4.1,5.3C313.2,50.9,311.2,51.6,309,51.6z M310.5,10.9c-1,0-1.9,0.5-2.7,1.5
		c-0.8,1-1.5,2.3-2,4c-0.6,1.6-1,3.5-1.3,5.6c-0.3,2.1-0.5,4.2-0.6,6.4c-0.1,2.2,0,4.3,0.2,6.4c0.2,2.1,0.5,3.9,0.9,5.6
		c0.4,1.7,1,3,1.7,4c0.7,1,1.6,1.6,2.5,1.6c1.6,0.1,3-0.7,4.3-2.4c1.2-1.7,2.1-3.9,2.8-6.5c0.7-2.6,1.1-5.4,1.2-8.5
		c0.1-3.1,0-5.9-0.5-8.5c-0.4-2.6-1.2-4.8-2.3-6.6C313.6,11.7,312.2,10.8,310.5,10.9z"/>
	<path class="st0" d="M331.6,50.1c-0.3,0.6-0.7,1-1.3,1.3c-0.6,0.3-1.2,0.5-1.9,0.4c-0.6-0.1-1.1-0.3-1.6-0.8
		c-0.4-0.5-0.6-1.3-0.5-2.4c0.3-1.4,0.5-3.1,0.6-5.1c0.1-2,0.2-4.2,0.2-6.6c0-2.4,0-4.8-0.1-7.3c-0.1-2.5-0.2-5-0.2-7.4
		c-0.1-2.4-0.1-4.7-0.2-6.8c-0.1-2.1-0.1-4,0-5.6c0.1-0.8,0.3-1.6,0.8-2.1c0.4-0.6,0.9-1,1.5-1.3c0.5-0.3,1.1-0.4,1.6-0.3
		c0.5,0.1,0.8,0.4,1,1l0.3,3.5c0.8-0.5,1.9-1.1,3.1-1.7c1.2-0.6,2.6-1.2,4-1.8c1.4-0.5,2.8-0.9,4.2-1.2c1.4-0.3,2.7-0.3,3.8,0
		c1.1,0.3,2,0.9,2.7,1.8c0.7,0.9,1.1,2.3,1.1,4.2c0.2,1.4,0,2.8-0.6,4.1c-0.6,1.3-1.3,2.5-2.2,3.7c-0.9,1.1-2,2.1-3.2,3
		c-1.2,0.9-2.3,1.7-3.4,2.3c-1.1,0.6-2,1.1-2.9,1.4c-0.8,0.3-1.4,0.4-1.6,0.3c0,0.2,0.3,0.7,0.8,1.5c0.5,0.8,1.5,1.9,2.9,3.1
		c1.4,1.3,3.4,2.8,5.9,4.5c2.5,1.7,5.8,3.6,9.9,5.6c0.7,0.4,1.1,0.9,1.1,1.4c0,0.5-0.2,1-0.7,1.5c-0.5,0.4-1.1,0.8-1.9,1.1
		c-0.8,0.3-1.6,0.3-2.4,0c-1.2-0.4-2.6-1.3-4.3-2.6c-1.7-1.3-3.4-2.7-5.3-4.2c-1.9-1.5-3.9-3-5.8-4.4c-2-1.4-3.9-2.5-5.6-3.2
		L331.6,50.1z M331.4,23.4c1.5-0.3,2.9-0.8,4.5-1.4c1.5-0.6,2.9-1.4,4.2-2.2c1.3-0.9,2.4-1.9,3.4-3.1c1-1.2,1.7-2.6,2.1-4.1
		c0.1-1.2-0.4-1.9-1.3-2.1c-0.9-0.2-2-0.1-3.4,0.4c-1.4,0.4-2.9,1.2-4.5,2.1c-1.6,1-3.1,2.1-4.5,3.2L331.4,23.4z"/>
	<path class="st0" d="M409.7,52.3c-0.6-0.7-1-1.9-1.3-3.6c-0.3-1.7-0.6-3.5-0.8-5.3c-0.2-1.9-0.4-3.6-0.6-5.2
		c-0.2-1.6-0.4-2.7-0.7-3.3c-0.6,3.1-1.4,5.8-2.2,7.9c-0.9,2.1-1.8,3.8-2.9,5.1c-1,1.3-2.1,2.2-3.3,2.8c-1.2,0.6-2.3,0.8-3.4,0.8
		c-1.5-0.2-2.7-1.2-3.8-3c-1.1-1.8-1.9-4-2.6-6.6c-0.7-2.6-1.2-5.6-1.6-8.8c-0.4-3.3-0.7-6.5-0.9-9.8c-0.2-3.3-0.3-6.4-0.3-9.3
		c-0.1-2.9-0.1-5.4,0-7.4c0.2-0.4,0.5-0.7,1-1c0.5-0.3,1-0.5,1.6-0.5c0.6-0.1,1.1,0,1.6,0.2c0.5,0.2,0.9,0.7,1.1,1.3
		c0,1.7,0,3.7,0,6.2c0,2.4,0.1,5,0.2,7.8c0.1,2.7,0.3,5.5,0.5,8.3c0.2,2.8,0.5,5.3,0.9,7.6c0.4,2.3,0.8,4.2,1.3,5.7
		c0.5,1.5,1.2,2.5,1.9,2.7c1.1-0.1,2.1-0.9,3-2.5c0.9-1.6,1.8-3.7,2.5-6.1c0.8-2.5,1.4-5.2,2-8.2c0.6-3,1.1-5.8,1.5-8.6
		c0.4-2.7,0.8-5.2,1-7.4c0.3-2.2,0.4-3.8,0.5-4.7c0.1-0.4,0.3-0.8,0.8-1c0.5-0.2,1-0.3,1.6-0.3c0.6,0,1.1,0.1,1.6,0.3
		c0.5,0.2,0.8,0.5,1,0.9c0.1,3.4,0.1,7.1,0.1,11.1c0,4,0.2,7.9,0.4,11.8c0.2,3.9,0.6,7.6,1,11c0.4,3.5,1.1,6.4,1.9,8.7
		c0,0.7-0.2,1.2-0.5,1.6c-0.4,0.4-0.8,0.6-1.3,0.8c-0.5,0.2-1,0.2-1.6,0.2C410.4,52.5,410,52.4,409.7,52.3z"/>
	<path class="st0" d="M418.1,12.4c-0.3-0.4-0.6-0.9-0.8-1.5c-0.2-0.6-0.3-1.2-0.2-1.7c0.1-0.6,0.3-1.1,0.7-1.5
		c0.4-0.4,0.9-0.7,1.7-0.7c1.3,0,2.7,0.7,4.1,2.2c1.4,1.5,2.8,3.3,4.3,5.6s2.8,4.8,4.2,7.4c1.4,2.7,2.7,5.3,4,7.7
		c1.3,2.5,2.5,4.7,3.6,6.6c1.1,1.9,2.1,3.2,2.9,3.9c0.4-2.6,0.6-5.6,0.6-9c-0.1-3.3-0.2-6.7-0.5-10c-0.3-3.3-0.5-6.5-0.8-9.4
		c-0.3-2.9-0.5-5.3-0.5-7.2c0-0.7,0.2-1.2,0.6-1.6c0.4-0.4,0.9-0.5,1.4-0.5c0.5,0,1.1,0.3,1.7,0.7c0.6,0.4,1.1,1.2,1.5,2.1
		c0,0.6,0.1,1.6,0.2,3.2c0.1,1.5,0.3,3.4,0.5,5.6c0.2,2.2,0.4,4.6,0.5,7.2c0.2,2.6,0.3,5.2,0.3,7.8c0.1,2.6,0,5.1,0,7.6
		c-0.1,2.4-0.3,4.6-0.6,6.4c-0.3,1.9-0.8,3.3-1.4,4.4c-0.6,1.1-1.4,1.6-2.4,1.6c-1,0.1-2.1-0.4-3.2-1.5c-1.1-1.1-2.2-2.6-3.3-4.5
		c-1.1-1.9-2.2-4-3.4-6.4c-1.2-2.4-2.3-4.7-3.5-6.9c-1.2-2.3-2.3-4.4-3.4-6.3c-1.1-1.9-2.2-3.4-3.4-4.5v31.3
		c-0.1,0.7-0.5,1.3-1.1,1.6c-0.6,0.4-1.2,0.5-1.9,0.4c-0.7-0.1-1.3-0.4-1.9-0.8c-0.6-0.5-0.8-1.2-0.8-2.1L418.1,12.4z"/>
</g>
</svg>
