<svg version="1.1" id="Mundo" xmlns="http://www.w3.org/2000/svg" xmlns:xlink="http://www.w3.org/1999/xlink" x="0px" y="0px"
	 viewBox="0 0 508.3 146" style="enable-background:new 0 0 508.3 146;" xml:space="preserve">
	 <filter id="blurMe">
		<feConvolveMatrix order="4,4" 
			kernelMatrix="
			1 0 0 0
			0 1 0 0
			0 0 1 0 
			0 0 0 1" in="SourceAlpha" result="BEVEL" />

		<!-- offset extrusion: -->

		<feOffset dx="5" dy ="5" in="BEVEL" result="OFFSET" />
		<feFlood flood-color="#95D9C3" flood-opacity="0.5" result="offsetColor"/>
		<feComposite in="OFFSET" in2="offsetColor" operator="in" result="offsetBlur"/>

		<!-- merge offset with Source: -->

		<feMerge>
			<feMergeNode in="offsetBlur" />
			<feMergeNode in="SourceGraphic" />
		</feMerge>
	</filter>
<style type="text/css">
	.st0{fill:#FFFFFF;}
</style>
<path filter="url(#blurMe)" class="st0" d="M73.5,78.4l-10.1,62.4H44.2L33.7,78.4v62.4H2.9V2.3h32.8l18,72.5L71.5,2.3h32.8v138.5H73.5V78.4z"/>
<path filter="url(#blurMe)" class="st0" d="M174.1,79.3v-77h31.4v77c0,54.1-8.9,63.8-44.8,63.8s-44.8-9.7-44.8-63.8v-77h31.4v77c0,30.6,1.7,38.4,13.4,38.4
	S174.1,110,174.1,79.3z"/>
<path filter="url(#blurMe)" class="st0" d="M310.7,2.3v138.5h-30.8L248,72.3v68.5h-30.8V2.3h30.6l32,72.3V2.3H310.7z"/>
<path filter="url(#blurMe)" class="st0" d="M405.9,69.2c0,55.7-7.6,71.6-46.9,71.6h-36.7V2.3h36.7c39.4,0,46.9,15.9,46.9,71.6V69.2z M375,73.9
	c0-45-3.1-46.5-21.9-46.5v88.4c18.8,0,21.9-1.6,21.9-46.5V73.9z"/>
<path filter="url(#blurMe)" class="st0" d="M507.1,71.8c0,52.2-3.1,71.4-44.8,71.4s-44.8-19.2-44.8-71.4c0-50.4,3.1-71.8,44.8-71.8S507.1,21.3,507.1,71.8z
	 M451.5,71.8c0,38.4,1.2,44.4,10.9,44.4c9.7,0,10.9-6,10.9-44.4c0-37.6-1.2-44.8-10.9-44.8C452.6,27,451.5,34.1,451.5,71.8z"/>
</svg>