<svg version="1.1" id="Layer_1" xmlns="http://www.w3.org/2000/svg" xmlns:xlink="http://www.w3.org/1999/xlink" x="0px" y="0px"
	 viewBox="0 0 19.7 42.3" style="enable-background:new 0 0 19.7 42.3;" xml:space="preserve">
<style type="text/css">
	.st0{fill:#005772;}
</style>
<path class="st0" d="M5.7,27c0.8,1,0.8,1,0.1,2.1c-0.4,0.6-0.6,1.3-0.6,2.1c0,0.2,0,0.3-0.1,0.4c-0.3,0.7-0.1,1.3,0.1,2
	c0.4,1.7,0.9,3.5,1.4,5.2c-1.5-0.4-2.6,0.3-2.8,1.7c-0.1,0.6,0.1,1,0.7,1.1c0.7,0.2,1.4,0.2,2,0.1c0.7-0.1,1.2,0.2,1.9,0.3
	c0.7,0,1.4-0.2,2.1-0.3v0c0.7,0.2,1.4,0.2,2.1,0.1c1.1-0.2,1.5-1.3,0.8-2.2c-0.6-0.8-1.4-1-2.3-1c0,0,0,0,0,0c0,0,0,0,0,0
	c1.1-1.1,2.3-1.9,3.5-2.7c2.2-1.4,3.2-3.4,3.4-5.9c0.1-1.5,0.1-3.1-0.1-4.6c-0.2-2.3,0.3-4.5,1.3-6.5c0.1-0.2,0.2-0.3,0.2-0.5
	c-0.7,0.8-1.2,1.7-1.7,2.7c-1.1,2.2-1.4,4.5-1.4,6.9c0,1.3,0,2.5-0.3,3.7c-0.3,1.5-1.4,2.4-2.5,3.3c-0.2,0.1-0.1-0.1-0.1-0.1
	c0.9-1.6,1.2-3.2,1-5c-0.1-0.8,0.2-1.6,0.2-2.4c0.1-1.6-0.2-3.1-0.3-4.7c-0.3-3.4,0.2-6.5,2.1-9.4c1-1.5,1.5-3.2,1.1-5.1
	c-0.5-2.1-1.7-3.8-3.1-5.3c0.4,0.8,0.8,1.5,1.1,2.3c0.5,1.3,0.7,2.6,0.6,4c0,0.9-0.3,1.8-1,2.4c-2.1,2-2.9,4.5-2.9,7.4
	c0,1.4,0.1,2.8,0.3,4.2c0,0.2,0,0.3,0,0.5c-0.9-2-2.5-3.6-3.5-5.6c0.1-0.9,0.5-1.8,0.8-2.6c0.2-0.7,0.5-1.4,0.8-2
	c0.8-2.1,0.7-4.3-0.1-6.4C9.4,4.6,7.9,2.4,6.1,0.4l0.4,1c0.9,1.9,1.6,3.8,2.2,5.8c0.6,2.2,0.4,4.3-0.3,6.5c-0.1,0.4-0.3,0.9-0.4,1.3
	c-0.1,0.3-0.2,0.1-0.2,0c-0.2-1.5-0.4-2.9-0.6-4.4c-0.3,0.7-0.4,1.4-0.4,2.1c-0.1,1.5,0,2.9,0.5,4.3c0.1,0.2,0,0.3,0,0.5v0
	c-0.4,1.1-0.5,2.3-0.6,3.4c0,0.3,0.2,0.7-0.2,0.9c0,0,0.1,0.2,0.1,0.3c0.3,0.9,0.6,1.7,0.7,2.6c0.2,0.8,0,1.5-0.3,2.3
	c-0.3-0.2-0.5-0.5-0.7-0.8c-0.7-0.9-1.5-1.8-2.2-2.7c-2.5-3.1-2.9-6.6-1.7-10.4c0.3-1,0.7-1.9,1.2-2.9C3.2,10.6,3,11,2.7,11.4
	c-1,1.5-1.7,3.1-2.1,4.8c-0.6,2.4,0,4.6,1.5,6.5c0.8,1.1,1.8,2.1,2.7,3.2C5.1,26.3,5.4,26.6,5.7,27z M12.4,33.5
	C12.4,33.5,12.4,33.5,12.4,33.5C12.3,33.6,12.3,33.6,12.4,33.5C12.3,33.6,12.3,33.6,12.4,33.5C12.4,33.5,12.4,33.5,12.4,33.5
	C12.4,33.4,12.5,33.6,12.4,33.5z M9.3,33.5C9.3,33.5,9.3,33.5,9.3,33.5c0,0,0-0.1,0-0.1c0,0.1,0,0.1,0,0.2
	C9.3,33.6,9.3,33.5,9.3,33.5z M9.3,32.4c-0.1-0.9-0.3-1.9-0.7-2.7c-0.2-0.6-0.3-1.1,0-1.6c0,0,0-0.1,0.1-0.1c0,0.1,0,0.1,0,0.2
	C9.2,29.5,9.2,30.9,9.3,32.4z M12.2,29.6c-0.4,1.4-0.9,2.8-1.4,4.2c0.1-0.9,0.1-1.8,0.1-2.7c0-2.4-0.5-4.8-1.6-6.9
	c-0.6-1.1-0.7-2.3-0.7-3.5c0.5,1,1.2,1.8,1.8,2.8c0.7,1.3,1.4,2.7,1.9,4.1C12.5,28.3,12.4,28.9,12.2,29.6z"/>
</svg>
