<svg version="1.1" id="Layer_1" xmlns="http://www.w3.org/2000/svg" xmlns:xlink="http://www.w3.org/1999/xlink" x="0px" y="0px"
	 viewBox="0 0 152 304.7" style="enable-background:new 0 0 152 304.7;" xml:space="preserve">
<style type="text/css">
	.st0{fill:none;}
	.st1{fill:#CEC9C9;}
	.st2{fill:#DFD8D8;}
	.st3{fill:#EF403F;}
	.st4{fill:#F04D4E;}
	.st5{fill:#AF3B42;}
	.st6{fill:#AF4147;}
	.st7{fill:#E02826;}
	.st8{fill:#E5DDDC;}
	.st9{fill:#F26A70;}
	.st10{fill:#F15E62;}
	.st11{fill:#F26D72;}
	.st12{fill:#E7CAC5;}
	.st13{fill:#D0CCCC;}
	.st14{fill:#CABDBD;}
	.st15{fill:#B8918F;}
	.st16{fill:#C45757;}
	.st17{fill:#C38F8C;}
	.st18{fill:#C7B1B0;}
	.st19{fill:#D4B4B4;}
	.st20{fill:#D6A9AA;}
	.st21{fill:#CCA7A5;}
	.st22{fill:#D42027;}
	.st23{fill:#A88889;}
	.st24{fill:#EF3836;}
	.st25{fill:#ECE0DF;}
	.st26{fill:#E73436;}
	.st27{fill:#F15F62;}
	.st28{fill:#F48288;}
	.st29{fill:#A88C8C;}
	.st30{fill:#A68C8C;}
	.st31{fill:#A78784;}
	.st32{fill:#D6BDB6;}
	.st33{fill:#DCBEBC;}
	.st34{fill:#DDBFBF;}
	.st35{fill:#DDC4C1;}
	.st36{fill:#E2CAC7;}
	.st37{fill:#DCBEBE;}
	.st38{fill:#F0575B;}
</style>
<g>
	<path class="st0" d="M137.8,7.7C137.8,7.7,137.8,7.7,137.8,7.7C137.8,7.7,137.8,7.7,137.8,7.7C137.8,7.7,137.8,7.7,137.8,7.7z"/>
	<path class="st0" d="M98.9,25.5C98.9,25.5,98.9,25.5,98.9,25.5C98.9,25.5,98.9,25.5,98.9,25.5z"/>
	<path class="st0" d="M43.4,189.2c0,0,0,0.1,0,0.1c0-0.1,0.1-0.3,0.1-0.4c0,0,0,0,0,0C43.4,189,43.3,189.1,43.4,189.2z"/>
	<path class="st0" d="M97.4,27.6c0.1-0.1,0.2-0.2,0.3-0.3c0,0,0,0,0,0C97.5,27.2,97.4,27.4,97.4,27.6z"/>
	<path class="st1" d="M15.8,288c1.5-5,3-9.9,4.5-14.9c0.9-2.9,1.7-5.7,2.5-8.6h0c0.3-0.8,0.5-1.6,0.8-2.4c0-0.1,0-0.1,0.1-0.2
		c0.6-2.4,1.4-4.8,2.1-7.2c1-3.1,1.9-6.3,2.8-9.4c1-3.3,2-6.5,3-9.8c0.9-2.9,1.7-5.9,2.6-8.8c0.6-2,1.2-3.9,1.8-5.9
		c1-3.2,1.9-6.4,2.9-9.6c0.9-2.9,1.7-5.7,2.6-8.6c0.1,0,0.2,0,0.3,0c0,0,0,0,0,0c0,0,0-0.1,0-0.1c-0.1,0-0.2,0-0.3,0
		c0-0.1,0.1-0.2,0.1-0.3c0.2-0.5,0.3-1.1,0.5-1.6c0.1,0,0.1,0,0.2,0c-0.1,0-0.1,0-0.2,0c0.3-1.1,0.6-2.1,1-3.2
		c0.6-1.8,1.1-3.6,1.6-5.4c0.7-2.2,1.4-4.5,2.1-6.7c1.3-4.2,2.5-8.4,3.8-12.6c0.6-2,1.3-3.9,1.9-5.9c0.9-3,1.8-5.9,2.7-8.9
		c0.5-1.8,1.1-3.5,1.6-5.3c0.8-2.7,1.6-5.3,2.4-8c1.7-5.5,3.4-11,5.1-16.6c1.5-5,3-9.9,4.5-14.9c0.9-2.9,1.7-5.7,2.5-8.6h0
		c0.3-0.8,0.5-1.6,0.8-2.4c0-0.1,0-0.1,0.1-0.2c0.6-2.4,1.4-4.8,2.1-7.2c1-3.1,1.9-6.3,2.8-9.4c1-3.3,2-6.5,3-9.8
		c0.9-2.9,1.7-5.9,2.6-8.8c0.6-2,1.2-3.9,1.8-5.9c1-3.2,1.9-6.4,2.9-9.6c0.9-3,1.8-6,2.7-9c1.1-3.7,2.3-7.4,3.3-11.1
		c0.3-0.9,0.8-1.5,1.4-2.2c-0.2-0.2-0.5-0.5-0.7-0.7c0,0,0,0,0,0c0,0,0,0,0,0c-0.8-0.3-1.5-0.8-2.5-0.7c-0.5,0.5-0.3,1.2-0.7,1.7h0
		c0,0.1,0,0.1,0,0.2v0c0.8,0.5,1,1.3,0.6,2.1c-0.3,0.6-0.1,1.3-0.4,2c-1,2.7-1.8,5.5-2.6,8.3c-1.1,3.5-2.1,7-3.3,10.4
		c-0.6,1.6-0.8,3.3-1.3,4.9c-0.5,1.5-0.8,3.2-1.5,4.7c-0.4,0.8-0.1,1.7-0.6,2.5c-0.6,1-0.6,2.3-1,3.3c-1,2-1.4,4.2-2.1,6.3
		c-0.7,1.9-1.3,3.8-1.7,5.7c-0.5,2.3-1.5,4.4-2,6.8c-0.3,1.2-1,2.5-1.3,3.8c-0.4,1.4-0.9,2.7-1.2,4.2c-0.4,2-1.4,3.9-1.7,6
		c0,0.3-0.4,0.5-0.6,0.8c-0.2,0.2-0.5,0.4-0.2,0.7c0.4,0.4,0.1,0.6-0.1,0.8c-0.6,0.5-0.7,1.2-0.4,1.9c0.2,0.4-0.1,0.8-0.2,1.2
		c-0.1-0.3-0.1-0.7-0.2-1.1c-0.3,0.2-0.3,0.5-0.3,0.8c0.1,1.8-0.7,3.4-1.1,5c-0.5,2-1.2,4-1.8,5.9c-0.7,2.1-1.2,4.3-1.9,6.5
		c-0.5,1.7-1.3,3.3-1.6,5.1c-0.3,2-1.3,3.7-1.6,5.7c-0.1,0.8-0.8,1.7-1,2.6c-0.4,1.8-0.9,3.6-1.6,5.3c-0.3,0.7-0.5,1.4-0.8,2
		c-0.3,0.6-0.4,1.1-0.3,1.9c0.1,0.6-0.3,1.5-0.6,2.1c-0.3,0.7-0.4,1.4-0.6,2.2c-0.3,1.2-1,2.3-1.2,3.5c-0.1,0.6-0.1,1.3-0.8,1.7
		c-0.1,0.1-0.2,0.3-0.1,0.5c0.3,1.2-0.4,2.1-0.8,3.1c-0.6,1.7-1,3.4-1.7,5.1c-0.6,1.6-0.6,3.5-1.3,5.1c-0.4,1-0.8,2.1-1.2,3.2
		c-0.6,1.6-0.7,3.3-1.4,4.9c-0.6,1.5-0.8,3.1-1.5,4.5c-0.4,0.9-0.5,1.8-0.8,2.7c-0.4,1-0.6,2.1-1,3.1c-0.2,0.6-0.1,1.4-1,1.6
		c0,0.1-0.1,0.3-0.1,0.4c0.4,1.7-1.1,3.1-1.1,4.6c0,1.4-0.6,2.4-1.2,3.5c-0.1,0.3,0,0.5,0.1,0.8c0.1,0.3,0.1,0.7-0.3,0.8
		c-0.9,0.2-1,0.8-0.9,1.4c0,0-0.1,0-0.1,0c0.3,0,0.6,0.1,1,0.1c-0.1,0.5-0.3,0.9-0.4,1.4c-1.1,3.5-2.1,7-3.3,10.4
		c-0.6,1.6-0.8,3.3-1.3,4.9c-0.5,1.5-0.8,3.2-1.5,4.7c-0.4,0.8-0.1,1.7-0.6,2.5c-0.6,1-0.6,2.3-1,3.3c-1,2-1.4,4.2-2.1,6.3
		c-0.7,1.9-1.3,3.8-1.7,5.7c-0.5,2.3-1.5,4.4-2,6.8c-0.3,1.2-1,2.5-1.3,3.8c-0.4,1.4-0.9,2.7-1.2,4.2c-0.4,2-1.4,3.9-1.7,6
		c0,0.3-0.4,0.5-0.6,0.8c-0.2,0.2-0.5,0.4-0.2,0.7c0.4,0.4,0.1,0.6-0.1,0.8c-0.6,0.5-0.7,1.2-0.4,1.9c0.2,0.4-0.1,0.8-0.2,1.2
		c-0.1-0.3-0.1-0.7-0.2-1.1c-0.3,0.2-0.3,0.5-0.3,0.8c0.1,1.8-0.7,3.4-1.1,5c-0.5,2-1.2,4-1.8,5.9c-0.7,2.1-1.2,4.3-1.9,6.5
		c-0.5,1.7-1.3,3.3-1.6,5.1c-0.3,2-1.3,3.7-1.6,5.7c-0.1,0.8-0.8,1.7-1,2.6c-0.3,1.3-0.6,2.5-1,3.8c-0.1,0-0.1,0-0.2,0
		c0.7-0.1,1.4-0.3,2.1-0.4c-0.1,0-0.1,0-0.2,0C13.5,295.8,14.7,291.9,15.8,288z"/>
	<path class="st1" d="M10.2,300c0,0,0.1,0,0.1,0C10.3,300,10.3,300,10.2,300C10.2,300,10.2,300,10.2,300z"/>
	<path class="st2" d="M6.5,298.6c0.9-3.1,2-6.2,2.8-9.4c0.4-1.4,0.9-2.8,1.3-4.2c1.3-4.5,2.8-8.9,4.2-13.4c1.3-4.3,2.5-8.6,3.8-12.8
		c1-3.2,2-6.4,3-9.6c1.1-3.6,2.2-7.1,3.2-10.7c1.4-4.6,2.8-9.3,4.2-13.9c1-3.2,2.1-6.4,3-9.7c1-3.3,1.9-6.5,2.9-9.8
		c0.5-1.7,1-3.4,1.6-5.1c0.1,0,0.1,0,0.2,0c-0.1,0-0.1,0-0.2,0c0.7-2.2,1.3-4.4,2-6.5c1.4-4.6,2.9-9.2,4.3-13.8
		c1.3-4.2,2.5-8.4,3.7-12.6c1-3.2,2-6.3,3-9.5c0.9-3,1.8-5.9,2.6-8.9c1-3.3,2-6.6,3-9.9c0.9-3.1,2-6.2,2.8-9.4
		c0.4-1.4,0.9-2.8,1.3-4.2c1.3-4.5,2.8-8.9,4.2-13.4c1.3-4.3,2.5-8.6,3.8-12.8c1-3.2,2-6.4,3-9.6c1.1-3.6,2.2-7.1,3.2-10.7
		c1.4-4.6,2.8-9.3,4.2-13.9c1-3.2,2.1-6.4,3-9.7c1-3.3,1.9-6.5,2.9-9.8c1.3-4.4,2.7-8.7,4-13.1c0.2-0.7-0.1-1.5,0.5-2.1
		c0-0.2-0.1-0.4-0.1-0.6c0.1-0.9-0.3-1.2-1.2-1.1c0,0.8-0.1,1.5-0.6,2.1c0,0,0,0,0,0v0c-0.9,1.9-1.3,4-1.9,5.9
		c-0.7,2-1.2,4.1-1.9,6.2c-1.1,3.6-2.2,7.3-3.3,10.9c-1.1,3.4-2,6.9-3.1,10.3c-1.1,3.3-2.1,6.7-3.1,10.1c-0.9,3-1.9,6-2.7,9
		c-0.5,2-1.2,3.9-1.8,5.9c-0.9,3-1.8,6.1-2.7,9.1c-0.5,1.9-1.2,3.7-1.7,5.6c-1.1,3.6-2.1,7.2-3.3,10.8c-0.8,2.3-1.3,4.8-2.3,7
		c-0.1,0.3,0.2,0.6-0.2,0.8c-0.9,2.9-1.7,5.7-2.6,8.6c-0.9,2.9-1.6,5.8-2.6,8.7c-0.7,2-1.2,4.1-1.9,6.1c-1,3-1.8,6.1-2.7,9.1
		c-0.6,2-1.3,4-1.9,6c-1.3,4.2-2.5,8.5-3.8,12.7c-1.1,3.5-2.2,7-3.2,10.5c-1.3,4.4-2.6,8.9-4,13.3c-0.3,0.9-0.6,1.8-0.8,2.7
		c-0.1,0-0.2,0-0.3,0c0.1,0,0.2,0,0.2,0c-0.3,0.9-0.5,1.8-0.8,2.7c-1.1,3.6-2.2,7.3-3.3,10.9c-1.1,3.4-2,6.9-3.1,10.3
		c-1.1,3.3-2.1,6.7-3.1,10.1c-0.9,3-1.9,6-2.7,9c-0.5,2-1.2,3.9-1.8,5.9c-0.9,3-1.8,6.1-2.7,9.1c-0.5,1.9-1.2,3.7-1.7,5.6
		c-1.1,3.6-2.1,7.2-3.3,10.8c-0.8,2.3-1.3,4.8-2.3,7c-0.1,0.3,0.2,0.6-0.2,0.8c-0.9,2.9-1.7,5.7-2.6,8.6c-0.9,2.9-1.6,5.8-2.6,8.7
		c-0.2,0.4-0.3,0.9-0.4,1.3c-0.1,0-0.2,0-0.3,0c0.9-0.1,1.8-0.2,2.7-0.3c0,0,0,0,0,0c-0.1,0-0.2,0-0.4,0
		C6.2,299.9,6.4,299.2,6.5,298.6z"/>
	<path class="st3" d="M17.6,289.5c1.1-3.2,2-6.5,3-9.8c0.9-3,1.9-5.9,2.7-8.9c0.5-1.9,1.1-3.7,1.7-5.6c-0.8-0.1-1.5-0.3-2.1-0.7
		c0,0,0,0,0,0h0c-0.8,2.9-1.6,5.8-2.5,8.6c-1.6,4.9-3,9.9-4.5,14.9c-1.2,3.9-2.4,7.8-3.6,11.6c0.1,0,0.1,0,0.2,0
		c0.8-0.1,1.6-0.3,2.5-0.4c-0.1,0-0.2,0-0.2,0C15.6,296,16.6,292.7,17.6,289.5z"/>
	<path class="st4" d="M42.5,200.8c-0.1,0-0.1,0-0.2,0c-0.2,0.5-0.3,1.1-0.5,1.6c0,0.1-0.1,0.2-0.1,0.3c0.1,0,0.2,0,0.3,0
		c0,0,0,0.1,0,0.1c0,0,0,0,0,0c-0.1,0-0.2,0-0.3,0c-0.9,2.9-1.7,5.7-2.6,8.6c-1,3.2-1.9,6.4-2.9,9.6c-0.6,2-1.2,3.9-1.8,5.9
		c-0.9,2.9-1.7,5.9-2.6,8.8c-1,3.3-2,6.5-3,9.8c-1,3.1-1.9,6.3-2.8,9.4c-0.7,2.4-1.5,4.8-2.1,7.2c0,0.1-0.1,0.1-0.1,0.2
		c0-0.1,0-0.1,0.1-0.2c0.6,0.3,1.3,0.6,1.9,0.9c1.4-4.5,2.9-9.1,4.2-13.6c1.3-4.3,2.5-8.7,3.8-13c1-3.4,2.1-6.7,3.2-10.1
		c1.2-4.1,2.4-8.2,3.6-12.3c1.3-4.3,2.7-8.6,4-12.9C43.9,201,43.2,200.9,42.5,200.8z"/>
	<path class="st5" d="M4.4,299.4c1-2.9,1.6-5.8,2.6-8.7c0.9-2.8,1.7-5.7,2.6-8.6c0-0.3-0.1-0.3-0.4-0.2c-0.5,0.5-0.4,1.1-0.6,1.7
		c-1.3,4.2-2.7,8.5-4,12.8c-0.5,1.5-0.9,3-1.4,4.5c0.1,0,0.2,0,0.4,0c0.1,0,0.2,0,0.3,0C4.1,300.2,4.2,299.8,4.4,299.4z"/>
	<path class="st6" d="M9.5,282.1c0.4-0.2,0.1-0.6,0.2-0.8c1-2.3,1.5-4.7,2.3-7c1.2-3.6,2.2-7.2,3.3-10.8c0.6-1.9,1.2-3.7,1.7-5.6
		c0.9-3,1.8-6.1,2.7-9.1c0.6-2,1.3-3.9,1.8-5.9c0.8-3,1.8-6,2.7-9c1.1-3.4,2-6.7,3.1-10.1c1.1-3.4,2.1-6.9,3.1-10.3
		c1.1-3.6,2.2-7.3,3.3-10.9c0.3-0.9,0.5-1.8,0.8-2.7c-0.1,0-0.2,0-0.2,0c-0.1,0-0.2,0-0.3,0c0-0.1,0-0.2,0.1-0.2h0
		c-0.9,3.1-1.9,6.2-2.8,9.3c-0.6,1.9-1.2,3.8-1.7,5.7c-0.8,2.8-1.6,5.5-2.5,8.3c-1,3.4-2.1,6.7-3.2,10.1c-0.9,3-1.8,6.1-2.7,9.1
		c-0.6,2.1-1.3,4.2-2,6.3c-0.9,2.9-1.7,5.8-2.6,8.7c-1,3.4-2.1,6.7-3.1,10.1c-1,3.2-1.9,6.4-2.9,9.6c-0.5,1.7-1,3.5-1.5,5.2l0,0
		C9.4,281.7,9.5,281.8,9.5,282.1z"/>
	<path class="st7" d="M8,300.3C8,300.3,8,300.3,8,300.3C8,300.3,8,300.3,8,300.3C8,300.3,8,300.3,8,300.3z"/>
	<path class="st7" d="M8,300.3C8,300.3,8,300.3,8,300.3C8,300.3,8,300.3,8,300.3C8,300.3,8,300.3,8,300.3z"/>
	<path class="st7" d="M11.5,287.8c0.8-1.7,1.1-3.6,1.6-5.5c0.6-2,1.2-3.9,1.8-5.8c0.1-0.2,0.3-0.3,0.4-0.4c-0.5-1,0.4-1.8,0.6-2.6
		c0.7-2.5,1.5-5,2.2-7.5c0.8-2.7,1.8-5.4,2.6-8.2c0.8-3.1,1.9-6.1,2.8-9.2c0.9-3.3,2-6.6,3-10c0.6-2.1,1.2-4.2,1.9-6.3
		c0.5-1.6,1-3.3,1.5-5c0.8-2.6,1.8-5.3,2.5-7.9c0.8-3.5,2-6.9,3-10.4c0.9-3,1.7-6,2.8-8.9c0.2,0,0.3,0,0.5,0l0,0c-0.1,0-0.2,0-0.3,0
		c0.1-0.5,0.3-1,0.5-1.5c0.8-2.4,1.3-4.9,2.2-7.2c0.5-1.4,0.9-2.9,1.2-4.3c0.4-1.6,1.1-3.2,1.5-4.9c0.6-2.1,1.1-4.2,1.8-6.3
		c0.7-1.9,0.9-4.1,2-5.9c0-0.1,0.1-0.2,0.1-0.3c0.6-3.7,2-7.2,3-10.7c1.2-4.2,2.6-8.2,3.8-12.4c0.3-0.9,0.4-1.9,0.6-2.8
		c0.2-0.9,0.7-1.7,0.9-2.6c0.7-2.5,1.4-5,2.2-7.5c0.6-1.9,1-3.9,1.8-5.7c0.8-1.7,1.1-3.6,1.6-5.5c0.6-2,1.2-3.9,1.8-5.8
		c0.1-0.2,0.3-0.3,0.4-0.4c-0.5-1,0.4-1.8,0.6-2.6c0.7-2.5,1.5-5,2.2-7.5c0.8-2.7,1.8-5.4,2.6-8.2c0.8-3.1,1.9-6.1,2.8-9.2
		c0.9-3.3,2-6.6,3-10c0.6-2.1,1.2-4.2,1.9-6.3c0.5-1.6,1-3.3,1.5-5c0.8-2.6,1.8-5.3,2.5-7.9c0.8-3.5,2-6.9,3-10.4
		c1-3,1.7-6.1,2.8-9.1c0.5-1.4,0.9-2.9,1.2-4.4c0.5-1.8,1.1-3.7,1.6-5.5c0.3-1,0.9-1.1,1.7-0.8c0.4-0.5,0.2-1.3,0.7-1.7c0,0,0,0,0,0
		c0.4-0.7,0.8-1.5,1-2.3c0,0,0,0,0,0c0,0,0,0,0,0c0.1-0.1,0.2-0.2,0.3-0.3c0.7-0.4,0.7-1.3,1.1-1.9c0,0,0,0,0,0c0,0,0,0,0,0
		c0.1-0.1,0.3-0.2,0.4-0.3c0,0,0,0,0,0c0,0,0,0,0,0c0.7-0.4,0.8-1.2,1.3-1.7c0,0,0,0,0,0c0,0,0,0,0,0c0.1-0.2,0.2-0.3,0.4-0.3
		c0.6-0.4,1-1,1.6-1.5c0,0,0,0,0,0h0c0-0.1,0.1-0.2,0.1-0.2c0,0,0,0,0,0c0,0,0,0,0,0c0.9-0.2,1.4-1,2.1-1.4c0,0,0,0,0,0c0,0,0,0,0,0
		c0-0.1,0-0.2,0.1-0.2c0,0,0,0,0,0c0,0,0,0,0,0c1-0.1,1.6-1,2.6-1.4l0,0c0,0,0,0,0,0c0.9-0.3,1.9-0.3,2.5-1.2c0,0,0,0,0,0
		c0,0,0,0,0,0c-0.4-0.9-0.8-1.7-2-1.6v0c-0.4,0.3-0.9,0.4-1.3,0.3c-0.8-0.2-1.3,0.1-1.6,0.9c-0.2,0.5-0.5,0.7-1.1,0.6
		c-0.6-0.1-1.3-0.1-1.5,0.8c-0.1,0.8-0.6,1-1.3,1c-0.7-0.1-1,0.2-1.2,0.9c-0.1,0.5-0.3,1.2-1,1.2c-0.9,0.1-1.1,0.7-1.2,1.4
		c0,0.5-0.2,0.8-0.6,0.8c-1.3,0-1.4,0.8-1.3,1.7c0,0.5-0.1,0.8-0.7,0.9c-0.6,0.1-0.9,0.5-0.8,1.1c0.3,1.1-0.3,1.6-1.4,1.7h0
		c-0.3,0.4-0.2,0.9-0.1,1.3c0.1,0.8-0.1,1.5-0.5,2.1c-0.5,0.6-0.3,1.4-0.5,2.1c-1.4,4.4-2.7,8.7-4,13.1c-1,3.3-1.9,6.5-2.9,9.8
		c-1,3.2-2.1,6.4-3,9.7c-1.4,4.6-2.8,9.3-4.2,13.9c-1.1,3.6-2.1,7.1-3.2,10.7c-1,3.2-2,6.4-3,9.6c-1.3,4.3-2.5,8.6-3.8,12.8
		c-1.4,4.5-2.9,8.9-4.2,13.4c-0.4,1.4-0.9,2.8-1.3,4.2c-0.8,3.2-1.9,6.3-2.8,9.4c-1,3.3-2,6.6-3,9.9c-0.9,3-1.7,6-2.6,8.9
		c-1,3.2-2,6.3-3,9.5c-1.3,4.2-2.4,8.4-3.7,12.6c-1.4,4.6-2.9,9.2-4.3,13.8c-0.7,2.2-1.3,4.4-2,6.5c0.1,0,0.1,0,0.2,0
		c-0.1,0-0.1,0-0.2,0c-0.5,1.7-1,3.4-1.6,5.1c-1,3.3-1.9,6.5-2.9,9.8c-1,3.2-2.1,6.4-3,9.7c-1.4,4.6-2.8,9.3-4.2,13.9
		c-1.1,3.6-2.1,7.1-3.2,10.7c-1,3.2-2,6.4-3,9.6c-1.3,4.3-2.5,8.6-3.8,12.8c-1.4,4.5-2.9,8.9-4.2,13.4c-0.4,1.4-0.9,2.8-1.3,4.2
		c-0.8,3.2-1.9,6.3-2.8,9.4c-0.2,0.6-0.4,1.2-0.5,1.8c0.1,0,0.2,0,0.4,0c0.4,0,0.9-0.1,1.3-0.1c0.6-2.3,1.3-4.5,2-6.8
		C10.3,291.7,10.7,289.7,11.5,287.8z"/>
	<path class="st8" d="M8.8,300.2C8.8,300.2,8.8,300.2,8.8,300.2C8.8,300.2,8.8,300.2,8.8,300.2C8.8,300.2,8.8,300.2,8.8,300.2z"/>
	<path class="st8" d="M11.5,296.2c0.2-0.9,0.9-1.8,1-2.6c0.3-2,1.3-3.7,1.6-5.7c0.3-1.7,1.1-3.4,1.6-5.1c0.7-2.1,1.1-4.3,1.9-6.5
		c0.7-1.9,1.3-3.9,1.8-5.9c0.4-1.7,1.2-3.3,1.1-5c0-0.3,0-0.6,0.3-0.8c0.1,0.4,0.1,0.7,0.2,1.1c0.1-0.4,0.4-0.8,0.2-1.2
		c-0.3-0.7-0.2-1.3,0.4-1.9c0.2-0.2,0.5-0.4,0.1-0.8c-0.3-0.3,0.1-0.5,0.2-0.7c0.2-0.3,0.6-0.5,0.6-0.8c0.3-2.1,1.4-3.9,1.7-6
		c0.3-1.4,0.8-2.8,1.2-4.2c0.3-1.2,1.1-2.5,1.3-3.8c0.5-2.3,1.5-4.5,2-6.8c0.4-2,1-3.9,1.7-5.7c0.7-2.1,1.1-4.3,2.1-6.3
		c0.5-1,0.4-2.3,1-3.3c0.5-0.8,0.2-1.7,0.6-2.5c0.7-1.5,1-3.1,1.5-4.7c0.5-1.6,0.7-3.3,1.3-4.9c1.2-3.4,2.2-7,3.3-10.4
		c0.1-0.5,0.3-0.9,0.4-1.4c-0.3,0-0.6-0.1-1-0.1c0,0,0.1,0,0.1,0c0-0.6,0-1.2,0.9-1.4c0.4-0.1,0.4-0.5,0.3-0.8
		c-0.1-0.3-0.3-0.5-0.1-0.8c0.6-1.1,1.2-2.1,1.2-3.5c0-1.6,1.5-2.9,1.1-4.6c0,0,0-0.1,0-0.1c0-0.1,0.1-0.2,0.1-0.3c0,0,0,0,0,0
		c0.8-0.2,0.7-1,1-1.6c0.4-1,0.6-2.1,1-3.1c0.3-0.8,0.4-1.8,0.8-2.7c0.7-1.4,0.8-3,1.5-4.5c0.7-1.6,0.8-3.3,1.4-4.9
		c0.4-1,0.8-2.1,1.2-3.2c0.7-1.6,0.7-3.4,1.3-5.1c0.7-1.7,1.1-3.4,1.7-5.1c0.4-1,1.1-1.9,0.8-3.1c0-0.1,0-0.4,0.1-0.5
		c0.7-0.4,0.7-1.1,0.8-1.7c0.2-1.3,0.9-2.3,1.2-3.5c0.2-0.7,0.3-1.4,0.6-2.2c0.3-0.7,0.7-1.5,0.6-2.1c-0.1-0.7,0.1-1.3,0.3-1.9
		c0.3-0.7,0.6-1.3,0.8-2c0.7-1.7,1.2-3.5,1.6-5.3c0.2-0.9,0.9-1.8,1-2.6c0.3-2,1.3-3.7,1.6-5.7c0.3-1.7,1.1-3.4,1.6-5.1
		c0.7-2.1,1.1-4.3,1.9-6.5c0.7-1.9,1.3-3.9,1.8-5.9c0.4-1.7,1.2-3.3,1.1-5c0-0.3,0-0.6,0.3-0.8c0.1,0.4,0.1,0.7,0.2,1.1
		c0.1-0.4,0.4-0.8,0.2-1.2c-0.3-0.7-0.2-1.3,0.4-1.9c0.2-0.2,0.5-0.4,0.1-0.8c-0.3-0.3,0.1-0.5,0.2-0.7c0.2-0.3,0.6-0.5,0.6-0.8
		c0.3-2.1,1.4-3.9,1.7-6c0.3-1.4,0.8-2.8,1.2-4.2c0.3-1.2,1.1-2.5,1.3-3.8c0.5-2.3,1.5-4.5,2-6.8c0.4-2,1-3.9,1.7-5.7
		c0.7-2.1,1.1-4.3,2.1-6.3c0.5-1,0.4-2.3,1-3.3c0.5-0.8,0.2-1.7,0.6-2.5c0.7-1.5,1-3.1,1.5-4.7c0.5-1.6,0.7-3.3,1.3-4.9
		c1.2-3.4,2.2-7,3.3-10.4c0.9-2.8,1.6-5.6,2.6-8.3c0.2-0.7,0-1.4,0.4-2c0.4-0.8,0.1-1.6-0.6-2.1c-1,1.9-1.3,4-2,6
		c-1.1,3.4-2.1,6.8-3.1,10.2c-1.2,4.1-2.5,8.2-3.7,12.3c-1.1,3.8-2.3,7.5-3.4,11.3c-0.9,2.9-1.7,5.7-2.5,8.6
		c-0.5,1.8-1.1,3.7-1.7,5.5c-1.2,3.7-2.3,7.4-3.4,11.1c-1.8,6-3.6,12-5.4,18c-1.4,4.5-2.8,9-4.2,13.6c-1.5,4.8-2.9,9.5-4.3,14.3
		c-1.3,4.3-2.6,8.7-3.9,13c-0.6,2-1.3,3.9-1.9,5.8c-0.9,3-1.8,6-2.7,9c-0.7,2.1-1.1,4.3-2.1,6.3l0,0v0c-0.2,1.8-1,3.5-1.5,5.2
		c-1.4,4.8-2.9,9.7-4.4,14.5c-0.6,2-1.3,4.1-1.9,6.1c-0.1,0-0.1,0-0.2,0c0.1,0,0.1,0,0.2,0c-0.5,1.8-1.1,3.6-1.6,5.4
		c-1.2,4.1-2.5,8.2-3.7,12.3c-1.1,3.8-2.3,7.5-3.4,11.3c-0.9,2.9-1.7,5.7-2.5,8.6c-0.5,1.8-1.1,3.7-1.7,5.5
		c-1.2,3.7-2.3,7.4-3.4,11.1c-1.8,6-3.6,12-5.4,18c-1.4,4.5-2.8,9-4.2,13.6c-1.4,4.7-2.9,9.5-4.3,14.2c0.4,0,0.8-0.1,1.2-0.1
		c0,0,0.1,0,0.1,0c0.1,0,0.1,0,0.2,0C10.9,298.7,11.3,297.5,11.5,296.2z"/>
	<path class="st9" d="M8,300.3C8,300.3,8,300.3,8,300.3L8,300.3C8,300.3,8,300.3,8,300.3C8,300.3,8,300.3,8,300.3
		C8,300.3,8,300.3,8,300.3C8,300.3,8,300.3,8,300.3z"/>
	<path class="st9" d="M17.6,272.4c1.8-6,3.6-12,5.4-18c1.1-3.7,2.2-7.4,3.4-11.1c0.6-1.8,1.2-3.7,1.7-5.5c0.8-2.9,1.7-5.8,2.5-8.6
		c1.1-3.7,2.3-7.5,3.4-11.3c1.2-4.1,2.5-8.2,3.7-12.3c0.5-1.8,1.1-3.6,1.6-5.4c-0.1,0-0.1,0-0.2,0c-0.2,0-0.4,0-0.6-0.1l0,0
		c-0.2,0-0.3,0-0.5,0c-1.1,2.9-1.8,5.9-2.8,8.9c-1.1,3.4-2.2,6.9-3,10.4c-0.6,2.7-1.6,5.3-2.5,7.9c-0.5,1.7-1,3.3-1.5,5
		c-0.7,2.1-1.2,4.2-1.9,6.3c-1,3.3-2.1,6.6-3,10c-0.9,3.1-1.9,6.1-2.8,9.2c-0.7,2.8-1.7,5.5-2.6,8.2c-0.8,2.5-1.6,5-2.2,7.5
		c-0.2,0.9-1.1,1.6-0.6,2.6c0.2,1.1-0.5,2.1-0.8,3.1c-0.3,0.9-0.2,1.9-0.7,2.8c-0.7,1.2-0.8,2.6-1.2,3.9c-0.7,2.1-1.3,4.2-1.7,6.4
		c-0.1,0.8-0.7,1.5-0.9,2.3c-0.5,1.9-1.1,3.8-1.7,5.7c0.2,0,0.3,0,0.5-0.1c0,0,0,0,0,0c0.1,0,0.2,0,0.2,0c0,0,0,0,0,0
		c1.4-4.7,2.8-9.5,4.3-14.2C14.7,281.4,16.2,276.9,17.6,272.4z"/>
	<path class="st10" d="M10.9,292.2c0.4-2.2,1-4.3,1.7-6.4c0.4-1.3,0.5-2.7,1.2-3.9c0.5-0.9,0.4-1.9,0.7-2.8c0.3-1,1-1.9,0.8-3.1
		c-0.1,0.1-0.4,0.3-0.4,0.4c-0.6,1.9-1.2,3.9-1.8,5.8c-0.5,1.8-0.9,3.7-1.6,5.5c-0.8,1.8-1.2,3.8-1.8,5.7c-0.7,2.2-1.4,4.5-2,6.8
		c0,0,0,0,0,0c0.1,0,0.2,0,0.3,0c0,0,0,0,0,0c0,0,0,0,0.1,0c0.1,0,0.1,0,0.2,0c0,0,0,0,0,0c0.6-1.9,1.2-3.8,1.7-5.7
		C10.2,293.7,10.7,293,10.9,292.2z"/>
	<path class="st11" d="M23.8,262c0,0.1,0,0.1-0.1,0.2c-0.3,0.8-0.5,1.6-0.8,2.4c0,0,0,0,0,0c0.7,0.4,1.4,0.6,2.1,0.7h0
		c0.4-0.7,0.4-1.6,0.7-2.4h0C25.1,262.6,24.4,262.3,23.8,262z"/>
	<path class="st3" d="M71.5,104.8C71.5,104.8,71.5,104.8,71.5,104.8L71.5,104.8c-0.8,2.9-1.6,5.8-2.5,8.6c-1.6,4.9-3,9.9-4.5,14.9
		c-1.6,5.5-3.4,11-5.1,16.6c-0.8,2.7-1.6,5.3-2.4,8c-0.5,1.8-1.1,3.5-1.6,5.3c-0.9,3-1.8,5.9-2.7,8.9c-0.6,2-1.3,3.9-1.9,5.9
		c-1.3,4.2-2.5,8.4-3.8,12.6c-0.7,2.2-1.4,4.5-2.1,6.7c-0.5,1.8-1,3.6-1.6,5.4c-0.4,1-0.7,2.1-1,3.2c0.1,0,0.1,0,0.2,0
		c0.7,0.1,1.4,0.2,2.1,0.3c0.1,0,0.2,0,0.3,0l0,0c-0.1,0-0.2,0-0.3,0c0.3-1,0.6-2,0.9-3.1c0.8-2.9,1.9-5.8,2.8-8.8
		c1-3.2,1.9-6.4,2.9-9.6c1-3.3,2-6.5,3-9.8c0.9-3,1.8-6.1,2.7-9.1c0.4-1.5,1-3.1,1.4-4.6c1.3-4.6,2.9-9.1,4.2-13.7
		c1.3-4.2,2.4-8.5,3.8-12.7c1.1-3.2,2-6.5,3-9.8c0.9-3,1.9-5.9,2.7-8.9c0.5-1.9,1.1-3.7,1.7-5.6C72.9,105.4,72.2,105.2,71.5,104.8z"
		/>
	<path class="st4" d="M96.9,30.1c-0.6-0.3-1.1-0.5-1.7-0.8c0,0,0,0,0,0c-0.6,0.6-1.1,1.3-1.4,2.2c-1.1,3.7-2.2,7.4-3.3,11.1
		c-0.9,3-1.8,6-2.7,9c-1,3.2-1.9,6.4-2.9,9.6c-0.6,2-1.2,3.9-1.8,5.9c-0.9,2.9-1.7,5.9-2.6,8.8c-1,3.3-2,6.5-3,9.8
		c-1,3.1-1.9,6.3-2.8,9.4c-0.7,2.4-1.5,4.8-2.1,7.2c0,0.1-0.1,0.1-0.1,0.2c0-0.1,0-0.1,0.1-0.2c0.6,0.3,1.3,0.6,1.9,0.9
		c1.4-4.5,2.9-9.1,4.2-13.6c1.3-4.3,2.5-8.7,3.8-13c1-3.4,2.1-6.7,3.2-10.1c1.2-4.1,2.4-8.2,3.6-12.3c1.4-4.7,2.9-9.3,4.3-14
		c0.8-2.6,1.5-5.2,2.4-7.8c0.2-0.5,0.3-1,0.9-1.1c0.5-0.1,0.6-0.5,0.3-1c0-0.1,0-0.1,0-0.2C97.1,30.1,97,30.1,96.9,30.1
		C96.9,30.1,96.9,30.1,96.9,30.1z"/>
	<path class="st12" d="M96.9,31.3c-0.6,0.2-0.7,0.6-0.9,1.1c-0.9,2.6-1.6,5.2-2.4,7.8c-1.4,4.7-2.9,9.3-4.3,14
		c-1.2,4.1-2.4,8.2-3.6,12.3c-1,3.4-2.2,6.7-3.2,10.1c-1.3,4.3-2.5,8.7-3.8,13c-1.4,4.6-2.8,9.1-4.2,13.6c-0.3,0.8-0.2,1.6-0.7,2.4
		h0c-0.6,1.8-1.2,3.7-1.7,5.6c-0.8,3-1.8,5.9-2.7,8.9c-1,3.3-2,6.5-3,9.8c-1.4,4.2-2.5,8.5-3.8,12.7c-1.4,4.6-2.9,9.1-4.2,13.7
		c-0.4,1.5-1,3-1.4,4.6c-0.9,3-1.8,6.1-2.7,9.1c-1,3.3-2,6.5-3,9.8c-1,3.2-1.9,6.4-2.9,9.6c-0.9,2.9-1.9,5.8-2.8,8.8
		c-0.3,1-0.6,2-0.9,3.1c0.1,0,0.2,0,0.3,0l0,0c-0.1,0-0.2,0-0.3,0c-1.3,4.3-2.7,8.6-4,12.9c-1.2,4.1-2.4,8.2-3.6,12.3
		c-1,3.4-2.2,6.7-3.2,10.1c-1.3,4.3-2.5,8.7-3.8,13c-1.4,4.6-2.8,9.1-4.2,13.6h0c-0.3,0.8-0.2,1.6-0.7,2.4h0
		c-0.6,1.8-1.2,3.7-1.7,5.6c-0.8,3-1.8,5.9-2.7,8.9c-1,3.3-2,6.5-3,9.8c-1.1,3.2-2,6.5-2.9,9.8c0.1,0,0.2,0,0.2,0
		c0.2,0,0.3,0,0.5-0.1c0.8-2.7,1.6-5.5,2.4-8.2c0.7-2.3,1.4-4.6,2.1-6.9c0.5-1.5,0.8-3,1.4-4.5c0.7-1.9,1.2-3.8,1.7-5.8
		c0.4-1.7,1.2-3.3,1.5-5c0.3-1.6,1-3.2,1.5-4.8c0.7-2.3,1.2-4.6,2.1-6.9c0.7-1.9,1.2-3.8,1.8-5.7c1.3-4.2,2.5-8.4,3.8-12.7
		c0.9-3.1,1.9-6.2,2.9-9.3c1.3-4.1,2.5-8.2,3.8-12.2c0.7-2.2,1.3-4.5,2-6.7c0.7-2.6,1.5-5.3,2.3-7.9c0.2-0.5,0.3-1.1,0.5-1.6
		c0,0,0.1,0,0.1,0c0.1-0.2,0.1-0.5,0.2-0.7c1-3.6,2.3-7.2,3.3-10.8c1.1-3.7,2.2-7.3,3.3-11c0.6-1.8,1-3.7,1.6-5.5
		c1.1-3.4,2-6.8,3.1-10.2c0.9-2.8,1.6-5.8,2.6-8.6c1.2-3.5,2.1-7,3.2-10.5c1.4-4.2,2.5-8.4,3.8-12.7c0.7-2.3,1.4-4.6,2.1-6.9
		c0.5-1.5,0.8-3,1.4-4.5c0.7-1.9,1.2-3.8,1.7-5.8c0.4-1.7,1.2-3.3,1.5-5c0.3-1.6,1-3.2,1.5-4.8c0.7-2.3,1.2-4.6,2.1-6.9
		c0.7-1.9,1.2-3.8,1.8-5.7c1.3-4.2,2.5-8.4,3.8-12.7c0.9-3.1,1.9-6.2,2.9-9.3c1.3-4.1,2.5-8.2,3.8-12.2c0.7-2.2,1.3-4.5,2-6.7
		c0.7-2.6,1.5-5.3,2.3-7.9c1-3.3,2.1-6.5,3-9.9c0.2-0.6,0.4-1.1,1.1-1.2c0.7-0.1,1-0.4,0.4-1c-0.2-0.2-0.3-0.6-0.7-0.6
		C97.4,30.8,97.3,31.1,96.9,31.3z"/>
	<path class="st1" d="M139.8,10c-0.1,0-0.2,0.1-0.3,0.1c-2.3,0.1-4.6,0.7-6.9,1c-1.7,0.3-3.3,0.9-5.1,1c-1.1,0.1-2.3,0.2-3.4,0.4
		c-2.5,0.6-5.1,1.1-7.7,1.6c-1,0.2-1.9,0.4-2.9,0.5c-1.8,0.2-3.6,0.4-5.4,1c-0.6,0.2-0.5,0.3-0.3,0.7c0.2,0.4,0.4,0.8,0.1,1.3
		c3.9-0.8,7.7-1.7,11.7-2.3c2.8-0.4,5.6-1,8.4-1.6c6.3-1.2,12.7-2.3,19-3.6c0.4-0.1,0.8-0.1,1.2-0.2c-0.1-0.5-0.1-1.1-0.2-1.6
		c-1.2,0.2-2.4,0.4-3.7,0.6C142.8,9.3,141.3,9.7,139.8,10z"/>
	<path class="st1" d="M148.3,10.4c0-0.1,0-0.2,0-0.2C148.3,10.2,148.3,10.3,148.3,10.4C148.3,10.4,148.3,10.4,148.3,10.4z"/>
	<path class="st13" d="M105.2,12.4C105.2,12.4,105.2,12.4,105.2,12.4C105.2,12.4,105.2,12.4,105.2,12.4c2.1,0.2,4.1-0.3,6.1-0.7
		c6.8-1.4,13.6-2.5,20.4-3.8c5.3-1,10.5-2,15.8-3c0,0.1,0,0.2,0.1,0.3h0c-0.1-0.6-0.2-1.3-0.3-1.9c-3.6,0.6-7.1,1.5-10.7,2.1
		c-5,0.8-9.9,1.7-14.8,2.8c-2.3,0.5-4.7,0.8-7.1,1.2c-2,0.4-4,0.9-6,1.2c-0.8,0.1-1.8,0-2.5,0.6c-0.7,0.6-1.2,0.2-1.8,0
		c-0.2-0.1-0.4-0.4-0.7-0.4C103.6,11.8,104,12.6,105.2,12.4z"/>
	<path class="st14" d="M148.6,12.3c-3.5,0.7-7,1.4-10.6,2c-4.8,0.8-9.6,2-14.4,2.7c-2.7,0.4-5.3,1.1-8,1.5c-1.9,0.3-3.8,0.6-5.6,1.1
		c-0.6,0.2-1.2,0.4-1.4,1.1c0,0,0,0,0,0c-0.1,1.3-0.9,0.4-1.4,0.5c0,0,0,0,0,0c0.3,0.3,0.5,0.5,0.8,0.8c0.2,0.2,0.6,0.3,0.6-0.1
		c0-1.3,1-1.3,1.9-1.4c0.7-0.1,1.3-0.1,2-0.3c4.5-0.9,9.1-1.8,13.6-2.6c3.2-0.5,6.3-1.2,9.4-1.7c3.4-0.6,6.7-1.5,10.2-1.9
		c1-0.1,2-0.3,3-0.5C148.6,13.1,148.6,12.7,148.6,12.3z"/>
	<path class="st14" d="M148.5,12.1C148.5,12.1,148.5,12.1,148.5,12.1c0,0.1,0,0.2,0,0.2C148.5,12.2,148.5,12.1,148.5,12.1z"/>
	<path class="st5" d="M34.4,199.9c0.1,0,0.2,0,0.3,0c0.3-0.9,0.5-1.8,0.8-2.7c1.4-4.4,2.6-8.9,4-13.3c1.1-3.5,2.2-7,3.2-10.5
		c1.3-4.2,2.5-8.5,3.8-12.7c0.6-2,1.3-4,1.9-6c0.9-3,1.7-6.1,2.7-9.1c0.7-2,1.2-4.1,1.9-6.1c1-2.9,1.6-5.8,2.6-8.7
		c0.9-2.8,1.7-5.7,2.6-8.6c0-0.3-0.1-0.3-0.4-0.2c-0.5,0.5-0.4,1.1-0.6,1.7c-1.3,4.2-2.7,8.5-4,12.8c-1.2,3.8-2.3,7.6-3.5,11.4
		c-1.1,3.6-2.2,7.3-3.3,10.9c-0.5,1.8-1.1,3.6-1.7,5.4c-0.9,3.1-1.9,6.2-2.8,9.3c-0.6,1.9-1.2,3.7-1.7,5.6c-1,3.2-1.9,6.3-2.9,9.5
		c-0.6,1.9-1.2,3.8-1.7,5.7c-0.5,1.8-1.1,3.4-1.6,5.2c0,0,0,0.1,0,0.1c0,0.1,0,0.2-0.1,0.2C34.2,199.8,34.3,199.8,34.4,199.9z"/>
	<path class="st6" d="M58.2,122.3c0.4-0.2,0.1-0.6,0.2-0.8c1-2.3,1.5-4.7,2.3-7c1.2-3.6,2.2-7.2,3.3-10.8c0.6-1.9,1.2-3.7,1.7-5.6
		c0.9-3,1.8-6.1,2.7-9.1c0.6-2,1.3-3.9,1.8-5.9c0.8-3,1.8-6,2.7-9c1.1-3.4,2-6.7,3.1-10.1c1.1-3.4,2.1-6.9,3.1-10.3
		c1.1-3.6,2.2-7.3,3.3-10.9c0.6-2.1,1.2-4.2,1.9-6.2c0.7-2,1-4.1,1.9-5.9v0c0.4-1.4,0.5-2.8,0-4.2c-0.6-0.1-0.8,0.1-0.6,0.7
		c0.2,0.6,0.8,1.2,0.4,2c-0.7,1.6-1,3.3-1.6,5c-0.6,1.7-1.1,3.5-1.6,5.3c-1,3.2-1.9,6.4-2.9,9.6c-0.6,1.9-1.2,3.8-1.7,5.7
		c-0.8,2.8-1.6,5.5-2.5,8.3c-1,3.4-2.1,6.7-3.2,10.1c-0.9,3-1.8,6.1-2.7,9.1c-0.6,2.1-1.3,4.2-2,6.3c-0.9,2.9-1.7,5.8-2.6,8.7
		c-1,3.4-2.1,6.7-3.1,10.1c-1,3.2-1.9,6.4-2.9,9.6c-0.5,1.7-1,3.5-1.5,5.2l0,0C58,122,58.2,122,58.2,122.3z"/>
	<path class="st15" d="M90.1,25.1c-0.2-0.7,0.2-1,0.8-1.1c0.5-0.1,0.7-0.4,0.7-0.9c0-0.9,0.1-1.7,1.3-1.7c0.4,0,0.6-0.3,0.6-0.8
		c0-0.7,0.3-1.4,1.2-1.4c0.8,0,0.9-0.7,1-1.2c0.1-0.7,0.5-1,1.2-0.9c0.7,0.1,1.2-0.2,1.3-1c0.1-0.9,0.8-0.9,1.5-0.8
		c0.6,0.1,0.9-0.1,1.1-0.6c0.3-0.8,0.8-1.1,1.6-0.9c0.4,0.1,0.9,0,1.3-0.3c0.4-0.7,0.9-1.1,1.6-1.2c0,0,0,0,0,0
		c-1.2,0.2-1.6-0.5-1.8-1.5c-0.3-0.4-0.5-0.4-0.6,0.1c-0.1,1.2-1,1.9-1.8,2.6c-0.4-0.2-0.5-0.6-0.7-1c-0.2-0.2-0.2-0.7-0.6-0.7
		c-0.4,0.1-0.4,0.6-0.4,0.9c-0.1,1-0.6,1.7-1.3,2.7c-0.1-1-0.6-1.3-1.1-1.7c-0.3-0.2-0.6-0.2-0.5,0.2c0.1,1.1-0.1,2-1,3.1
		c-0.4-0.4-0.7-0.8-1.1-1.2c-0.4-0.4-0.8-0.3-0.7,0.4c0,0.5,0.1,0.9,0.2,1.4c0,0.6-0.8,1.4-1.1,1.1c-0.4-0.3-1-0.8-1.3-0.5
		c-0.4,0.3,0,1,0,1.6c0,0,0,0.1,0,0.1c0.4,0.6-0.3,1-0.5,1.3c-0.2,0.3-0.6-0.1-0.9-0.3c-0.3-0.1-0.6-0.5-1-0.2
		c-0.4,0.3,0,0.6,0.1,0.9c0.1,0.4,0.4,0.8,0.4,1.2c0,0.4-0.6,0.6-0.6,1c-0.3-0.1-0.6-0.1-0.9-0.2c-0.3-0.1-0.7-0.4-1-0.1
		c-0.3,0.3,0.2,0.5,0.2,0.8c0.2,0.7,0.6,1.3,0.2,2c0.4,0.3,0.9,0,1.3,0.4C89.8,26.7,90.4,26.2,90.1,25.1z"/>
	<path class="st16" d="M103.2,22.4L103.2,22.4L103.2,22.4c-0.5-0.1-1.2-0.9-1.1,0.5c0,0.4-0.4,0.7-0.9,0.7c-0.7-0.1-1,0.3-1.2,0.9
		c-0.1,0.5-0.2,1-0.9,0.9c-0.1,0-0.1,0-0.2,0.1c0,0,0,0,0,0c0,0.1-0.1,0.2-0.1,0.3c0,0.8-0.2,1.4-1.2,1.5c-0.1,0.1-0.2,0.2-0.3,0.3
		c0,0.1,0,0.2,0,0.3c0.6,0.7,0,1-0.4,1.1c-1,0.3-0.5,0.6-0.1,0.9c0.5-0.4,1.2-0.6,1.5-1.3l0,0c-0.3-0.3-0.7-0.6,0.1-0.9
		c0.4-0.1,1-0.2,1.1-0.8c-0.1-0.2-0.1-0.4-0.2-0.6c0.3-0.7,0.9-0.7,1.6-0.8c0-0.1,0-0.3,0-0.4c-0.4-0.7-0.4-1.2,0.6-1.1
		c0.6,0.1,0.8-0.3,1-0.7v0l0,0C102.5,22.8,102.8,22.6,103.2,22.4z"/>
	<path class="st17" d="M108.6,20.6c-0.5,0.1-0.9,0.2-1.2-0.3c-0.5-0.2-1.1-0.4-1.2,0.6c0,0.7-0.4,0.8-0.9,0.5
		c-0.7-0.4-1.4-0.7-1.2,0.6c0.1,0.7-0.4,0.6-0.8,0.4l0,0c-0.4,0.1-0.7,0.4-0.8,0.9c0.7-0.1,1.3,0.3,2.1,0.5
		c-0.1-0.7-0.2-1.2,0.1-1.8c0.6,0.1,1,0.8,1.7,0.7c0.1-0.5,0.2-0.9,0.2-1.3c0.1-0.5,0.4-0.4,0.7-0.2c0,0,0,0,0,0
		C107.7,21.1,108.5,21.9,108.6,20.6z"/>
	<path class="st18" d="M86.3,30.7C86.3,30.7,86.3,30.7,86.3,30.7c0.5-0.6,0.7-1.4,0.6-2.1c0.9-0.2,1.3,0.1,1.2,1.1
		c0,0.2,0,0.4,0.1,0.6c0.4-0.6,0.6-1.3,0.5-2.1c-0.1-0.4-0.2-0.9,0.1-1.3h0c-0.3-0.4-0.9-0.1-1.3-0.4c-0.4,0.5-0.9,0-1.3,0.1v0
		C86.7,27.9,86.6,29.3,86.3,30.7z"/>
	<path class="st17" d="M101.5,24c-1-0.2-1,0.4-0.6,1.1c0-0.4,0.2-0.4,0.6-0.4c0.4,0.1,0.8,0.2,1.4,0.4c-0.4-0.6-0.3-1.2-0.4-1.7v0
		C102.3,23.7,102.1,24.1,101.5,24z"/>
	<path class="st19" d="M96.9,29.9c0,0.1,0,0.1,0.1,0.2l0,0c0,0,0,0,0,0c0.1,0,0.1,0,0.2,0c0.1-0.2,0.3-0.2,0.5-0.1
		c0.5,0.1,1.1,0.3,1.3-0.2c0.2-0.4-0.3-0.9-0.6-1.2c0,0,0,0,0,0C98.1,29.3,97.4,29.5,96.9,29.9z"/>
	<path class="st20" d="M98.4,27.6c-0.8,0.3-0.4,0.6-0.1,0.9c0-0.3-0.1-0.6,0.5-0.5c1.3,0.1,1.3,0,0.7-1.2l0,0
		C99.4,27.4,98.8,27.5,98.4,27.6z"/>
	<path class="st21" d="M99.3,26.2c0.7-0.2,1.3,0.3,2,0.2c-0.2-0.4-0.3-0.7-0.5-0.9C100.2,25.5,99.6,25.5,99.3,26.2z"/>
	<path class="st9" d="M89.7,30.4c-0.5,1.8-1.1,3.7-1.6,5.5c-0.4,1.5-0.7,3-1.2,4.4c-1.1,3-1.9,6.1-2.8,9.1c-1.1,3.4-2.2,6.9-3,10.4
		c-0.6,2.7-1.6,5.3-2.5,7.9c-0.5,1.7-1,3.3-1.5,5c-0.7,2.1-1.2,4.2-1.9,6.3c-1,3.3-2.1,6.6-3,10c-0.9,3.1-1.9,6.1-2.8,9.2
		c-0.7,2.8-1.7,5.5-2.6,8.2c-0.8,2.5-1.6,5-2.2,7.5c-0.2,0.9-1.1,1.6-0.6,2.6c0.2,1.1-0.5,2.1-0.8,3.1c-0.3,0.9-0.2,1.9-0.7,2.8
		c-0.7,1.2-0.8,2.6-1.2,3.9c-0.7,2.1-1.3,4.2-1.7,6.4c-0.1,0.8-0.7,1.5-0.9,2.3c-0.8,3.3-2,6.5-3,9.7c-0.7,2.1-1.3,4.3-1.7,6.6
		c-0.1,0.6-0.4,1-0.7,1.4c-0.8,1.5-0.2,3.4-1.5,4.8c-0.2,0.2-0.2,0.6-0.2,0.9c0.1,1.3-0.3,2.4-0.9,3.5c-0.3,0.5-0.3,1-0.4,1.5
		c-0.8,2.8-1.6,5.7-2.4,8.5c-0.2,0.5-0.5,1.1-0.7,1.6c-0.2,0.5-0.1,0.9,0,1.4l0,0c0.9-2,1.4-4.2,2.1-6.3c1-3,1.8-6,2.7-9
		c0.6-2,1.3-3.9,1.9-5.8c1.3-4.3,2.6-8.7,3.9-13c1.4-4.8,2.8-9.5,4.3-14.3c1.4-4.5,2.8-9,4.2-13.6c1.8-6,3.6-12,5.4-18
		c1.1-3.7,2.2-7.4,3.4-11.1c0.6-1.8,1.2-3.7,1.7-5.5c0.8-2.9,1.7-5.8,2.5-8.6c1.1-3.7,2.3-7.5,3.4-11.3c1.2-4.1,2.5-8.2,3.7-12.3
		c1-3.4,2-6.8,3.1-10.2c0.7-2,1-4.1,2-6v0c0-0.1,0-0.1,0-0.2h0C90.6,29.2,90,29.4,89.7,30.4z"/>
	<path class="st10" d="M47.1,173.2c0.2-0.5,0.5-1.1,0.7-1.6c0.8-2.8,1.6-5.6,2.4-8.5c0.1-0.5,0.1-1,0.4-1.5c0.6-1.1,1-2.2,0.9-3.5
		c0-0.3,0-0.7,0.2-0.9c1.3-1.3,0.7-3.3,1.5-4.8c0.2-0.4,0.6-0.9,0.7-1.4c0.4-2.2,1-4.4,1.7-6.6c1-3.2,2.2-6.4,3-9.7
		c0.2-0.8,0.8-1.5,0.9-2.3c0.4-2.2,1-4.3,1.7-6.4c0.4-1.3,0.5-2.7,1.2-3.9c0.5-0.9,0.4-1.9,0.7-2.8c0.3-1,1-1.9,0.8-3.1
		c-0.1,0.1-0.4,0.3-0.4,0.4c-0.6,1.9-1.2,3.9-1.8,5.8c-0.5,1.8-0.9,3.7-1.6,5.5c-0.8,1.8-1.2,3.8-1.8,5.7c-0.8,2.5-1.5,5-2.2,7.5
		c-0.3,0.9-0.7,1.7-0.9,2.6c-0.2,0.9-0.4,1.9-0.6,2.8c-1.2,4.1-2.6,8.2-3.8,12.4c-1,3.6-2.4,7.1-3,10.7c0,0.1-0.1,0.2-0.1,0.3
		c-1,1.8-1.2,3.9-2,5.9c-0.8,2-1.3,4.2-1.8,6.3c-0.4,1.7-1.1,3.2-1.5,4.9c-0.4,1.4-0.7,2.9-1.2,4.3c-0.9,2.4-1.4,4.8-2.2,7.2
		c-0.2,0.5-0.3,1-0.5,1.5c0.1,0,0.2,0,0.3,0c0.2,0,0.4,0,0.6,0.1c0.1,0,0.1,0,0.2,0c0.6-2,1.3-4.1,1.9-6.1c1.5-4.8,3-9.6,4.4-14.5
		c0.5-1.7,1.3-3.4,1.5-5.2v0C47,174.1,46.9,173.7,47.1,173.2z"/>
	<path class="st22" d="M106.8,18.3C106.8,18.3,106.8,18.3,106.8,18.3C106.8,18.3,106.8,18.3,106.8,18.3c-0.8-0.4-1.4-0.2-1.8,0.6
		c0,0,0,0,0,0c0,0,0,0,0,0c0,0.1-0.1,0.2-0.3,0.2c-0.2,0-0.4,0.1-0.6,0.1c-0.9-0.2-1.2,0.2-1.4,0.9c0,0,0,0,0,0c0,0,0,0,0,0
		c0,0.1-0.1,0.2-0.1,0.3c-0.3,0.3-0.6,0.1-0.9,0.1c-0.5,0-0.8,0.2-1,0.6c0,0,0,0,0,0l0,0c0,0.3,0.2,0.6-0.2,0.8
		c-0.7,0.2-1.8-0.2-1.6,1.1c0,0,0,0,0,0c0,0,0,0,0,0c0,0.2,0,0.3,0,0.5c0,0,0,0,0,0c0,0,0,0,0,0c-0.1,0.2-0.4,0.2-0.6,0.2
		c-0.8,0-1.1,0.3-1,1.1c0,0,0,0,0,0c0,0,0,0,0,0c0,0.2,0,0.3,0,0.5c-0.2,0.2-0.4,0.4-0.7,0.4c-0.6,0-0.7,0.4-0.7,0.9h0c0,0,0,0,0,0
		c0,0.3,0.5,0.5,0,0.8c0,0,0,0,0,0c0,0,0,0,0,0c-0.3,0.5-1.2,0.4-1.4,1.1c0,0,0,0,0,0c0.2,0.2,0.5,0.5,0.7,0.7c0,0,0,0,0,0
		c0.6,0.3,1.1,0.5,1.7,0.8l0,0c0-0.1,0-0.1-0.1-0.2c-0.5-0.3-1-0.6,0.1-0.9c0.4-0.1,1.1-0.4,0.4-1.1c0,0,0-0.2,0-0.3
		c0-0.2,0.1-0.3,0.3-0.3c0,0,0,0,0,0c1,0,1.1-0.7,1.2-1.5c0-0.1,0-0.2,0.1-0.3c0,0,0,0,0,0c0-0.1,0.1-0.1,0.2-0.1
		c0.7,0.1,0.8-0.4,0.9-0.9c0.1-0.6,0.5-1,1.2-0.9c0.5,0.1,0.9-0.3,0.9-0.7c-0.1-1.4,0.7-0.6,1.1-0.5l0,0c0.4,0.2,0.9,0.3,0.8-0.4
		c-0.2-1.4,0.5-1,1.2-0.6c0.5,0.3,0.9,0.3,0.9-0.5c0-0.9,0.6-0.7,1.2-0.6C107.7,19.5,107.7,18.8,106.8,18.3z"/>
	<path class="st11" d="M71.5,104.8c0.7,0.4,1.4,0.6,2.1,0.7h0c0.4-0.7,0.4-1.6,0.7-2.4c-0.6-0.3-1.3-0.6-1.9-0.9
		c0,0.1,0,0.1-0.1,0.2C72.1,103.2,71.8,104,71.5,104.8C71.5,104.8,71.5,104.8,71.5,104.8z"/>
	<path class="st23" d="M95.9,27.5C95.9,27.5,95.9,27.5,95.9,27.5c-0.7-0.4-1.4-0.8-2.1-1.2c-0.4-0.2-0.7-0.3-0.7-0.8c0,0,0,0,0,0
		c-0.2,0.8-0.6,1.6-1,2.3c0,0,0,0,0,0c0.9-0.1,1.6,0.5,2.5,0.7c0,0,0,0,0,0C94.7,27.8,95.6,28,95.9,27.5z"/>
	<path class="st24" d="M128.2,13.8c-2.8,0.5-5.6,1.2-8.4,1.6c-3.9,0.6-7.8,1.5-11.7,2.3c-0.3,0.1-0.4,0.6-0.9,0.5c0,0,0,0,0,0
		c-0.1,0-0.3,0.1-0.4,0.1c0,0,0,0,0,0c0.9,0.5,0.9,1.3,0.5,2.1c0.3,0.5,0.8,0.4,1.2,0.3c0,0,0,0,0,0c0.2-0.7,0.7-0.9,1.4-1.1
		c1.9-0.4,3.7-0.8,5.6-1.1c2.7-0.4,5.3-1.1,8-1.5c4.8-0.7,9.6-1.9,14.4-2.7c3.5-0.6,7-1.3,10.6-2c0,0,0,0,0,0c0,0,0,0,0,0
		c0-0.1,0-0.2,0-0.2c-0.1-0.6-0.1-1.1-0.2-1.7c0-0.1,0-0.2,0-0.2c0,0,0-0.1,0-0.1c0,0,0,0,0,0c-0.4,0.1-0.8,0.1-1.2,0.2
		C140.8,11.6,134.5,12.6,128.2,13.8z"/>
	<path class="st25" d="M144.2,8c-3.8,0.8-7.7,1.3-11.6,2.2c-4.1,0.9-8.3,1.6-12.5,2.3c-4,0.8-8,1.6-12.1,2.3
		c-0.7,0.1-1.5-0.1-2.2,0.3l0,0c0.3,1.1,1,2,1.4,3c0.4,0.1,0.6-0.4,0.9-0.5c0.3-0.5,0-0.9-0.1-1.3c-0.1-0.4-0.3-0.5,0.3-0.7
		c1.8-0.6,3.6-0.8,5.4-1c1-0.1,1.9-0.3,2.9-0.5c2.6-0.5,5.1-1,7.7-1.6c1.1-0.3,2.3-0.3,3.4-0.4c1.7-0.2,3.4-0.8,5.1-1
		c2.3-0.4,4.6-0.9,6.9-1c0.1,0,0.2-0.1,0.3-0.1c1.5-0.4,3-0.8,4.6-1c1.2-0.2,2.5-0.4,3.7-0.6c0,0,0,0,0,0c0-0.3-0.1-0.6-0.1-0.8
		c0-0.1,0-0.2,0-0.3c0,0,0,0,0,0C146.7,7.6,145.4,7.8,144.2,8z"/>
	<path class="st26" d="M131.7,7.8c-6.8,1.3-13.6,2.4-20.4,3.8c-2,0.4-4,1-6.1,0.7c0,0,0,0,0,0c-0.7,0.1-1.3,0.5-1.6,1.2v0
		c1.2-0.2,1.6,0.7,2,1.6c0,0,0,0,0,0c0.1,0,0.1,0,0.2,0.1l0,0l0,0l0,0c-0.1-0.4-0.2-0.8-0.3-1.2c0-0.3-0.3-0.6,0.2-0.8
		c0.4-0.2,0.6,0.1,0.8,0.3c0.1,0.1,0.2,0.2,0.3,0.3c0,0,0,0,0,0c0.2-1.1,1.3-0.9,2-1.1c3.8-0.8,7.7-1.3,11.6-2.2
		c3.4-0.8,6.8-0.9,10.1-1.9c2-0.6,4.2-0.7,6.3-1.1c1.2-0.2,2.3-0.7,3.5-0.6c0,0,0,0,0,0c1.6-0.6,3.4-0.7,5.1-1
		c0.8-0.1,1.5-0.3,2.3-0.4c0,0,0,0,0,0c0-0.1,0-0.2-0.1-0.4c0-0.1,0-0.2-0.1-0.3C142.2,5.8,136.9,6.8,131.7,7.8z"/>
	<path class="st27" d="M145.3,6c-1.7,0.3-3.4,0.4-5.1,1c0,0,0,0,0,0c0,0,0,0,0,0c-0.7,0.5-1.7,0.3-2.5,0.8c0,0,0,0,0,0
		c2.1,0,4-0.9,6.1-1.2c1.3-0.2,2.5-0.5,3.8-0.7c0,0,0,0,0,0c0-0.1,0-0.2-0.1-0.4c0,0,0,0,0,0C146.8,5.7,146.1,5.9,145.3,6z"/>
	<path class="st28" d="M143.9,6.6c-2,0.3-4,1.1-6.1,1.2c0,0,0,0,0,0c0,0,0,0,0,0c-2.6,0.4-5.2,0.8-7.7,1.6c-1.2,0.4-2.4,0.2-3.6,0.5
		c-3.1,0.6-6.3,1.2-9.4,1.8c-2.9,0.5-5.9,1.1-8.8,1.7c-0.4,0.1-0.9,0-1.1,0.6c-0.1,0.4-0.3,0-0.4-0.1c0,0,0,0,0,0c0,0,0,0,0,0
		c-0.1-0.1-0.2-0.2-0.3-0.3c-0.2-0.3-0.4-0.6-0.8-0.3c-0.4,0.2-0.2,0.5-0.2,0.8c0.1,0.4,0.2,0.8,0.3,1.2l0,0
		c0.7-0.4,1.5-0.2,2.2-0.3c4-0.7,8.1-1.5,12.1-2.3c4.2-0.8,8.4-1.4,12.5-2.3c3.8-0.8,7.7-1.4,11.6-2.2c1.2-0.3,2.5-0.5,3.7-0.7
		c0,0,0,0,0,0c-0.1-0.5-0.2-0.9-0.2-1.4c0,0,0,0,0,0C146.4,6.1,145.1,6.4,143.9,6.6z"/>
	<path class="st29" d="M102,18.5c0.3,0.5,0.5,1,0.7,1.6c0,0,0,0,0,0c0.2-0.7,0.5-1.2,1.4-0.9c0.2,0.1,0.4,0,0.6-0.1
		c-0.5-0.9-1.4-1.6-1.6-2.8c1.1-0.2,1.2,0.6,1.5,1.3c0.2,0.4,0.3,0.8,0.3,1.3c0,0,0,0,0,0c0.4-0.8,1-1,1.8-0.6c0,0,0,0,0,0
		c0.1,0,0.3-0.1,0.4-0.1c0,0,0,0,0,0c-0.3-1.1-1.1-1.9-1.4-3l0,0c-0.1,0-0.1,0-0.2-0.1c0,0,0,0,0,0c-0.6,0.9-1.6,0.9-2.5,1.2
		c0,0,0,0,0,0l0,0c-0.9,0.4-1.5,1.3-2.6,1.4c0,0,0,0,0,0C101.3,17.5,101.7,18,102,18.5z"/>
	<path class="st29" d="M99.8,20.2c0.3,0.3,0.6,0.6,0.9,0.9c0,0,0,0,0,0c0.2-0.4,0.5-0.7,1-0.6c0.3,0,0.7,0.2,0.9-0.1
		c-0.5-0.6-1-1.1-1.5-1.7c-0.2-0.3-0.4-0.6-0.7-0.7c0,0,0,0,0,0c-0.8,0.4-1.2,1.2-2.1,1.4c0,0,0,0,0,0
		C99.1,19.1,99.4,19.7,99.8,20.2z"/>
	<path class="st30" d="M97.3,24.8C97.3,24.8,97.3,24.8,97.3,24.8c-0.1-0.8,0.2-1.1,1-1.1c0.2,0,0.4,0,0.6-0.2c0,0,0,0,0,0
		c-0.9-0.7-1.7-1.5-2.6-2.2c0,0,0,0,0,0c-0.6,0.5-0.7,1.3-1.3,1.7c0,0,0,0,0,0C95.9,23.3,96.5,24.1,97.3,24.8z"/>
	<path class="st29" d="M98.9,23C98.9,23,98.9,23,98.9,23c-0.2-1.4,0.9-0.9,1.6-1.1c-0.9-0.7-1.2-1.9-2.2-2.4c0,0,0,0,0,0
		c-0.6,0.4-0.9,1.1-1.6,1.5C97.8,21.3,98.2,22.3,98.9,23z"/>
	<path class="st31" d="M95.9,26.6L95.9,26.6c0-0.5,0-0.9,0.7-0.9c0.3,0,0.5-0.1,0.7-0.4c-1.1-0.5-1.9-1.2-2.8-1.9c0,0,0,0,0,0
		c-0.4,0.6-0.4,1.4-1.1,1.9C94.4,25.5,95,26.2,95.9,26.6z"/>
	<path class="st32" d="M93.8,26.3c0.7,0.4,1.4,0.8,2.1,1.2c0,0,0,0,0,0c0.4-0.3-0.1-0.6,0-0.8c0,0,0,0,0,0c-0.9-0.4-1.5-1.2-2.5-1.3
		c-0.1,0.1-0.2,0.2-0.3,0.3c0,0,0,0,0,0C93.1,26,93.4,26.1,93.8,26.3z"/>
	<path class="st33" d="M97.3,25.3c0-0.2,0-0.3,0-0.5c0,0,0,0,0,0c-0.7-0.7-1.3-1.5-2.4-1.8c0,0,0,0,0,0c-0.1,0.1-0.3,0.2-0.4,0.3
		c0,0,0,0,0,0C95.3,24.1,96.2,24.9,97.3,25.3z"/>
	<path class="st34" d="M98.8,23.5C98.8,23.5,98.8,23.5,98.8,23.5c0-0.2,0-0.3,0-0.5c0,0,0,0,0,0c-0.7-0.7-1.1-1.8-2.2-2
		c-0.2,0.1-0.3,0.1-0.4,0.3c0,0,0,0,0,0C97.1,22.1,98,22.8,98.8,23.5z"/>
	<path class="st35" d="M100.5,21.9c0.5-0.2,0.2-0.5,0.2-0.8l0,0c-0.3-0.3-0.6-0.6-0.9-0.9c-0.4-0.5-0.7-1.1-1.5-0.9c0,0,0,0,0,0
		c0,0.1-0.1,0.2-0.1,0.2h0C99.3,20,99.6,21.2,100.5,21.9z"/>
	<path class="st36" d="M101.2,18.6c0.5,0.6,1,1.2,1.5,1.7c0-0.1,0.1-0.2,0.1-0.3c0,0,0,0,0,0c-0.2-0.5-0.5-1.1-0.7-1.6
		c-0.3-0.6-0.7-1-1.5-0.8c0,0,0,0,0,0c0,0.1,0,0.2-0.1,0.2c0,0,0,0,0,0C100.8,18.1,101,18.4,101.2,18.6z"/>
	<path class="st37" d="M104.7,17.6c-0.3-0.6-0.5-1.5-1.5-1.3c0.1,1.1,1.1,1.8,1.6,2.8c0.2,0,0.2-0.1,0.3-0.2c0,0,0,0,0,0
		C104.9,18.5,104.9,18,104.7,17.6z"/>
	<path class="st38" d="M107.2,13.9c0.2-0.6,0.6-0.5,1.1-0.6c2.9-0.6,5.8-1.2,8.8-1.7c3.1-0.6,6.3-1.2,9.4-1.8
		c1.2-0.2,2.5-0.1,3.6-0.5c2.5-0.8,5.1-1.2,7.7-1.6c0,0,0,0,0,0c0,0,0,0,0,0c0.8-0.5,1.7-0.2,2.5-0.8c0,0,0,0,0,0
		c-1.2-0.1-2.3,0.4-3.5,0.6c-2.1,0.4-4.2,0.5-6.3,1.1c-3.3,0.9-6.8,1.1-10.1,1.9c-3.8,0.9-7.7,1.4-11.6,2.2c-0.7,0.1-1.8-0.1-2,1.1
		c0,0,0,0,0,0C106.9,13.9,107.1,14.3,107.2,13.9z"/>
</g>
</svg>
