<svg version="1.1" xmlns="http://www.w3.org/2000/svg" xmlns:xlink="http://www.w3.org/1999/xlink" x="0px" y="0px" viewBox="0 0 134.4 101.1" style="enable-background:new 0 0 134.4 101.1;" xml:space="preserve">
	<style type="text/css">
		.st0,.st1,.st2 { fill: #16827C; }

		.st1 {
			animation: bottom-fin 4s ease-in-out infinite;
		}

		.st2 {
			animation: top-fin 4s ease-in-out infinite;
		}

		@keyframes bottom-fin {
			0% {
				transform-origin: left;
				transform: rotate(20deg) translateX(-7px) translateY(-40px);
			}

			50% {
				transform-origin: left;
				transform: rotate(0deg) translateX(0px) translateY(0px);
			}

			100% {
				transform-origin: left;
				transform: rotate(20deg) translateX(-7px) translateY(-40px);
			}
		}

		@keyframes top-fin {
			0% {
				transform-origin: left;
				transform: rotate(-3deg) translateX(-7px) translateY(5px);
			}

			50% {
				transform-origin: left;
				transform: rotate(0deg) translateX(0px) translateY(0px);
			}

			100% {
				transform-origin: left;
				transform: rotate(-3deg) translateX(-7px) translateY(5px);
			}
		}
	</style>
	<g id="body">
		<path class="st0" d="M133.7,48.9c0-0.6-0.3-1.2-0.6-1.8c0-0.2-0.1-0.3-0.3-0.4c-0.3-0.5-0.7-1-1.1-1.4c-0.1-0.2-0.2-0.4-0.4-0.4c-0.7-0.7-1.5-1.3-2.3-1.8c-1.2-0.9-2.5-1.5-3.9-1.9c-0.2,0-0.4,0-0.5-0.2c-0.1-0.1-0.3-0.2-0.4-0.1c-0.2,0.1-0.4-0.2-0.5-0.2c-2.5-0.8-5-1.5-7.7-1.4c-1.1,0-2.2,0.4-3.2,0s-1.8-1.3-2.7-1.8c-1.5-0.8-2.5-1.9-2.7-3.7c0-2-0.3-5.6-2.3-9.5c-0.6-1.1-2.1-3.9-5.2-6.5c-2-1.7-3.8-2.4-7.4-4.2C87,10.9,81.4,9.3,75.6,8.7c-4.2-0.4-8.5-0.4-12.8-0.4c-6.9,0-13.7,0.4-20.4,2c-2.7,0.6-5.4,1.1-7.6,3c-0.5-0.6-0.9-1.2-1.3-1.8c-0.3-0.6-0.8-1.2-1.4-1.7c-0.4-0.5-0.9-0.9-1.4-1.3c-0.1-0.2-0.3-0.3-0.6-0.4c-1.4-0.8-2.8-1.7-4.2-2.5c-0.4-0.2-0.8-0.4-1.2-0.3c-1.1,0-1.5,0.3-1.9,1.5c-0.6,1.6-0.6,3.3-0.6,5c0,2.9,0.8,5.5,2.9,7.6c0.3,0.3,0.2,0.4,0,0.7c-0.7,0.9-1.3,1.8-1.5,2.9c-0.2,1.4-0.7,2.5-1.2,3.7c-1.5,3.6-1.3,7.2-0.2,10.9c0.1,0.2,0.3,0.4,0.2,0.7c-0.3,0-0.6,0-0.8,0c-0.3,0-0.6,0.1-0.9,0.1c-1.8,0.2-3.6,0.4-5.3,0.9c-0.2,0-0.4,0-0.6,0.1c-1,0.1-1.9,0.4-2.8,0.8h-0.1c-1,0.3-2,0.7-2.9,1.3c-0.8,0.4-1.5,1-2.2,1.5c-0.1,0.1-0.2,0.2-0.3,0.3C6.2,43.8,6,44,5.8,44.2c-0.6,0.4-1.1,0.9-1.5,1.4c-1.7,1.5-3,3.3-3.5,5.6c0,0.5,0,1,0,1.5c0.5,0.7,1.1,1,1.9,1.2c1.6,0.6,3.3,0.8,5,1c3.8,0.4,7.5,0.4,11.3,0c2.2-0.2,4.4-0.6,6.6-1.1c1.1-0.3,2.2-0.6,3.2-1.2c1.2-0.6,2.4-1.2,3.5-2.1c0.3-0.1,0.5-0.3,0.7-0.6c0.3-0.3,0.5,0,0.7,0.2c1.6,1.6,3.4,2.9,5.4,3.8c0.2,0.1,0.4,0.2,0.6,0.5c0.8,0.9,1.8,1.6,2.8,2.2c1.7,0.8,3.5,1.4,5.3,1.8c0.5,0.1,1,0.2,1.5,0.5c1.7,1.1,3.6,1.8,5.7,2.2c1,0.2,2.1,0.1,3.1,0.5c1.2,0.5,2.5,0.7,3.8,0.9s2.6,0,3.9,0.2c3.9,0.6,7.9,0.7,11.8-0.1c1.2-0.2,2.3-0.1,3.5,0c-0.2,0.3,12.2-0.9,12.3-1.3c0.1-0.4,0.8-0.6,1.2-0.9c0.2-0.1,0.3-0.3,0.5-0.4c0.1,0.1,0.2,0,0.3-0.1c1.7-1.1,3.3-2.3,4.8-3.6c0.4-0.3,0.7-0.7,0.9-1.1c0.6-1.2,1-2.5,1.2-3.8c0.1-0.4,0.2-0.7,0.3-1.1c0-0.3,0.2-0.3,0.4-0.2c0.3,0.3,0.6,0.4,1,0.6c4.3,2.7,8.8,4.8,13.7,6.2c3.3,1,6.4,0.3,9.5-0.7c0.5-0.1,0.9-0.3,1.3-0.5c0.9,0.1,1.8,0.2,2.7,0.3c0.6,0.1,1.1-0.1,1.4-0.6C133.6,53.4,134,51.2,133.7,48.9z M127,55.3L127,55.3L127,55.3L127,55.3L127,55.3L127,55.3zM120.7,50.9C120.7,50.8,120.7,50.8,120.7,50.9C120.7,50.8,120.8,50.8,120.7,50.9C120.8,50.8,120.7,50.8,120.7,50.9z M123.9,48.7L123.9,48.7L123.9,48.7L123.9,48.7zM124.8,44.8L124.8,44.8C124.8,44.8,124.7,44.8,124.8,44.8L124.8,44.8C124.7,44.8,124.8,44.8,124.8,44.8zM24,24.9L24,24.9L24,24.9L24,24.9z M104.5,48.2L104.5,48.2L104.5,48.2L104.5,48.2z" />
	</g>
	<g id="top-fin">
		<path class="st1" d="M81.1,62.6l12.3-1.3c0.3,0.5,0.7,1.2,1.1,2.1c2.8,7-1.1,14.4-2,15.8c-1.7,3-3.7,4.8-6.8,7.5c-2.2,2-4.1,3.2-7.9,5.7c-9.7,6.4-13.5,7.5-16.3,7.9c-1,0.1-1.8,0.2-2.4,0.2c-0.1-0.2-0.3-0.6-0.3-1c-0.1-1,0.4-1.6,0.8-2.4c0.3-0.6,0.7-1.6,1-2.8c0.4-0.4,1.1-1.1,2-1.9c1.8-1.6,2.2-1.6,2.9-2.5c0.8-1,0.7-1.3,1.8-3c0.6-0.9,1.1-1.6,1.5-2.1c0.3-0.4,0.7-0.9,1.3-1.5c1.1-1.1,1.7-1.2,2.1-2.1c0.3-0.5,0.2-0.8,0.3-1.9c0.1-1,0.3-1.7,0.7-3.1c0.6-2.5,1.6-4.5,1.9-5.1C77,67.1,79.7,64,81.1,62.6z"/>
	</g>
	<g id="bottom-fin">
		<path class="st2" d="M100,18c0.5-0.6,1.1-1.5,1.3-2.7c0.4-2.2-0.6-4.1-1.8-6.7c0,0-1.4-2.9-2-5.4c-0.1-0.2-0.2-0.8,0-1.3c0.1-0.5,0.4-0.8,0.6-1c0.4,0,1-0.1,1.6-0.1c1.7,0.1,2.8,0.6,3.9,1c5,2.1,4.5,1.8,5,2.1c2.1,1.1,4.3,2.3,6.1,4.7c1.5,2,2.1,3.9,2.3,4.5c1,3.4,0.3,6.2-0.4,8.7c-0.6,2.4-1.4,5.6-4.3,8.6c-1.8,1.9-3.8,3-5.1,3.5c-0.2-2.1-0.7-5.2-2.3-8.6C103.4,21.9,101.4,19.5,100,18z"/>
	</g>
</svg>