<svg version="1.1" xmlns="http://www.w3.org/2000/svg" xmlns:xlink="http://www.w3.org/1999/xlink" x="0px" y="0px"
	 viewBox="0 0 291.3 158.8" style="enable-background:new 0 0 291.3 158.8;" xml:space="preserve">
<style type="text/css">
	.st0, .st1, .st2 {
		fill: #16827C;
	}

	.st2 {
		animation: fin 2s ease-in-out infinite;
	}

	@keyframes fin {
			0% {
				transform-origin: left;
				transform: rotate(0deg) translateX(0px) translateY(0px);
			}

			50% {
				transform-origin: left;
				transform: rotate(-10deg) translateX(-6px) translateY(8px);
			}

			100% {
				transform-origin: left;
				transform: rotate(0deg) translateX(0px) translateY(0px);
			}
		}
</style>
<g id="body">
	<path class="st0" d="M217.6,75.8c0.2-2.6-2.2-4.8-3.5-5.9c-5.1-4.4-10.4-7.3-13.4-9.1c-2.7-1.6-6.3-4.1-10.4-7.9
		c-0.4-0.6-0.9-0.9-1.4-1.1c-6.1-4.7-12.8-8.2-19.7-11.5c-3.9-2.8-8.5-3.9-12.9-5.5c-1.5-0.7-2.9-1.4-4.4-2.1
		c-4.8-2.3-10.3-2.4-14.9-5.2c-1.3-3.3-0.6-6.3,1.2-9.3c1.8-2.9,3.6-5.7,6-8.1c2.1-1.5,4.2-3,5.5-5.4c0.3-3.2-2.3-2-3.5-1.9
		c-13.5,0.7-24.7,6.6-34.1,16.1c-1.7,1.7-3.5,3.4-5.7,4.4c-5.1,1.8-10.2,3.6-15.2,5.4C77.1,32,63.3,36.5,50.6,43.5
		c-4.7,2.6-9.6,4.9-13.2,9.1c-1.5,0.9-2.9,1.8-4.4,2.7c-3.7,2.1-5.8,5.9-9.3,8.2c-6.4,7.5-12,15.5-16,24.7c-0.4,0.9-1.2,1.7-1.9,2.5
		c-2.4,2.7-3.5,6-4.3,9.4c-0.4,2,0.3,3.2,2.6,2.8c0.2,0.2,0.4,0.3,0.7,0.4c1.1-0.3,2.2-0.7,3.3-1c1.4,0.7,2.6-0.1,3.9-0.5
		c4.5-1.4,8.9-3.4,13.5-4.2c12.1-2.2,24.3-4,36.4-5.9c2.1-0.3,29.9-2.7,30.2-3.2c13.4-0.8,26.5-3.5,39.9-5c10.5-1.1,21-2.5,31.6-0.7
		c11,2,21.3,6,30.8,11.9c1.6,0.6,3.2,1.1,4.7,1.7c4.7-3.7,14.2-11.6,17.9-18.6C217.4,77,217.5,76.3,217.6,75.8z M191.5,88.1
		L191.5,88.1L191.5,88.1L191.5,88.1z M107.8,34.3C107.7,34.3,107.7,34.3,107.8,34.3C107.7,34.2,107.7,34.2,107.8,34.3
		C107.8,34.2,107.8,34.2,107.8,34.3z M94.2,77.9c-0.1-0.3-0.2-0.6-0.3-0.9C94.1,77.2,94.3,77.5,94.2,77.9z M87.7,76.2L87.7,76.2
		c-0.1,0.1-0.1,0.1-0.2,0l0,0l0,0l0,0l0,0l0,0C87.6,76.2,87.7,76.2,87.7,76.2z M59,61c-0.1,0-0.1-0.1-0.2-0.1l0,0l0,0l0,0l0,0l0,0
		c0.1,0,0.3-0.1,0.4-0.1C59.1,60.8,59.1,60.9,59,61z M183.4,49.1c0,0-0.1,0-0.1-0.1c0,0,0.1,0,0.1-0.1
		C183.4,48.7,183.5,48.9,183.4,49.1z"/>
</g>
<g id="tail">
	<path class="st1" d="M214.1,69.9c6.9,5.5,11.8,10.3,14.9,13.6c3.2,3.4,5,5.8,6.5,8.1c2,2.9,3.4,5.5,4.3,7.4c0.7,0.2,1.7,0.6,3,0.8
		c1.8,0.3,2.1,0.1,3.9,0.4c0.7,0.1,2.3,0.5,4.2,1.2c0.9,0.4,1.6,0.8,2.1,1.1c0.2-0.1,0.5-0.2,0.9-0.2c0.8,0,1.4,0.6,1.7,0.8
		c0.5,0.5,0.4,0.2,3.2,1.6c0.2,0.1,2.2,1.1,3.8,2c1.4,0.8,3.3,2,5.4,3.6c-0.4,0.2-1.1,0.6-2,0.8c-2.6,0.6-4.2-0.9-7.3-0.7
		c-0.6,0-1.5,0.2-2.6,0.6c-1.4,0.9-2.6,1.6-3.5,2c-0.9,0.5-1.5,0.8-1.8,1.4c-0.2,0.6,0.1,1.2,0.4,2c0.4,0.8,0.8,1.4,1.1,1.8
		c0,0.5,0.1,1.3,0.3,2.2c0.4,1.9,1.1,3.1,1.7,4.1c2.8,5.1,2.1,4.1,3.3,6.1c1.5,2.4,2.7,4,5.2,7.1c0.2,0.2,3.4,4.3,5.1,6.5
		c0.6,0.7,1.1,1.5,1.7,2.2c0.6,0.7,0.8,0.9,1,1.4c0.3,0.7,0.4,2-0.3,2.6c-0.4,0.4-1,0.3-1.4,0.3c-0.4,0-0.8-0.1-1.2-0.3
		c-1.3-0.5-2.2-0.9-3-1.8c-0.3-0.3-0.6-0.8-0.9-1.4c-1.1-0.6-2.3-1.4-3.7-2.4c-1.2-0.9-2.9-2.1-4.7-3.8c-2.3-2.1-3.9-4-4.8-5
		c-4.8-5.7-10.5-13.7-15.1-19.2c-0.7-0.9-2.4-2.9-5.2-4.6c-1.2-0.7-2.2-1.2-2.9-1.5c-0.6,0.1-1.4,0.1-2.4-0.1
		c-1.7-0.3-2.8-1.1-3.4-1.6c-2.9-1.1-6.1-2.6-9.4-4.3c-5.2-2.8-9.6-5.7-13.2-8.5c4-5.9,7.4-10.1,9.8-12.8c1.5-1.7,3.7-4,4.7-7.8
		C214.3,73.4,214.2,71.3,214.1,69.9z"/>
</g>
<g id="fin">
	<path class="st2" d="M63.8,91.5l28.3-3c-0.1,0.1-0.4,0.4-0.3,0.9c0,0.4,0.2,0.6,0.2,0.7c3.5,2,7.1,4.1,10.6,6.1
		c0.7,0,1.4,0,2.2,0.1c2.7,0.3,4.9,1.1,6.6,1.9c0.9,0.4,1.6,0.5,2.1,0.5c0.4,0,0.8,0,1.2,0.3c0.3,0.2,0.4,0.5,0.6,0.7
		c0.1,0.2,0.4,0.7,0.3,1.3c-0.1,0.5-0.4,0.9-0.5,1c-1.5,1.7-4.4,2.3-4.4,2.3c-3.7,0.8-5.5,1.2-7.6,1.2c-1.5,0-6,0-11.8-1.5
		c-4.7-1.2-8.1-2.9-9.8-3.8c-1.8-0.9-4.7-2.5-7.2-4.1c-1.3-0.8-2.6-1.6-3.9-2.5c-1.2-0.8-1.6-1-2.2-1.3
		C66.5,91.6,64.9,91.4,63.8,91.5z"/>
</g>
</svg>