<svg version="1.1" xmlns="http://www.w3.org/2000/svg" xmlns:xlink="http://www.w3.org/1999/xlink" x="0px" y="0px"
	 viewBox="0 0 24.3 19.8" style="enable-background:new 0 0 24.3 19.8;" xml:space="preserve">
<style type="text/css">
	.st0, .st1 {
		fill:#16827C;
	}

	.st1 {
		animation: tail 3s ease-in-out infinite;
	}

	@keyframes tail {
		0% {
			transform-origin: left;
			transform: rotate(-3deg) translateX(-2px) translateY(1px);
		}

		50% {
			transform-origin: left;
			transform: rotate(0deg) translateX(0px);
		}

		100% {
			transform-origin: left;
			transform: rotate(-3deg) translateX(-2px) translateY(1px);
		}
	}
</style>
<g id="body">
	<path class="st0" d="M19,9.9c-0.1-0.1-0.2-0.1-0.2-0.2c0-0.1,0-0.3,0.1-0.4C19,9.1,19.1,9,19.2,9c0.1-0.1,0.2-0.2,0.2-0.3
		c0.3-0.4,0.6-0.8,0.8-1.2c0.4-0.7,0.5-1.4,0.6-2.2c0-0.7-0.2-1.3-0.6-1.9c-0.6-0.8-1.3-1.3-2.2-1.6c-0.5-0.2-1-0.3-1.5-0.4h-0.1
		c-0.4-0.1-0.8-0.1-1.2-0.1s-0.8,0-1.3,0c-0.4,0-0.8,0.1-1.1,0.2s-0.7,0.2-1,0.3c-0.4,0.1-0.7,0.3-1.1,0.4c-0.1,0-0.2,0.1-0.3,0.1
		c-0.4-0.3-0.8-0.5-1-1c0-0.1-0.1,0-0.1,0C9.2,1.6,9.1,2.1,9.1,2.6v0.1C8.5,2.5,7.9,2.1,7.5,1.6c0-0.1,0-0.1-0.1,0
		c0,0.1-0.1,0.2-0.1,0.2c0,0.3-0.1,0.7,0,1.1c0,0.1,0.1,0.2,0,0.3c-0.5-0.1-1-0.3-1.4-0.6C5.8,2.5,5.6,2.4,5.6,2.2H5.5
		C5.3,2.9,5.4,3.4,5.6,4c-0.5-0.2-1-0.4-1.4-0.8V3.1c0,0,0,0,0,0.1c0,0.1,0,0.2,0,0.4C4,4.1,4.1,4.6,4.4,5.1C4.5,5.4,4.8,5.6,5,5.8
		L4.9,5.9C4.8,6.1,4.7,6.2,4.5,6.4C4.3,6.6,4.1,6.9,3.8,7.2C3.7,7.4,3.6,7.6,3.5,7.7C3.4,7.8,3.3,8,3.2,8.1C3.1,8.2,3.1,8.3,3,8.4
		C2.9,8.5,2.8,8.7,2.7,8.8L2.6,8.9L2.5,9c-0.3,0.4-0.6,0.8-1,1.2c-0.1,0.1-0.2,0.2-0.3,0.2c-0.2,0.1-0.4,0.2-0.7,0.2
		c0.2,0.2,0.3,0.3,0.5,0.5l0.1,0.1C1.4,11.5,1.7,11.8,2,12c0.1,0.1,0.2,0.1,0.3,0.2c-0.1,0.2,0,0.2,0.1,0.3C2.7,12.7,3,13,3.3,13.2
		c0.2,0.2,0.4,0.4,0.6,0.5c0.6,0.5,1.3,0.9,1.9,1.3C6,15.1,6,15.1,6,15.2c0,0.5,0,1,0.1,1.5c0,0.4,0.1,0.7,0.3,1
		c0.1,0.4,0.3,0.7,0.6,1c0-0.1,0-0.3,0-0.4c-0.1-0.5-0.1-1,0.3-1.4v-0.1c-0.3-0.3-0.5-0.6-0.7-1c-0.1-0.1-0.1-0.3-0.2-0.4
		c0.2,0.1,0.4,0.2,0.5,0.3c0.4,0.3,0.9,0.5,1.3,0.6c0.3,0.1,0.6,0.3,0.9,0.3c0,0,0.1,0,0.1,0.1c0.2,0.5,0.5,1,0.9,1.5
		c0.2,0.2,0.3,0.4,0.6,0.5c0,0,0.1,0.1,0.2,0.1c-0.1-0.1-0.1-0.2-0.1-0.3c-0.2-0.5-0.3-1-0.4-1.5c0,0,0,0,0.1,0c0,0,0,0.1,0.1,0.1
		c0.2,0.5,0.4,0.9,0.7,1.3c0.2,0.3,0.5,0.6,0.8,0.8c0,0,0,0,0.1,0.1c0-0.1-0.1-0.2-0.1-0.3c-0.2-0.5-0.3-0.9-0.4-1.4
		c0,0,0.1,0,0.1,0.1c0.1,0.3,0.3,0.6,0.6,0.9c0.2,0.2,0.4,0.5,0.7,0.6c0,0,0,0.1,0.1,0.1c0,0,0-0.1-0.1-0.1
		c-0.2-0.5-0.4-0.9-0.4-1.5c0.9,0.3,1.7,0.5,2.6,0.6c0.4,0,0.9,0.1,1.3,0c0.3,0,0.6,0,0.8-0.1c0.4-0.1,0.8-0.2,1.2-0.4
		c0.3-0.1,0.6-0.3,0.8-0.5c0.3-0.2,0.5-0.4,0.7-0.8c0.6-0.9,0.6-2.4-0.1-3.3c-0.2-0.3-0.4-0.5-0.7-0.7c0,0,0-0.1,0-0.1
		c0-0.1-0.2-0.2-0.2-0.2c-0.1-0.1-0.4-0.3-0.5-0.7c-0.1-0.6,0.3-1,0.4-1c0.2-0.2,0.6-0.4,0.6-0.4c0,0,0,0-0.1,0c0,0,0,0-0.1,0
		c0,0,0,0-0.1,0C19.2,10,19.1,10,19,9.9z M19.3,11.8L19.3,11.8L19.3,11.8L19.3,11.8L19.3,11.8L19.3,11.8z M3.1,9.2L3.1,9.2L3.1,9.2
		L3.1,9.2L3.1,9.2L3.1,9.2z M17.1,2.9L17.1,2.9L17.1,2.9L17.1,2.9L17.1,2.9z M8.4,7.6L8.4,7.6L8.4,7.6L8.4,7.6z M14.4,10.5
		L14.4,10.5L14.4,10.5L14.4,10.5z M13.2,9.2L13.2,9.2L13.2,9.2L13.2,9.2z M11.7,9.7L11.7,9.7L11.7,9.7L11.7,9.7z M12.4,9.9L12.4,9.9
		L12.4,9.9L12.4,9.9z M12.6,10.4L12.6,10.4C12.6,10.5,12.6,10.5,12.6,10.4C12.6,10.5,12.6,10.4,12.6,10.4z M13.6,10.7L13.6,10.7
		L13.6,10.7L13.6,10.7z M12.9,8.1L12.9,8.1L12.9,8.1L12.9,8.1z M9.9,8.8L9.9,8.8C9.9,8.8,9.8,8.8,9.9,8.8C9.8,8.8,9.9,8.8,9.9,8.8z
		 M12.4,11.3L12.4,11.3L12.4,11.3L12.4,11.3L12.4,11.3z M13.8,11.5C13.8,11.5,13.7,11.5,13.8,11.5L13.8,11.5L13.8,11.5z M9.1,7
		L9.1,7L9.1,7L9.1,7z M11.6,10.6L11.6,10.6L11.6,10.6L11.6,10.6L11.6,10.6z M12.3,12.4L12.3,12.4L12.3,12.4L12.3,12.4z M14.4,13.3
		L14.4,13.3L14.4,13.3L14.4,13.3L14.4,13.3L14.4,13.3z M14.5,12.1L14.5,12.1L14.5,12.1L14.5,12.1L14.5,12.1L14.5,12.1z M15,10.8
		L15,10.8h-0.1H15z M15.2,10.8L15.2,10.8L15.2,10.8L15.2,10.8z M14.3,10.5L14.3,10.5L14.3,10.5L14.3,10.5L14.3,10.5L14.3,10.5z
		 M13.4,8.1L13.4,8.1L13.4,8.1L13.4,8.1z M11.7,6.8L11.7,6.8L11.7,6.8C11.8,6.8,11.7,6.8,11.7,6.8z M12.8,2.5L12.8,2.5L12.8,2.5
		L12.8,2.5z M12,2.6L12,2.6C12,2.6,11.9,2.6,12,2.6L12,2.6C11.9,2.6,12,2.6,12,2.6z M10.4,5.7L10.4,5.7L10.4,5.7L10.4,5.7z M9,7L9,7
		L9,7L9,7L9,7L9,7z M8.9,10L8.9,10L8.9,10C8.8,10,8.8,10,8.9,10C8.8,10,8.8,10,8.9,10z M8.9,10.8C8.8,10.8,8.8,10.8,8.9,10.8
		C8.8,10.8,8.8,10.8,8.9,10.8L8.9,10.8z M8.9,11.2L8.9,11.2C8.8,11.2,8.8,11.2,8.9,11.2C8.8,11.2,8.8,11.2,8.9,11.2z M8.9,11.7
		L8.9,11.7C8.9,11.7,8.8,11.7,8.9,11.7C8.8,11.7,8.9,11.7,8.9,11.7z M13,13.9L13,13.9L13,13.9L13,13.9z M10.7,2.6L10.7,2.6L10.7,2.6
		L10.7,2.6z M7.9,7.9L7.9,7.9L7.9,7.9L7.9,7.9L7.9,7.9z M8.8,12.3C8.9,12.3,8.8,12.3,8.8,12.3C8.9,12.3,8.9,12.3,8.8,12.3L8.8,12.3z
		 M14.8,13.9L14.8,13.9L14.8,13.9L14.8,13.9z M16.3,7.7L16.3,7.7L16.3,7.7C16.3,7.6,16.3,7.7,16.3,7.7L16.3,7.7z M10.9,2.4L10.9,2.4
		L10.9,2.4L10.9,2.4z M10.7,2.5L10.7,2.5L10.7,2.5z M12.1,15.7L12.1,15.7L12.1,15.7L12.1,15.7L12.1,15.7L12.1,15.7z M16.8,16.3
		L16.8,16.3L16.8,16.3L16.8,16.3z M19.3,5.9L19.3,5.9L19.3,5.9C19.4,5.9,19.3,5.9,19.3,5.9z M16.5,2.6L16.5,2.6L16.5,2.6L16.5,2.6z
		 M14.8,2.1L14.8,2.1L14.8,2.1L14.8,2.1z M14.3,2.1L14.3,2.1L14.3,2.1L14.3,2.1z M8,4.9L8,4.9L8,4.9L8,4.9z M7.4,5.2L7.4,5.2
		L7.4,5.2L7.4,5.2z M18.6,11.5L18.6,11.5L18.6,11.5L18.6,11.5z M19.4,6.9L19.4,6.9L19.4,6.9L19.4,6.9z M19.4,6.6L19.4,6.6L19.4,6.6
		L19.4,6.6L19.4,6.6z M19.3,5.7L19.3,5.7L19.3,5.7L19.3,5.7z M18.4,4L18.4,4L18.4,4L18.4,4z M17.8,3.4L17.8,3.4L17.8,3.4L17.8,3.4z
		 M17.4,3.1L17.4,3.1L17.4,3.1L17.4,3.1z M6.7,4.4L6.7,4.4L6.7,4.4L6.7,4.4z M8.9,15.4L8.9,15.4L8.9,15.4L8.9,15.4z M16.4,17.4
		L16.4,17.4L16.4,17.4L16.4,17.4z M9.7,2.6L9.7,2.6L9.7,2.6L9.7,2.6L9.7,2.6z M5.4,6.8L5.4,6.8L5.4,6.8L5.4,6.8z M4.6,8.8L4.6,8.8
		L4.6,8.8L4.6,8.8z M11.4,17.2L11.4,17.2L11.4,17.2L11.4,17.2z M17.1,17.6L17.1,17.6L17.1,17.6L17.1,17.6L17.1,17.6L17.1,17.6z
		 M18.6,16.7L18.6,16.7L18.6,16.7L18.6,16.7z M18.8,16.6C18.8,16.5,18.8,16.5,18.8,16.6C18.8,16.5,18.8,16.5,18.8,16.6L18.8,16.6z
		 M19,16.4L19,16.4L19,16.4L19,16.4L19,16.4z M19.2,16.3L19.2,16.3L19.2,16.3L19.2,16.3z M19.3,16L19.3,16L19.3,16L19.3,16z
		 M19.5,15.8L19.5,15.8L19.5,15.8L19.5,15.8z M19.8,14.7L19.8,14.7L19.8,14.7L19.8,14.7z M19.8,14.5L19.8,14.5L19.8,14.5L19.8,14.5z
		 M22.8,8.9L22.8,8.9L22.8,8.9L22.8,8.9z M22.1,10.3L22.1,10.3L22.1,10.3L22.1,10.3L22.1,10.3L22.1,10.3z M21.9,9.4L21.9,9.4
		L21.9,9.4L21.9,9.4z M22,11.5L22,11.5L22,11.5L22,11.5L22,11.5L22,11.5z M23.1,9.6L23.1,9.6L23.1,9.6L23.1,9.6L23.1,9.6L23.1,9.6z
		 M14.1,1.5L14.1,1.5L14.1,1.5L14.1,1.5L14.1,1.5L14.1,1.5z M6.3,14.7L6.3,14.7L6.3,14.7L6.3,14.7z M9.6,16.8L9.6,16.8L9.6,16.8
		L9.6,16.8z"/>
</g>
<g id="tail">
	<path class="st1" d="M19.8,10.1c0,0,0.1-0.1,0.2-0.2c0.1-0.1,0.1-0.1,0.3-0.2c0.2-0.2,0.3-0.3,0.5-0.4c0,0,0.1,0,0.1-0.1
		c0.1,0,0.1-0.1,0.2-0.2c0.2-0.2,0.2-0.2,0.3-0.3c0,0,0.1-0.1,0.1-0.1c0,0,0,0,0-0.1c0,0,0.1,0,0.1-0.1c0,0,0,0,0-0.1
		c0-0.1,0.1-0.1,0.1-0.2c0,0,0,0,0.1-0.2C22,8,22,8,22,7.9c0,0,0.1-0.1,0.1-0.1c0.1,0,0.1,0.1,0.3,0.2c0.1,0,0.1,0,0.2,0.1
		c0.1,0.1,0.1,0.1,0.2,0.2c0.1,0.1,0,0.1,0.1,0.2c0.1,0.1,0.1,0.2,0.2,0.2c0,0,0.1,0.1,0.1,0.1c0,0,0.1,0.1,0.1,0.1
		c0,0,0.1,0.1,0.1,0.2c0.1,0.1,0.1,0.2,0.1,0.3c0.1,0.2,0.1,0.2,0.1,0.4c0.1,0.2,0,0.2,0.1,0.7c0,0.1,0,0.2,0,0.3c0,0.1,0,0.1,0,0.2
		c0,0.2,0,0.2,0,0.4c0,0.1,0,0.1,0,0.1c0,0,0,0.1,0,0.1c0,0.1,0,0.1,0,0.2c0,0.1,0,0.1-0.1,0.2c-0.1,0.3-0.1,0.2-0.1,0.3
		c0,0-0.1,0.1-0.1,0.3c-0.1,0.1-0.1,0.2-0.1,0.2c-0.1,0.2-0.2,0.3-0.3,0.5c-0.1,0.2-0.2,0.2-0.3,0.3c-0.1,0.1-0.1,0.1-0.2,0.2
		c0,0.1-0.1,0.1-0.1,0.1c0,0-0.1,0-0.1,0c-0.1,0-0.1,0-0.1,0c0,0-0.1,0-0.1-0.1c0,0-0.1-0.1-0.2-0.1c0,0-0.1-0.1-0.2-0.1
		c-0.1-0.1-0.2-0.1-0.2-0.1c0,0,0-0.1,0-0.1c0,0-0.1,0-0.1,0c-0.1,0-0.1-0.1-0.2-0.1C21.2,13,21.1,13,21,13
		c-0.2-0.1-0.6-0.2-1.2-0.5c0,0-0.1,0-0.1,0c-0.1,0-0.1-0.1-0.2,0c0,0,0,0-0.1,0.1c0,0-0.1,0-0.1,0c0,0-0.8-0.3-0.8-1
		c-0.1-0.8,0.8-1.4,1-1.4c0,0,0.1,0,0.2,0C19.7,10.1,19.8,10.1,19.8,10.1z"/>
</g>
</svg>