<svg version="1.1" id="Layer_1" xmlns="http://www.w3.org/2000/svg" xmlns:xlink="http://www.w3.org/1999/xlink" x="0px" y="0px"
	 viewBox="0 0 34.8 17.2" style="enable-background:new 0 0 34.8 17.2;" xml:space="preserve">
<style type="text/css">
	.st0{fill:#005772;}
</style>
<path class="st0" d="M34.4,14c-0.1-0.1-0.3-0.3-0.4-0.4c-0.4-0.4-0.8-0.6-1.3-0.8c-0.1,0-0.1-0.1,0-0.1c0.1-0.1,0.2-0.3,0.3-0.4
	c0.2-0.4,0.5-0.6,0.9-0.7c0.2-0.1,0.3-0.2,0.4-0.3c0-0.1,0-0.1,0-0.2c-0.2-0.3-0.5-0.5-0.8-0.7c-0.1,0-0.1-0.1-0.1-0.1
	c-0.2-0.3-0.5-0.6-0.9-0.9c-0.4-0.3-0.9-0.7-1.4-0.9c-0.1,0-0.2-0.1-0.3-0.1c-0.3-0.2-0.6-0.4-1-0.6c-1.3-0.7-2.7-1.4-4-1.9
	c-0.1,0-0.2-0.1-0.2-0.2c-0.1-0.3-0.2-0.5-0.3-0.8c0-0.1-0.1-0.2-0.1-0.3c-0.1,0,0,0.1,0,0.1c-0.2-0.4-0.5-0.8-0.8-1.2
	c0-0.1-0.1-0.1-0.2-0.2c0.1,0.1,0.1,0.2,0.2,0.3c0.1,0.1,0.1,0.3,0.2,0.4c0,0.1,0,0.2,0,0.2c-0.1,0-0.1,0-0.2,0
	c-0.2-0.1-0.3-0.3-0.4-0.5c-0.1-0.1-0.1-0.2-0.3-0.3c0.1,0.1,0.2,0.2,0.2,0.4c0,0.2,0,0.4-0.1,0.6c-0.1,0.2-0.2,0.2-0.3,0.1
	c0,0-0.1-0.1-0.1-0.1c0.1,0.3,0,0.5-0.3,0.6c-0.5,0.1-0.9,0.2-1.4,0.1c-1-0.1-2-0.1-3-0.1c-0.6,0-1.2,0-1.8,0.1
	c-0.1,0-0.1-0.1-0.2-0.1c-0.4-0.7-1-1.3-1.7-1.8c-0.2-0.1-0.3-0.2-0.5-0.3c0,0.1,0.1,0.2,0.2,0.3C15,3.6,15.1,4,15.2,4.4
	c0.1,0.3,0,0.5-0.1,0.7c0,0,0,0.1-0.1,0.1c-0.6,0.2-1.2,0.4-1.8,0.6C13,6,12.7,5.9,12.4,5.8c0,0,0,0,0,0c-0.1-0.1-0.3-0.1-0.3-0.1
	c-0.1,0.1,0,0.2,0,0.3c0,0.1,0.1,0.2-0.1,0.3c-0.1,0-0.1,0-0.2-0.1c-0.1-0.1-0.3-0.2-0.5-0.3c0.1,0.1,0.1,0.3,0.1,0.4
	c0,0.1,0,0.1-0.1,0.1c-0.1,0-0.1,0-0.2-0.1c-0.1-0.1-0.2-0.2-0.4-0.3c0,0,0,0.1,0,0.1c0,0.1,0,0.3-0.1,0.3c-0.2,0.1-0.5,0-0.6-0.1
	C10,6.4,9.9,6.3,9.8,6.1c0,0.1,0,0.2-0.1,0.3c0,0.1,0,0.3-0.2,0.3C9.4,6.8,9.2,6.8,9.1,6.7c0,0,0,0-0.1,0c0,0,0,0,0-0.1
	C9,6.5,8.9,6.4,8.8,6.4c-0.1,0-0.1,0.2-0.1,0.2c0,0.2,0,0.3-0.3,0.3c-0.1,0-0.2,0-0.3,0C7.8,7,7.7,6.8,7.5,6.6
	C7.2,6,6.9,5.4,6.6,4.9C6.4,4.5,6.2,4.2,6,3.8C5.9,3.7,5.8,3.6,5.8,3.6C5.6,3.4,5.5,3.3,5.4,3.1l0,0c0,0,0,0,0,0
	c-0.3-0.4-0.6-0.7-1-1C4,1.7,3.5,1.2,3,0.9C2.8,0.7,2.5,0.6,2.3,0.5c-0.1,0-0.1,0-0.1,0.1c0,0.1,0.1,0.2,0.2,0.3
	C2.6,1.2,3,1.6,3.3,2c0.2,0.2,0.2,0.5,0.3,0.7c0.3,0.9,0.8,1.7,1.3,2.6c0.2,0.4,0.4,0.9,0.7,1.3c0,0,0,0.1,0,0.1
	c0,0.2,0,0.5-0.1,0.7c0,0,0,0,0,0c0,0,0,0,0,0c0,0,0,0,0,0c0,0,0,0,0-0.1c-0.6,0.6-1.3,1-1.9,1.5c-0.4,0.3-0.7,0.7-1.1,1
	c0,0-0.1,0,0,0.1c0,0,0,0,0,0.1c-0.1,0-0.1,0-0.2,0.1c-0.3,0.3-0.6,0.6-0.8,1c0,0-0.1,0-0.1,0.1c-0.3,0.3-0.7,0.4-1,0.6
	c0.1,0.1,0.2,0.1,0.2,0.1C1.4,11.7,2.2,11.4,3,11c0.1,0,0.1-0.1,0.2-0.1C4,10.4,4.8,9.8,5.5,9.3c0.4-0.3,0.8-0.7,1.2-1.1
	C6.9,8,7.2,7.8,7.4,7.6c0,0,0.1-0.1,0.1-0.1c0,0,0,0,0,0c0,0,0,0,0,0c0,0,0,0,0,0c0.1,0,0.2,0,0.4,0.1C8.2,7.7,8.2,7.7,8.2,8
	c0,0.1,0,0.1,0,0.2c0.1,0,0.3-0.1,0.4-0.1C8.7,8,8.9,8,9,8c0.2,0.1,0.2,0.1,0.2,0.3c0,0.1-0.1,0.2-0.1,0.4c0.1,0,0.3,0,0.4-0.1
	c0.1,0,0.2-0.1,0.3-0.2c0.2-0.1,0.4,0,0.5,0.1c0,0.1,0,0.1,0,0.2c0,0.1-0.1,0.1-0.1,0.2C10.1,9,10,9.1,10,9.2
	c0.3,0.1,0.5-0.1,0.8-0.1c0.1,0,0.1-0.1,0.2,0c0.2,0.1,0.3,0.2,0.1,0.4c-0.1,0.1-0.1,0.2-0.2,0.2c0,0-0.1,0.1,0,0.1c0,0,0.1,0,0.1,0
	c0.3,0,0.5,0,0.7-0.1c0.1,0,0.1,0,0.2,0c0.5,0.5,1.1,0.9,1.7,1.3c0.3,0.2,0.3,0.4,0.1,0.6c-0.2,0.3-0.4,0.5-0.7,0.7
	c-0.3,0.2-0.6,0.4-0.9,0.6C12,13,11.9,13,11.8,13.1c0,0.1,0,0.1,0.1,0.1c0.2,0,0.4,0,0.6,0c0.6-0.1,1.1-0.3,1.6-0.4
	c0.1,0,0.1-0.1,0.2-0.1c0,0,0,0,0,0l0,0l0,0l0,0c0.4-0.2,0.8-0.4,1.2-0.6c0.2,0.1,0.4,0.3,0.7,0.4c0.8,0.5,1.7,0.9,2.6,1.3
	c0.8,0.3,1.6,0.6,2.5,0.8c-0.2,0.1-0.4,0.1-0.6,0.2c0,0,0,0,0,0c0,0,0,0,0,0c0,0,0,0,0,0c-0.2,0-0.2,0.1-0.2,0.2
	c-0.2,0.2-0.2,0.5-0.2,0.8c0,0,0,0.1,0,0.1c-0.2,0.1-0.2,0.4-0.4,0.5c-0.1,0.1-0.2,0.1-0.3,0.2c0.1,0,0.1,0,0.2,0c0,0,0.1,0,0.1,0
	c0.1,0,0.2,0,0.2,0c0.9-0.3,1.8-0.8,2.6-1.2c0,0,0.1,0,0.1-0.1c0.1-0.1,0.2-0.2,0.3-0.3c0.3,0,0.6,0,0.9,0c0.5,0.1,0.9,0.1,1.4,0.1
	c0.7,0,1.4,0,2.1,0c0.3,0,0.6,0,0.8,0c1-0.1,1.9-0.3,2.8-0.6c0.1,0,0.1,0,0.2,0c0.9,0.1,1.7-0.1,2.5-0.4c0.2,0,0.5,0,0.7-0.1
	C34.5,14.1,34.5,14.1,34.4,14z M23.1,15C23.1,15,23.1,15,23.1,15C23.1,15,23.1,15,23.1,15C23.1,15,23.1,15,23.1,15z M7.5,7
	C7.5,7,7.5,7,7.5,7C7.5,7,7.5,7,7.5,7C7.5,7,7.5,7,7.5,7z M11.5,6.8C11.5,6.8,11.5,6.8,11.5,6.8C11.5,6.8,11.5,6.8,11.5,6.8
	C11.5,6.8,11.5,6.8,11.5,6.8z M14.5,6.3C14.5,6.4,14.5,6.4,14.5,6.3C14.5,6.4,14.5,6.4,14.5,6.3C14.5,6.3,14.5,6.3,14.5,6.3z
	 M29,13.7C29,13.7,29,13.7,29,13.7C29,13.7,29,13.7,29,13.7C29,13.7,29,13.7,29,13.7z M30.5,10C30.5,10,30.5,10,30.5,10
	C30.5,10,30.5,10,30.5,10C30.5,10,30.5,10,30.5,10z M23.5,10.8C23.5,10.8,23.5,10.8,23.5,10.8C23.5,10.8,23.5,10.8,23.5,10.8
	C23.5,10.8,23.5,10.8,23.5,10.8z M27.9,10.3C27.9,10.3,27.9,10.3,27.9,10.3C27.9,10.4,27.9,10.4,27.9,10.3
	C27.9,10.4,27.9,10.4,27.9,10.3z M25.4,9.1C25.4,9,25.4,9,25.4,9.1C25.4,9,25.4,9,25.4,9.1C25.4,9.1,25.4,9.1,25.4,9.1z M25.8,8.5
	C25.8,8.5,25.8,8.5,25.8,8.5C25.8,8.5,25.8,8.5,25.8,8.5C25.8,8.5,25.8,8.5,25.8,8.5L25.8,8.5z M24.7,11C24.7,11,24.7,11,24.7,11
	L24.7,11L24.7,11C24.7,11,24.7,11,24.7,11C24.7,11,24.7,11,24.7,11z M24.9,11C24.9,11,24.9,11,24.9,11C24.9,11,24.9,11,24.9,11
	C24.9,11,24.9,11,24.9,11z M22.9,10.6C22.9,10.6,22.9,10.6,22.9,10.6C22.9,10.6,22.9,10.6,22.9,10.6C22.9,10.6,22.9,10.6,22.9,10.6z
	 M23,10.7C23,10.7,23,10.7,23,10.7C23,10.7,23,10.7,23,10.7C23,10.7,23,10.7,23,10.7z M22.5,10.5C22.5,10.6,22.5,10.6,22.5,10.5
	C22.5,10.6,22.5,10.6,22.5,10.5C22.5,10.6,22.5,10.6,22.5,10.5z M23.7,10.7C23.7,10.7,23.7,10.7,23.7,10.7
	C23.7,10.7,23.7,10.7,23.7,10.7C23.7,10.7,23.7,10.7,23.7,10.7C23.7,10.7,23.7,10.7,23.7,10.7C23.7,10.7,23.7,10.7,23.7,10.7z
	 M27.2,8.4C27.2,8.4,27.2,8.4,27.2,8.4C27.2,8.4,27.2,8.4,27.2,8.4C27.2,8.4,27.2,8.4,27.2,8.4z M23.3,11.1
	C23.3,11.1,23.3,11.1,23.3,11.1C23.3,11.1,23.3,11.1,23.3,11.1C23.3,11.1,23.3,11.1,23.3,11.1z M23.7,11.4
	C23.7,11.4,23.7,11.4,23.7,11.4C23.7,11.4,23.7,11.4,23.7,11.4C23.7,11.4,23.7,11.4,23.7,11.4z M24.7,11.4
	C24.7,11.4,24.7,11.4,24.7,11.4C24.7,11.4,24.7,11.4,24.7,11.4C24.7,11.4,24.7,11.4,24.7,11.4z M26.5,7.9
	C26.5,7.9,26.5,7.9,26.5,7.9C26.5,7.9,26.5,7.9,26.5,7.9C26.5,7.9,26.5,7.9,26.5,7.9z M20.5,7C20.5,7,20.5,7,20.5,7
	C20.5,7,20.5,7,20.5,7C20.5,7,20.5,7,20.5,7z M24.7,12.1C24.7,12.1,24.7,12.1,24.7,12.1C24.7,12.1,24.7,12.1,24.7,12.1
	C24.7,12.1,24.7,12.1,24.7,12.1z M30.4,9.1C30.4,9.1,30.4,9.1,30.4,9.1C30.4,9.1,30.4,9.1,30.4,9.1C30.4,9.1,30.4,9.1,30.4,9.1z
	 M18.8,7.4C18.8,7.4,18.8,7.4,18.8,7.4C18.8,7.4,18.8,7.4,18.8,7.4C18.8,7.4,18.8,7.4,18.8,7.4z M15.9,7.7
	C15.9,7.7,15.9,7.7,15.9,7.7C15.9,7.7,16,7.7,15.9,7.7L15.9,7.7C16,7.7,15.9,7.7,15.9,7.7z M16.6,10.8
	C16.6,10.8,16.6,10.8,16.6,10.8C16.6,10.8,16.6,10.8,16.6,10.8C16.6,10.8,16.6,10.8,16.6,10.8z M24.7,12.9
	C24.7,12.9,24.7,12.9,24.7,12.9C24.7,12.9,24.7,12.9,24.7,12.9C24.7,12.9,24.7,12.9,24.7,12.9z M26.3,14.5
	C26.3,14.5,26.3,14.5,26.3,14.5C26.3,14.5,26.3,14.5,26.3,14.5C26.3,14.5,26.3,14.5,26.3,14.5z M25.7,14C25.7,14,25.7,14,25.7,14
	C25.7,14,25.7,14,25.7,14C25.7,14,25.7,14,25.7,14z M31.1,11C31.1,11,31.1,11,31.1,11C31.1,11,31.1,11,31.1,11
	C31.1,11,31.1,11,31.1,11z M30.7,9C30.7,9,30.7,9,30.7,9L30.7,9C30.7,9,30.6,9,30.7,9C30.6,9,30.6,9,30.7,9z M30.1,11
	C30.1,11,30.1,11,30.1,11L30.1,11C30.1,11,30.1,11,30.1,11C30.1,11,30.1,11,30.1,11z M14.8,7.4C14.8,7.4,14.8,7.4,14.8,7.4
	C14.8,7.4,14.8,7.4,14.8,7.4C14.8,7.4,14.8,7.4,14.8,7.4z M16.6,11.3C16.6,11.2,16.5,11.2,16.6,11.3C16.5,11.2,16.6,11.2,16.6,11.3z
	 M17.8,12.2C17.8,12.2,17.8,12.2,17.8,12.2C17.8,12.2,17.8,12.2,17.8,12.2C17.8,12.2,17.8,12.2,17.8,12.2z M16.9,6.3
	C16.9,6.3,16.9,6.3,16.9,6.3C16.9,6.3,16.9,6.3,16.9,6.3C16.9,6.3,16.9,6.3,16.9,6.3C16.9,6.3,16.9,6.3,16.9,6.3
	C16.9,6.3,16.9,6.3,16.9,6.3z M13.6,7C13.6,7,13.6,7,13.6,7C13.6,7,13.6,7,13.6,7C13.6,7,13.6,7,13.6,7z M24.3,14.4
	C24.3,14.4,24.3,14.4,24.3,14.4C24.3,14.4,24.3,14.4,24.3,14.4C24.3,14.4,24.3,14.4,24.3,14.4z M27.2,14.6
	C27.2,14.6,27.2,14.6,27.2,14.6C27.2,14.6,27.2,14.6,27.2,14.6C27.2,14.6,27.2,14.6,27.2,14.6z M16.5,6C16.5,6,16.5,6,16.5,6
	C16.5,6,16.5,6,16.5,6C16.5,6,16.5,6.1,16.5,6C16.5,6.1,16.5,6.1,16.5,6C16.5,6.1,16.5,6,16.5,6z M18.2,12.6
	C18.2,12.6,18.2,12.6,18.2,12.6L18.2,12.6L18.2,12.6z M27.9,14.8C27.9,14.8,27.9,14.8,27.9,14.8C27.9,14.8,27.9,14.8,27.9,14.8
	C27.9,14.8,27.9,14.8,27.9,14.8z M18.2,12.6C18.2,12.6,18.2,12.6,18.2,12.6C18.2,12.6,18.2,12.6,18.2,12.6
	C18.2,12.6,18.2,12.6,18.2,12.6C18.2,12.6,18.2,12.6,18.2,12.6z M2.4,10.2C2.4,10.2,2.4,10.2,2.4,10.2C2.4,10.1,2.4,10.1,2.4,10.2
	C2.4,10.1,2.4,10.1,2.4,10.2z M0.4,11.8C0.4,11.8,0.4,11.8,0.4,11.8C0.4,11.8,0.4,11.8,0.4,11.8C0.4,11.8,0.4,11.8,0.4,11.8
	C0.4,11.8,0.4,11.8,0.4,11.8z M3.4,10.7L3.4,10.7C3.4,10.7,3.4,10.7,3.4,10.7C3.4,10.7,3.4,10.7,3.4,10.7
	C3.4,10.7,3.4,10.7,3.4,10.7L3.4,10.7z M3.8,10.4C3.8,10.4,3.8,10.4,3.8,10.4C3.8,10.4,3.8,10.4,3.8,10.4
	C3.9,10.4,3.9,10.4,3.8,10.4L3.8,10.4C3.8,10.4,3.8,10.4,3.8,10.4z M14.3,12.6C14.3,12.6,14.3,12.6,14.3,12.6
	C14.3,12.6,14.3,12.6,14.3,12.6C14.3,12.6,14.3,12.6,14.3,12.6z M27.4,15.2L27.4,15.2C27.4,15.2,27.4,15.2,27.4,15.2
	C27.4,15.2,27.4,15.2,27.4,15.2C27.4,15.2,27.4,15.2,27.4,15.2z"/>
</svg>
