<svg version="1.1" xmlns="http://www.w3.org/2000/svg" xmlns:xlink="http://www.w3.org/1999/xlink" x="0px" y="0px"
	 viewBox="0 0 34.8 18.8" style="enable-background:new 0 0 34.8 18.8;" xml:space="preserve">
<style type="text/css">
	.st0, .st1, .st2 { fill: #16827C; }

	.st1 {
		-webkit-animation: tail 3s ease-in-out infinite;
				animation: tail 3s ease-in-out infinite;
	}

	@-webkit-keyframes tail {
		0% {
			-webkit-transform-origin: center right;
					transform-origin: center right;
			-webkit-transform: rotate(0deg) translateX(0px) translateY(0px);
					transform: rotate(0deg) translateX(0px) translateY(0px);
		}

		50% {
			-webkit-transform-origin: center right;
					transform-origin: center right;
			-webkit-transform: rotate(25deg) translateX(4px) translateY(11px);
					transform: rotate(25deg) translateX(4px) translateY(11px);
		}

		100% {
			-webkit-transform-origin: center right;
					transform-origin: center right;
			-webkit-transform: rotate(0deg) translateX(0px) translateY(0px);
					transform: rotate(0deg) translateX(0px) translateY(0px);
		}
	}

	@keyframes tail {
		0% {
			-webkit-transform-origin: center right;
					transform-origin: center right;
			-webkit-transform: rotate(0deg) translateX(0px) translateY(0px);
					transform: rotate(0deg) translateX(0px) translateY(0px);
		}

		50% {
			-webkit-transform-origin: center right;
					transform-origin: center right;
			-webkit-transform: rotate(25deg) translateX(4px) translateY(11px);
					transform: rotate(25deg) translateX(4px) translateY(11px);
		}

		100% {
			-webkit-transform-origin: center right;
					transform-origin: center right;
			-webkit-transform: rotate(0deg) translateX(0px) translateY(0px);
					transform: rotate(0deg) translateX(0px) translateY(0px);
		}
	}
</style>
<g id="body">
	<path class="st0" d="M34.4,15.6c-0.1-0.1-0.3-0.3-0.4-0.4c-0.4-0.4-0.8-0.6-1.3-0.8c-0.1,0-0.1-0.1,0-0.1c0.1-0.1,0.2-0.3,0.3-0.4
		c0.2-0.4,0.5-0.6,0.9-0.7c0.2-0.1,0.3-0.2,0.4-0.3c0-0.1,0-0.1,0-0.2c-0.2-0.3-0.5-0.5-0.8-0.7c-0.1,0-0.1-0.1-0.1-0.1
		c-0.2-0.3-0.5-0.6-0.9-0.9c-0.4-0.3-0.9-0.7-1.4-0.9c-0.1,0-0.2-0.1-0.3-0.1c-0.3-0.2-0.6-0.4-1-0.6c-1.3-0.7-2.7-1.4-4-1.9
		c-0.1,0-0.2-0.1-0.2-0.2c-0.1-0.3-0.2-0.5-0.3-0.8c0-0.1-0.1-0.2-0.1-0.3c-0.1,0,0,0.1,0,0.1c-0.2-0.4-0.5-0.8-0.8-1.2
		c0-0.1-0.1-0.1-0.2-0.2c0.1,0.1,0.1,0.2,0.2,0.3c0.1,0.1,0.1,0.3,0.2,0.4c0,0.1,0,0.2,0,0.2c-0.1,0-0.1,0-0.2,0
		c-0.2-0.1-0.3-0.3-0.4-0.5c-0.1-0.1-0.1-0.2-0.3-0.3c0.1,0.1,0.2,0.2,0.2,0.4c0,0.2,0,0.4-0.1,0.6c-0.1,0.2-0.2,0.2-0.3,0.1L23.4,6
		c0.1,0.3,0,0.5-0.3,0.6c-0.5,0.1-0.9,0.2-1.4,0.1c-1-0.1-2-0.1-3-0.1c-0.6,0-1.2,0-1.8,0.1c-0.1,0-0.1-0.1-0.2-0.1
		c-0.4-0.7-1-1.3-1.7-1.8c-0.2-0.1-0.3-0.2-0.5-0.3c0,0.1,0.1,0.2,0.2,0.3C15,5.2,15.1,5.6,15.2,6c0.1,0.3,0,0.5-0.1,0.7
		c0,0,0,0.1-0.1,0.1c-0.6,0.2-1.2,0.4-1.8,0.6c-0.2,0.2-0.5,0.1-0.8,0l0,0c-0.1-0.1-0.3-0.1-0.3-0.1c-0.1,0.1,0,0.2,0,0.3
		c0,0.1,0.1,0.2-0.1,0.3c-0.1,0-0.1,0-0.2-0.1c-0.1-0.1-0.3-0.2-0.5-0.3c0.1,0.1,0.1,0.3,0.1,0.4s0,0.1-0.1,0.1s-0.1,0-0.2-0.1
		c-0.1-0.1-0.2-0.2-0.4-0.3v0.1c0,0.1,0,0.3-0.1,0.3c-0.2,0.1-0.5,0-0.6-0.1c0,0.1-0.1,0-0.2-0.2c0,0.1,0,0.2-0.1,0.3
		c0,0.1,0,0.3-0.2,0.3c-0.1,0.1-0.3,0.1-0.4,0c0,0,0,0-0.1,0c0,0,0,0,0-0.1C9,8.1,8.9,8,8.8,8C8.7,8,8.7,8.2,8.7,8.2
		c0,0.2,0,0.3-0.3,0.3c-0.1,0-0.2,0-0.3,0C7.8,8.6,7.7,8.4,7.5,8.2c-0.3-0.6-0.3,1.2-0.1,1l0.1-0.1l0,0l0,0l0,0c0.1,0,0.2,0,0.4,0.1
		c0.3,0.1,0.3,0.1,0.3,0.4c0,0.1,0,0.1,0,0.2c0.1,0,0.3-0.1,0.4-0.1C8.7,9.6,8.9,9.6,9,9.6c0.2,0.1,0.2,0.1,0.2,0.3
		c0,0.1-0.1,0.2-0.1,0.4c0.1,0,0.3,0,0.4-0.1c0.1,0,0.2-0.1,0.3-0.2c0.2-0.1,0.4,0,0.5,0.1c0,0.1,0,0.1,0,0.2c0,0.1-0.1,0.1-0.1,0.2
		c-0.1,0.1-0.2,0.2-0.2,0.3c0.3,0.1,0.5-0.1,0.8-0.1c0.1,0,0.1-0.1,0.2,0c0.2,0.1,0.3,0.2,0.1,0.4c-0.1,0.1-0.1,0.2-0.2,0.2
		c0,0-0.1,0.1,0,0.1H11c0.3,0,0.5,0,0.7-0.1c0.1,0,0.1,0,0.2,0c0.5,0.5,1.1,0.9,1.7,1.3c0.3,0.2,0.3,0.4,0.1,0.6
		c-0.2,0.3-0.4,0.5-0.7,0.7s-0.6,0.4-0.9,0.6c-0.1,0.1-0.2,0.1-0.3,0.2c0,0.1,0,0.1,0.1,0.1c0.2,0,0.4,0,0.6,0
		c0.6-0.1,1.1-0.3,1.6-0.4c0.1,0,0.1-0.1,0.2-0.1l0,0l0,0l0,0l0,0c0.4-0.2,0.8-0.4,1.2-0.6c0.2,0.1,0.4,0.3,0.7,0.4
		c0.8,0.5,1.7,0.9,2.6,1.3c0.8,0.3,1.6,0.6,2.5,0.8c-0.2,0.1-0.4,0.1-0.6,0.2l0,0l0,0l0,0c-0.2,0-0.2,0.1-0.2,0.2
		c-0.2,0.2-0.2,0.5-0.2,0.8v0.1c-0.2,0.1-0.2,0.4-0.4,0.5c-0.1,0.1-0.2,0.1-0.3,0.2c0.1,0,0.1,0,0.2,0h0.1c0.1,0,0.2,0,0.2,0
		c0.9-0.3,1.8-0.8,2.6-1.2c0,0,0.1,0,0.1-0.1c0.1-0.1,0.2-0.2,0.3-0.3c0.3,0,0.6,0,0.9,0c0.5,0.1,0.9,0.1,1.4,0.1c0.7,0,1.4,0,2.1,0
		c0.3,0,0.6,0,0.8,0c1-0.1,1.9-0.3,2.8-0.6c0.1,0,0.1,0,0.2,0c0.9,0.1,1.7-0.1,2.5-0.4c0.2,0,0.5,0,0.7-0.1
		C34.5,15.7,34.5,15.7,34.4,15.6z M23.1,16.6L23.1,16.6L23.1,16.6L23.1,16.6z M7.5,8.6L7.5,8.6L7.5,8.6L7.5,8.6z M11.5,8.4L11.5,8.4
		L11.5,8.4L11.5,8.4z M14.5,7.9C14.5,8,14.5,8,14.5,7.9C14.5,8,14.5,8,14.5,7.9L14.5,7.9z M29,15.3L29,15.3L29,15.3L29,15.3z
		 M30.5,11.6L30.5,11.6L30.5,11.6L30.5,11.6z M23.5,12.4L23.5,12.4L23.5,12.4L23.5,12.4z M27.9,11.9L27.9,11.9
		C27.9,12,27.9,12,27.9,11.9C27.9,12,27.9,12,27.9,11.9z M25.4,10.7C25.4,10.6,25.4,10.6,25.4,10.7C25.4,10.6,25.4,10.6,25.4,10.7
		L25.4,10.7z M25.8,10.1L25.8,10.1L25.8,10.1L25.8,10.1L25.8,10.1z M24.7,12.6L24.7,12.6L24.7,12.6L24.7,12.6L24.7,12.6L24.7,12.6z
		 M24.9,12.6L24.9,12.6L24.9,12.6L24.9,12.6z M22.9,12.2L22.9,12.2L22.9,12.2L22.9,12.2z M23,12.3L23,12.3L23,12.3L23,12.3z
		 M22.5,12.1C22.5,12.2,22.5,12.2,22.5,12.1C22.5,12.2,22.5,12.2,22.5,12.1C22.5,12.2,22.5,12.2,22.5,12.1z M23.7,12.3L23.7,12.3
		L23.7,12.3L23.7,12.3L23.7,12.3L23.7,12.3z M27.2,10L27.2,10L27.2,10L27.2,10z M23.3,12.7L23.3,12.7L23.3,12.7L23.3,12.7z M23.7,13
		L23.7,13L23.7,13L23.7,13z M24.7,13L24.7,13L24.7,13L24.7,13z M26.5,9.5L26.5,9.5L26.5,9.5L26.5,9.5z M20.5,8.6L20.5,8.6L20.5,8.6
		L20.5,8.6z M24.7,13.7L24.7,13.7L24.7,13.7L24.7,13.7z M30.4,10.7L30.4,10.7L30.4,10.7L30.4,10.7z M18.8,9L18.8,9L18.8,9L18.8,9z
		 M15.9,9.3L15.9,9.3C15.9,9.3,16,9.3,15.9,9.3L15.9,9.3C16,9.3,15.9,9.3,15.9,9.3z M16.6,12.4L16.6,12.4L16.6,12.4L16.6,12.4z
		 M24.7,14.5L24.7,14.5L24.7,14.5L24.7,14.5z M26.3,16.1L26.3,16.1L26.3,16.1L26.3,16.1z M25.7,15.6L25.7,15.6L25.7,15.6L25.7,15.6z
		 M31.1,12.6L31.1,12.6L31.1,12.6L31.1,12.6z M30.7,10.6L30.7,10.6L30.7,10.6C30.7,10.6,30.6,10.6,30.7,10.6
		C30.6,10.6,30.6,10.6,30.7,10.6z M30.1,12.6L30.1,12.6L30.1,12.6L30.1,12.6L30.1,12.6z M14.8,9L14.8,9L14.8,9L14.8,9z M16.6,12.9
		C16.6,12.8,16.5,12.8,16.6,12.9C16.5,12.8,16.6,12.8,16.6,12.9z M17.8,13.8L17.8,13.8L17.8,13.8L17.8,13.8z M16.9,7.9L16.9,7.9
		L16.9,7.9L16.9,7.9L16.9,7.9L16.9,7.9z M13.6,8.6L13.6,8.6L13.6,8.6L13.6,8.6z M24.3,16L24.3,16L24.3,16L24.3,16z M27.2,16.2
		L27.2,16.2L27.2,16.2L27.2,16.2z M16.5,7.6L16.5,7.6L16.5,7.6C16.5,7.6,16.5,7.7,16.5,7.6C16.5,7.7,16.5,7.7,16.5,7.6
		C16.5,7.7,16.5,7.6,16.5,7.6z M18.2,14.2L18.2,14.2L18.2,14.2L18.2,14.2z M27.9,16.4L27.9,16.4L27.9,16.4L27.9,16.4z M18.2,14.2
		L18.2,14.2L18.2,14.2L18.2,14.2L18.2,14.2z M2.4,11.8L2.4,11.8C2.4,11.7,2.4,11.7,2.4,11.8C2.4,11.7,2.4,11.7,2.4,11.8z M0.4,13.4
		L0.4,13.4L0.4,13.4L0.4,13.4L0.4,13.4z M3.4,12.3L3.4,12.3L3.4,12.3L3.4,12.3L3.4,12.3L3.4,12.3z M3.8,12L3.8,12L3.8,12
		C3.9,12,3.9,12,3.8,12L3.8,12L3.8,12z M14.3,14.2L14.3,14.2L14.3,14.2L14.3,14.2z M27.4,16.8L27.4,16.8L27.4,16.8L27.4,16.8
		L27.4,16.8z"/>
</g>
<g id="tail">
	<path class="st1" d="M2.5,11.4c0.5-0.5,0.9-0.9,1.2-1.1C4,10.1,4.2,9.9,4.6,9.7C5,9.4,5.3,9.1,5.5,8.9c0,0,0,0.1,0,0.1l0.1-0.8
		C5.5,8.1,5.4,8,5.3,7.8C5,7.3,5,7.1,4.7,6.6C4.4,6,4.4,6,4.1,5.4C3.9,5.1,3.9,5,3.8,4.8C3.6,4.4,3.5,4,3.4,3.7
		C3.3,3.5,3.1,3.4,3,3.2C2.7,2.9,2.5,2.7,2.3,2.4c0,0-0.1-0.1-0.1-0.1c0,0-0.1-0.2-0.1-0.2c0,0,0.1,0,0.1,0c0,0,0.1,0,0.1,0.1
		c0.1,0.1,0.1,0,0.2,0.1c0.1,0,0.1,0.1,0.2,0.1c0.1,0,0.1,0.1,0.1,0.1c0.1,0.1,0.2,0.1,0.3,0.2C3.4,2.8,3.5,2.9,3.7,3
		C4,3.3,4.1,3.4,4.2,3.5c0,0,0.1,0.1,0.2,0.2c0.1,0.1,0.1,0.1,0.2,0.2c0.1,0.1,0.1,0.1,0.3,0.3c0.2,0.2,0.1,0.1,0.2,0.2
		c0.2,0.2,0.2,0.2,0.3,0.5C5.5,4.9,5.6,5,5.8,5.1C5.9,5.3,5.9,5.3,6,5.4c0.1,0.1,0.2,0.3,0.3,0.5c0.1,0.2,0.2,0.3,0.2,0.4
		c0,0,0.2,0.3,0.3,0.6c0.3,0.5,0.4,0.7,0.4,0.8c0,0,0.1,0.3,0.3,0.6c0,0,0.1,0.1,0.2,0.2c0.1,0,0.1,0.1,0.2,0.1c0,0.2,0,0.4-0.1,0.7
		c0,0-0.1-0.1-0.2-0.1c-0.1,0-0.1,0-0.2,0C7.4,9.2,7.3,9.3,7.1,9.4C6.8,9.7,6.8,9.7,6.7,9.8c-0.3,0.3-0.3,0.3-0.6,0.6
		c-0.2,0.1-0.3,0.2-0.4,0.3c-0.4,0.3-1.3,0.9-2.4,1.7c-0.5,0.3-1,0.5-1.7,0.7c-0.3,0.1-0.6,0.2-0.9,0.3c0,0-0.1,0-0.1,0
		c0,0-0.1-0.1-0.1-0.1c0.2-0.1,0.3-0.2,0.4-0.3c0.1-0.1,0.2-0.1,0.4-0.2c0.1-0.1,0.2-0.1,0.2-0.1c0,0,0,0,0-0.1
		c0.1-0.2,0.2-0.3,0.3-0.4c0.1-0.2,0.2-0.2,0.5-0.6C2.4,11.6,2.4,11.5,2.5,11.4z"/>
</g>
</svg>