<svg version="1.1" id="Crown_City" xmlns="http://www.w3.org/2000/svg" xmlns:xlink="http://www.w3.org/1999/xlink" x="0px" y="0px"
	 viewBox="0 0 203.6 176.1" style="enable-background:new 0 0 203.6 176.1;" xml:space="preserve">
<style type="text/css">
	.st0{fill:#FFFFFF;}
</style>
<g>
	<path class="st0" d="M4.4,57.7c1.7-2.2,3.7-3.7,6.7-3.3c2.9,0.4,5,2.5,5.4,5.4c0.4,2.8-1,5.6-3.6,6.8c-2.5,1.2-5.6,0.5-7.5-1.6
		c-0.4-0.4-0.7-0.9-1-1.3C4.4,61.7,4.4,59.7,4.4,57.7z"/>
	<path class="st0" d="M101.9,3c4.8,0,8.8,4,8.7,8.8c-0.1,4.8-3.8,8.6-8.6,8.7c-4.9,0-8.7-3.8-8.7-8.7C93.2,6.8,97,3,101.9,3z"/>
	<path class="st0" d="M86.5,121.8c1,5.7,2,11.5,3,17.2c0.2,0,0.4,0.1,0.5,0.1c0.2-0.6,0.4-1.2,0.6-1.7c1.4-5.3,2.9-10.7,4.3-16
		c0.3-1.2,0.8-2,2.4-1.2c-2.4,10.7-4.8,21.4-7.2,32.1c-0.1,0-0.2,0-0.2,0c-1.1-5.5-2.1-10.9-3.2-16.4c-0.2,0-0.5,0-0.7,0
		c-0.8,5.2-1.6,10.5-2.4,15.7c-0.1,0-0.2,0-0.4,0c-2.1-10.4-4.2-20.9-6.4-31.4c1.5-0.7,1.8,0,2.1,1.2c1,5.3,2.1,10.6,3.2,15.9
		c0.1,0.6,0.3,1.1,0.4,1.7c0.2,0,0.4,0,0.6,0c1-5.7,2.1-11.4,3.1-17.1C86.4,121.8,86.4,121.8,86.5,121.8z"/>
	<path class="st0" d="M103,129.3c0,8,0,16.1,0,24.2c-0.9,0-1.6,0-2.4,0c0-0.8,0-1.6,0-2.4c0-9.8,0-19.7,0-29.5
		c0-1.3,0.3-2.2,1.7-1.8c0.5,0.1,0.9,0.9,1.1,1.5c1.8,6.2,3.6,12.4,5.4,18.6c0.2,0.6,0.4,1.1,0.6,1.7c0.2,0,0.3,0,0.5,0
		c0-0.6,0.1-1.1,0.1-1.7c0-6.1,0-12.2,0-18.3c0-0.9-0.2-1.9,1.3-1.9c1.4,0.1,1.2,1,1.2,1.8c0,10.1,0,20.3,0,30.4
		c0,0.5-0.3,1.1-0.5,1.6c-0.4-0.5-1-0.8-1.2-1.4c-2.2-7-4.3-14-6.5-21c-0.2-0.7-0.6-1.4-0.8-2.1C103.3,129.2,103.1,129.3,103,129.3z
		"/>
	<path class="st0" d="M101.9,26c4.6,0.1,7.9,3.7,7.8,8.4c-0.1,4.5-3.7,8-8.2,7.8c-4.6-0.1-8-3.7-7.9-8.4
		C93.7,29.4,97.3,25.9,101.9,26z"/>
	<path class="st0" d="M61.8,136.9c0.5-3.4,1-6.9,1.7-10.2c0.3-1.6,1.1-3.2,2-4.5c1.6-2.5,4.4-2.6,5.8,0.1c1.3,2.5,2.3,5.2,2.8,8
		c1.2,6.2,0.9,12.5-1.2,18.5c-0.4,1.2-1,2.3-1.7,3.3c-1.7,2.3-4,2.3-5.6,0c-2.3-3.3-2.9-7.1-3.3-10.9c-0.1-1.3,0-2.7,0-4.1
		C62.1,136.9,61.9,136.9,61.8,136.9z M65.2,137c0.5,3.9,1,8.3,1.7,12.6c0.1,0.8,1,1.4,1.5,2.1c0.5-0.7,1.1-1.4,1.6-2.1
		c0.1-0.1,0.1-0.4,0.1-0.5c1.6-7.9,1.6-15.8,0-23.7c-0.2-1-1.1-1.9-1.7-2.8c-0.6,0.9-1.6,1.8-1.7,2.8
		C66.1,129.1,65.7,132.8,65.2,137z"/>
	<path class="st0" d="M48,153.7c-0.9-0.1-1.6-0.1-2.4-0.1c0-0.7-0.1-1.2-0.1-1.8c0-9.9,0-19.9,0-29.8c0-1.7,0.5-2.3,2.1-2.1
		c0.3,0,0.6,0,0.9,0c4.8,0,6.9,1.2,8,4.5c1.4,4,0.1,9.2-2.8,11.4c-1.1,0.8-1.2,1.4-0.7,2.6c2.1,5,4.1,10,6.2,15
		c-1.7,0.7-2.5,0.2-3.1-1.5c-2.1-5.4-4.3-10.8-6.6-16.4c2.8-1.4,4.7-3.4,5.2-6.5c0.6-3.5-1.1-6.6-4.1-7.4c-2.1-0.5-2.6-0.2-2.6,2
		c0,9.2,0,18.4,0,27.6C48,152.1,48,152.8,48,153.7z"/>
	<path class="st0" d="M101.7,62.5c-4.2,0-7.6-3.2-7.6-7.5c-0.1-4.3,3.3-7.7,7.6-7.7c4.2,0,7.5,3.3,7.5,7.6
		C109.2,59.2,106,62.5,101.7,62.5z"/>
	<path class="st0" d="M160.1,37.1c-4.3,0-7.5-3.3-7.5-7.6c0-4.3,3.4-7.5,7.6-7.5c4.2,0.1,7.4,3.4,7.4,7.5
		C167.7,33.8,164.4,37.1,160.1,37.1z"/>
	<path class="st0" d="M35.8,29.8c0-4.2,3.2-7.5,7.4-7.5c4.3-0.1,7.6,3.2,7.6,7.5c0,4.2-3.4,7.7-7.6,7.6C39.1,37.3,35.8,34,35.8,29.8
		z"/>
	<path class="st0" d="M130.1,31.1c4.2,0,7.5,3.2,7.5,7.4c0,4.2-3.2,7.5-7.4,7.6c-4.2,0-7.5-3.2-7.5-7.4
		C122.7,34.4,125.8,31.2,130.1,31.1z"/>
	<path class="st0" d="M65.9,38.8c0-4.2,3.2-7.5,7.4-7.5c4.1,0,7.4,3.4,7.4,7.5c0,4.2-3.3,7.4-7.5,7.4C69,46.2,65.9,43.1,65.9,38.8z"
		/>
	<path class="st0" d="M108.6,76.5c0,4-2.9,7-6.9,7c-4,0-7-3-7-7.1c0-4,3.2-7.1,7.1-7.1C105.6,69.4,108.6,72.5,108.6,76.5z"/>
	<path class="st0" d="M84.9,57.4c0,3.9-3,7-6.8,7.1c-3.9,0-7-2.9-7.1-6.8c-0.1-3.9,3-7,6.9-7.1C81.8,50.6,84.9,53.5,84.9,57.4z"/>
	<path class="st0" d="M151.5,54.2c-3.9,0-6.9-3-6.9-7c0-3.9,3-7,6.9-7c3.8,0,6.8,3.1,6.9,6.9C158.4,51.1,155.4,54.2,151.5,54.2z"/>
	<path class="st0" d="M118.5,57.3c0-4,2.9-7,6.9-7c3.9,0,6.9,3.1,6.9,7c0,3.8-3.1,6.9-6.8,6.9C121.6,64.3,118.5,61.2,118.5,57.3z"/>
	<path class="st0" d="M51.8,40.6c3.9,0,6.9,2.9,7,6.7c0.1,4-2.9,7.1-6.8,7.1c-4,0-7-2.9-7-6.9C45,43.6,48,40.6,51.8,40.6z"/>
	<path class="st0" d="M148.6,153.5c0-0.6,0-1.3,0-2c0-9,0-18,0-27.1c0-1.8-0.6-2.4-2.3-2.2c-0.4,0.1-0.9,0.1-1.3,0
		c-0.6-0.3-1-0.7-1.5-1.1c0.5-0.4,1-1.1,1.5-1.2c2.2-0.1,4.3-0.1,6.5-0.1c1.5,0,3-0.1,4.5,0c0.4,0,1.2,0.7,1.1,1
		c-0.1,0.5-0.6,0.9-1,1.4c-0.1,0.1-0.4,0-0.5,0c-4.3,0-3.8-0.4-3.9,3.9c0,8.3,0,16.7,0,25C151.7,153.9,151.5,154,148.6,153.5z"/>
	<path class="st0" d="M88.3,77.9c-0.1,3.7-2.9,6.4-6.6,6.3c-3.5-0.1-6.3-3-6.3-6.5c0-3.6,3-6.5,6.6-6.4
		C85.6,71.3,88.4,74.2,88.3,77.9z"/>
	<path class="st0" d="M199.8,59.8c0,3.8-1.4,5.7-4.6,6.3c-3.1,0.6-6.1-1.1-7.2-3.9c-1.1-2.8-0.1-6.2,2.3-7.8
		c2.7-1.8,6.3-1.6,8.3,0.8c1,1.2,1.2,2.9,1.7,4.4C200.1,59.7,199.9,59.7,199.8,59.8z"/>
	<path class="st0" d="M174.5,57.6c0,3.6-2.7,6.4-6.3,6.4c-3.6,0-6.4-2.7-6.4-6.3c-0.1-3.8,2.6-6.5,6.4-6.5
		C171.8,51.3,174.5,54,174.5,57.6z"/>
	<path class="st0" d="M35.2,64.3c-3.5,0-6.4-2.8-6.4-6.4c0-3.5,2.8-6.3,6.3-6.3c3.6,0,6.5,2.7,6.5,6.3
		C41.6,61.4,38.7,64.3,35.2,64.3z"/>
	<path class="st0" d="M107.7,95.4c-0.1,3.6-2.9,6.3-6.5,6.2c-3.6-0.1-6.2-2.9-6.1-6.6c0.1-3.6,2.9-6.4,6.5-6.3
		C105.1,89,107.7,91.8,107.7,95.4z"/>
	<path class="st0" d="M58.6,70.7c-3.5,0-6.4-2.9-6.3-6.5c0-3.6,2.8-6.3,6.5-6.3c3.5,0,6.3,2.8,6.3,6.3C65,67.8,62.2,70.7,58.6,70.7z
		"/>
	<path class="st0" d="M144.7,70.4c-3.6,0-6.3-2.8-6.3-6.4c0-3.6,2.7-6.3,6.2-6.4c3.6-0.1,6.4,2.7,6.4,6.3
		C151,67.7,148.3,70.4,144.7,70.4z"/>
	<path class="st0" d="M127.9,77.5c0,3.6-2.6,6.3-6.2,6.4c-3.6,0.1-6.4-2.7-6.4-6.3c0-3.6,2.7-6.4,6.4-6.4
		C125.2,71.2,127.9,73.9,127.9,77.5z"/>
	<path class="st0" d="M167.6,153.7c-0.8,0-1.4,0-2.2,0c0-1.7-0.1-3.5,0-5.2c0.5-6.3-0.5-12.3-3-18.2c-1.4-3.3-2.4-6.8-3.6-10.2
		c1.6-0.6,2.4-0.3,2.9,1.3c1.2,4,2.6,7.9,3.9,11.9c0.2,0.6,0.5,1.2,1,2.3c0.5-1.1,0.7-1.7,0.9-2.2c1.3-3.9,2.7-7.9,4-11.8
		c0.4-1.4,1.1-2,2.7-1.5c-0.1,0.5-0.2,0.9-0.3,1.4c-1.9,5.3-3.8,10.5-5.6,15.8c-0.4,1.1-0.6,2.4-0.6,3.6
		C167.6,145,167.6,149.2,167.6,153.7z"/>
	<path class="st0" d="M187.7,70.9c0,3.4-2.5,5.9-5.9,5.9c-3.3,0-5.7-2.5-5.8-5.8c0-3.4,2.5-6,5.8-6
		C185.2,64.9,187.7,67.5,187.7,70.9z"/>
	<path class="st0" d="M166.3,72.1c0,3.3-2.6,5.8-5.8,5.7c-3.4,0-5.8-2.6-5.8-6c0.1-3.2,2.6-5.8,5.8-5.8
		C163.8,66.1,166.3,68.8,166.3,72.1z"/>
	<path class="st0" d="M123,96.5c0,3.3-2.5,5.8-5.7,5.9c-3.3,0-5.9-2.6-5.8-5.9c0-3.3,2.6-5.8,5.8-5.8C120.5,90.7,123,93.2,123,96.5z
		"/>
	<path class="st0" d="M131.6,82.1c0-3.4,2.3-5.8,5.6-5.8c3.3,0,5.9,2.5,5.9,5.8c0,3.2-2.6,5.8-5.8,5.8
		C134.1,87.9,131.6,85.4,131.6,82.1z"/>
	<path class="st0" d="M131.5,153.5c-6.4-3.8-10.3-13.6-8.5-21.2c1.3-5.7,6.8-12,10.9-12.3c-1.1,1.1-2.1,2.1-3,3.3
		c-5.5,6.8-6.3,14.3-2.7,22.1c1,2.1,2.4,4.1,3.6,6.1C132.4,152.3,132.6,152.9,131.5,153.5z"/>
	<path class="st0" d="M66.1,88c-3.3,0-5.8-2.4-5.8-5.8c0-3.3,2.5-5.8,5.8-5.8c3.2,0,5.6,2.5,5.7,5.7C71.8,85.4,69.4,87.9,66.1,88z"
		/>
	<path class="st0" d="M15.9,71.1c0-3.2,2.5-5.7,5.6-5.7c3.2,0,5.8,2.5,5.8,5.8c0,3.2-2.5,5.8-5.7,5.8C18.4,76.9,15.9,74.4,15.9,71.1
		z"/>
	<path class="st0" d="M80.5,96.6c0-3.2,2.4-5.7,5.7-5.7c3.3,0,5.8,2.5,5.8,5.8c0,3.2-2.5,5.7-5.7,5.7C82.9,102.5,80.5,100,80.5,96.6
		z"/>
	<path class="st0" d="M41.5,119.9c-5.5,4.8-8.5,10.4-8.1,17.6c0.3,5.2,2.6,9.7,5.6,13.8c0.6,0.8,1.2,1.6-0.1,2.2
		c-6.2-4.2-10.4-12.8-8.4-21.4C31.7,126.6,37.3,120.3,41.5,119.9z"/>
	<path class="st0" d="M48.3,72.5c-0.1,3.2-2.6,5.6-5.8,5.5c-3.3-0.1-5.7-2.6-5.6-6c0.1-3.2,2.6-5.6,5.8-5.5
		C46.1,66.6,48.4,69.2,48.3,72.5z"/>
	<path class="st0" d="M150.6,93.1c-2.9,0-5.1-2.3-5.1-5.3c0-2.9,2.2-5.2,5.2-5.2c3,0,5.3,2.3,5.2,5.3
		C155.8,90.9,153.5,93.1,150.6,93.1z"/>
	<path class="st0" d="M173.2,87.2c-3,0-5.2-2.3-5.1-5.4c0.1-2.9,2.3-5.1,5.3-5.1c2.9,0,5.2,2.3,5.2,5.2
		C178.5,85,176.2,87.3,173.2,87.2z"/>
	<path class="st0" d="M131.3,94.8c2.9,0,5.1,2.3,5.1,5.3c0,2.9-2.3,5.2-5.2,5.3c-2.9,0-5.2-2.4-5.2-5.4
		C126.1,96.9,128.3,94.8,131.3,94.8z"/>
	<path class="st0" d="M137.7,136.8c0-5,0-10.1,0-15.1c0-0.9-0.1-1.8,1.3-1.8c1.2,0,1.1,0.9,1.1,1.7c0,10.1,0,20.3,0,30.4
		c0,0.8,0.1,1.7-1.2,1.7c-1.4,0-1.2-0.9-1.2-1.8C137.7,146.9,137.7,141.8,137.7,136.8z"/>
	<path class="st0" d="M72.2,95c2.9,0,5.2,2.3,5.2,5.2c0,2.9-2.4,5.2-5.2,5.2c-2.8,0-5.1-2.4-5.1-5.3C67.1,97.2,69.2,95,72.2,95z"/>
	<path class="st0" d="M47.6,88.1c0-3,2.2-5.1,5.2-5.1c2.9,0.1,5,2.2,5,5.1c0,3-2.3,5.3-5.1,5.3C49.8,93.4,47.6,91.1,47.6,88.1z"/>
	<path class="st0" d="M35.3,82.3c0,3-2.3,5.2-5.2,5.1c-2.8-0.1-5-2.4-5-5.2c0-2.9,2.3-5.2,5.2-5.1C33.2,77.2,35.3,79.3,35.3,82.3z"
		/>
	<path class="st0" d="M162.5,100.2c-2.6,0-4.5-2-4.5-4.7c0-2.8,1.9-4.7,4.7-4.6c2.6,0,4.6,2,4.6,4.6
		C167.2,98.2,165.1,100.2,162.5,100.2z"/>
	<path class="st0" d="M148.4,103.6c0,2.6-2,4.7-4.5,4.7c-2.6,0.1-4.7-2.1-4.7-4.7c0-2.6,2-4.6,4.6-4.6
		C146.4,99,148.4,101,148.4,103.6z"/>
	<path class="st0" d="M40,99.8c-2.6,0-4.6-2-4.5-4.6c0-2.5,2-4.5,4.5-4.5c2.5,0,4.7,2.1,4.7,4.6C44.6,97.8,42.5,99.8,40,99.8z"/>
	<path class="st0" d="M55.1,103.9c0-2.7,1.9-4.6,4.5-4.6c2.6,0,4.6,1.9,4.6,4.6c0,2.5-1.9,4.5-4.4,4.6
		C57.2,108.5,55.1,106.4,55.1,103.9z"/>
	<path class="st0" d="M139.5,169.1c0-2.6,0-5.2,0-7.8c0-0.5-0.1-1,0-1.5c0.1-0.3,0.5-0.6,0.7-0.8c0.2,0.3,0.6,0.5,0.6,0.8
		c0,3.8,0,7.6,0,11.4c0,0.3-0.5,0.9-0.7,0.9c-0.5-0.1-1.2-0.4-1.5-0.8c-1.8-2.7-3.6-5.5-5.4-8.3c-0.3-0.5-0.7-1-1.2-1.4
		c-0.7,3.5,0,7-0.6,10.4c-0.2,0-0.5,0-0.7,0c-0.1-0.6-0.2-1.1-0.2-1.7c0-3.2,0-6.5,0-9.7c0-0.6,0.4-1.1,0.6-1.7
		c0.6,0.3,1.4,0.5,1.8,1c1.7,2.6,3.4,5.2,5,7.9c0.3,0.5,0.7,1,1,1.5C139.1,169.2,139.3,169.2,139.5,169.1z"/>
	<path class="st0" d="M160.8,172.5c-3.7,0-6-2.7-6-6.9c0-4.3,2.4-7,6.3-7c4,0,6.2,2.5,6.3,6.7C167.3,169.7,164.7,172.5,160.8,172.5z
		 M161,171.2c2.9,0,4.8-2.2,4.9-5.8c0-3.3-2-5.7-4.8-5.7c-2.9,0-4.9,2.4-4.9,5.8C156.1,169.1,157.9,171.2,161,171.2z"/>
	<path class="st0" d="M158.8,108.7c0,2.3-1.9,4.1-4.2,4.1c-2.2-0.1-4-1.9-4-4.1c0-2.3,1.9-4.1,4.2-4
		C157.1,104.7,158.8,106.5,158.8,108.7z"/>
	<path class="st0" d="M52.6,108.9c0,2.3-1.7,4-4,4c-2.3,0-4-1.7-3.9-4c0-2.2,1.8-4,4-4C50.8,104.8,52.6,106.7,52.6,108.9z"/>
	<path class="st0" d="M90.1,168.1c0.4,0.3,0.8,0.6,1.1,1c1.2,2.1,4.2,2.9,6.2,1.6c1.7-1.1,1.6-3.2-0.2-4c-1.4-0.6-3-0.9-4.5-1.3
		c-1.5-0.4-2.6-1.1-2.6-2.9c0-1.8,0.8-3,2.4-3.6c1.8-0.6,3.7-0.5,5.4,0.5c0.5,0.3,1,0.9,1.3,1.5c0.2,0.3-0.1,0.9-0.1,1.3
		c-0.4-0.2-0.9-0.4-1.1-0.7c-1.2-1.7-2.7-2.4-4.4-1.7c-0.9,0.4-1.8,1.4-2,2.3c-0.4,1.2,0.7,1.8,1.9,2.1c1.1,0.3,2.2,0.6,3.2,0.8
		c1.7,0.4,3.2,1.1,3.3,3.2c0.1,2-0.7,3.3-2.9,4C93.8,173.2,89.9,172.1,90.1,168.1z"/>
	<path class="st0" d="M76.8,172c-1.9,0.4-1.8-0.9-2.2-1.7c-0.4-0.8-0.9-2-1.4-2.1c-1.6-0.3-3.3-0.2-4.9,0.2
		c-0.6,0.1-0.8,1.6-1.2,2.3c-0.3,0.6-0.8,1.1-1.2,1.6c-0.2-0.1-0.4-0.3-0.6-0.4c0.5-1.4,1-2.7,1.5-4.1c1-2.6,2-5.2,3.1-7.8
		c0.2-0.5,0.8-0.9,1.3-1c0.4,0,1,0.4,1.2,0.8C73.8,163.8,75.2,167.8,76.8,172z M73.4,166.8c-0.8-2.2-1.4-4-2.1-5.8
		c-0.2,0-0.4,0-0.7,0c-0.7,1.8-1.4,3.7-2.2,5.8C70.2,166.8,71.6,166.8,73.4,166.8z"/>
	<path class="st0" d="M52.1,162.6c-0.4-0.3-1-0.5-1.3-1c-1-1.6-2.4-2.2-4.1-1.9c-1.8,0.2-3.3,1.3-3.6,3c-0.3,1.9-0.3,3.9,0.1,5.8
		c0.4,1.7,1.9,2.6,3.8,2.7c1.8,0,3-0.8,3.9-2.4c0.3-0.5,0.7-0.9,1.3-1.6c0.4,2.5-1.5,4.9-4,5.3c-3.1,0.5-6.1-1.1-6.6-4.3
		c-0.3-2-0.2-4.2,0.3-6.2c0.7-2.4,3.1-3.6,5.8-3.4C50.2,158.8,51.6,159.9,52.1,162.6z"/>
	<path class="st0" d="M115.8,165.5c0,1.7,0,3.5,0,5.2c0,0.5-0.4,0.9-0.6,1.3c-0.2-0.4-0.7-0.8-0.7-1.3c-0.1-3.5-0.1-7.1,0-10.6
		c0-0.4,0.4-0.8,0.6-1.2c0.2,0.4,0.7,0.8,0.7,1.2C115.8,162,115.8,163.8,115.8,165.5z"/>
</g>
</svg>
