<?xml version="1.0" encoding="utf-8"?>
<!-- Generator: Adobe Illustrator 22.1.0, SVG Export Plug-In . SVG Version: 6.00 Build 0)  -->
<svg version="1.1" id="Layer_1" xmlns="http://www.w3.org/2000/svg" xmlns:xlink="http://www.w3.org/1999/xlink" x="0px" y="0px"
	 viewBox="0 0 31.9 42.3" style="enable-background:new 0 0 31.9 42.3;" xml:space="preserve">
<style type="text/css">
	.st0 {
		fill: #16827C;
	}

	/*.st0 {
			-webkit-animation: seaweed 4s ease-in-out infinite;
					animation: seaweed 4s ease-in-out infinite;
	}

	@-webkit-keyframes seaweed {
		0% {
			-webkit-transform-origin: center;
					transform-origin: center;
			-webkit-transform: rotate(20deg) skewX(20deg);
					transform: rotate(20deg) skewX(20deg);
		}

		50% {
			-webkit-transform-origin: center;
					transform-origin: center;
			-webkit-transform: rotate(0deg);
					transform: rotate(0deg);
		}

		100% {
			-webkit-transform-origin: center;
					transform-origin: center;
			-webkit-transform: rotate(20deg) skewX(20deg);
					transform: rotate(20deg) skewX(20deg);
		}
	}

	@keyframes seaweed {
		0% {
			-webkit-transform-origin: center;
					transform-origin: center;
			-webkit-transform: rotate(20deg) skewX(20deg);
					transform: rotate(20deg) skewX(20deg);
		}

		50% {
			-webkit-transform-origin: center;
					transform-origin: center;
			-webkit-transform: rotate(0deg);
					transform: rotate(0deg);
		}

		100% {
			-webkit-transform-origin: center;
					transform-origin: center;
			-webkit-transform: rotate(20deg) skewX(20deg);
					transform: rotate(20deg) skewX(20deg);
		}
	}*/
</style>
<path class="st0" d="M11.1,27c0.8,1,0.8,1,0.1,2.1c-0.4,0.6-0.6,1.3-0.6,2.1c0,0.2,0,0.3-0.1,0.4c-0.3,0.7-0.1,1.3,0.1,2
	c0.4,1.7,0.9,3.5,1.4,5.2c-1.5-0.4-2.6,0.3-2.8,1.7c-0.1,0.6,0.1,1,0.7,1.1c0.7,0.2,1.4,0.2,2,0.1c0.7-0.1,1.2,0.2,1.9,0.3
	c0.7,0,1.4-0.2,2.1-0.3l0,0c0.7,0.2,1.4,0.2,2.1,0.1c1.1-0.2,1.5-1.3,0.8-2.2c-0.6-0.8-1.4-1-2.3-1l0,0l0,0c1.1-1.1,2.3-1.9,3.5-2.7
	c2.2-1.4,3.2-3.4,3.4-5.9c0.1-1.5,0.1-3.1-0.1-4.6c-0.2-2.3,0.3-4.5,1.3-6.5c0.1-0.2,0.2-0.3,0.2-0.5c-0.7,0.8-1.2,1.7-1.7,2.7
	c-1.1,2.2-1.4,4.5-1.4,6.9c0,1.3,0,2.5-0.3,3.7c-0.3,1.5-1.4,2.4-2.5,3.3c-0.2,0.1-0.1-0.1-0.1-0.1c0.9-1.6,1.2-3.2,1-5
	c-0.1-0.8,0.2-1.6,0.2-2.4c0.1-1.6-0.2-3.1-0.3-4.7c-0.3-3.4,0.2-6.5,2.1-9.4c1-1.5,1.5-3.2,1.1-5.1c-0.5-2.1-1.7-3.8-3.1-5.3
	c0.4,0.8,0.8,1.5,1.1,2.3c0.5,1.3,0.7,2.6,0.6,4c0,0.9-0.3,1.8-1,2.4c-2.1,2-2.9,4.5-2.9,7.4c0,1.4,0.1,2.8,0.3,4.2
	c0,0.2,0,0.3,0,0.5c-0.9-2-2.5-3.6-3.5-5.6c0.1-0.9,0.5-1.8,0.8-2.6c0.2-0.7,0.5-1.4,0.8-2c0.8-2.1,0.7-4.3-0.1-6.4
	c-1.1-2.6-2.6-4.8-4.4-6.8l0.4,1c0.9,1.9,1.6,3.8,2.2,5.8c0.6,2.2,0.4,4.3-0.3,6.5c-0.1,0.4-0.3,0.9-0.4,1.3c-0.1,0.3-0.2,0.1-0.2,0
	c-0.2-1.5-0.4-2.9-0.6-4.4c-0.3,0.7-0.4,1.4-0.4,2.1c-0.1,1.5,0,2.9,0.5,4.3c0.1,0.2,0,0.3,0,0.5l0,0c-0.4,1.1-0.5,2.3-0.6,3.4
	c0,0.3,0.2,0.7-0.2,0.9c0,0,0.1,0.2,0.1,0.3c0.3,0.9,0.6,1.7,0.7,2.6c0.2,0.8,0,1.5-0.3,2.3c-0.3-0.2-0.5-0.5-0.7-0.8
	c-0.7-0.9-1.5-1.8-2.2-2.7C7,20.4,6.6,16.9,7.8,13.1c0.3-1,0.7-1.9,1.2-2.9c-0.4,0.4-0.6,0.8-0.9,1.2c-1,1.5-1.7,3.1-2.1,4.8
	c-0.6,2.4,0,4.6,1.5,6.5c0.8,1.1,1.8,2.1,2.7,3.2C10.5,26.3,10.8,26.6,11.1,27z M17.8,33.5L17.8,33.5C17.7,33.6,17.7,33.6,17.8,33.5
	C17.7,33.6,17.7,33.6,17.8,33.5L17.8,33.5C17.8,33.4,17.9,33.6,17.8,33.5z M14.7,33.5L14.7,33.5L14.7,33.5c0,0,0,0,0,0.1
	C14.7,33.6,14.7,33.5,14.7,33.5z M14.7,32.4c-0.1-0.9-0.3-1.9-0.7-2.7c-0.2-0.6-0.3-1.1,0-1.6c0,0,0-0.1,0.1-0.1c0,0.1,0,0.1,0,0.2
	C14.6,29.5,14.6,30.9,14.7,32.4z M17.6,29.6c-0.4,1.4-0.9,2.8-1.4,4.2c0.1-0.9,0.1-1.8,0.1-2.7c0-2.4-0.5-4.8-1.6-6.9
	c-0.6-1.1-0.7-2.3-0.7-3.5c0.5,1,1.2,1.8,1.8,2.8c0.7,1.3,1.4,2.7,1.9,4.1C17.9,28.3,17.8,28.9,17.6,29.6z" />
</svg>
