<svg version="1.1" id="Layer_2" xmlns="http://www.w3.org/2000/svg" xmlns:xlink="http://www.w3.org/1999/xlink" x="0px" y="0px"
	 viewBox="0 0 443 114.8" style="enable-background:new 0 0 443 114.8;" xml:space="preserve">
<style type="text/css">
	.st0{fill:#FFFFFF;}
</style>
<path id="_x23_" class="st0" d="M60.8,67.5c1.1-0.1,2,0.1,2.7,0.7c0.7,0.6,1.2,1.3,1.4,2c0.2,0.7,0,1.5-0.4,2.2
	c-0.4,0.7-1.2,1.1-2.4,1.4c-0.1,0.1-1.7,0.2-4.6,0.4c-3,0.2-6.9,0.3-11.7,0.4c-1.7,6.7-3.4,12.9-5.2,18.6
	c-1.8,5.7-3.4,10.3-4.9,13.8c-0.4,0.9-1,1.4-1.8,1.8c-0.8,0.3-1.6,0.3-2.5-0.2c-0.9-0.4-1.4-1-1.8-1.8c-0.3-0.7-0.3-1.5,0.2-2.4
	c1.4-3.2,2.9-7.4,4.4-12.6c1.5-5.2,3.1-10.9,4.7-17.1c-2.9,0-5.9,0-9.1,0c-3.2,0-6.4-0.1-9.6-0.2c-1.7,6.7-3.4,12.9-5.2,18.6
	c-1.8,5.7-3.4,10.3-4.9,13.8c-0.4,0.9-1,1.4-1.8,1.8c-0.8,0.3-1.6,0.3-2.5-0.2c-0.9-0.4-1.4-1-1.8-1.8c-0.3-0.7-0.3-1.5,0.2-2.4
	c1.4-3.2,2.9-7.4,4.5-12.7c1.6-5.3,3.2-11.1,4.8-17.5c-1,0-1.9,0-2.9-0.1c-1-0.1-1.9-0.1-2.7-0.2c-0.9-0.1-1.6-0.5-2.2-1.2
	C5,72,4.7,71.2,4.8,70.4c0.1-0.9,0.5-1.6,1.1-2.2c0.6-0.6,1.4-0.8,2.2-0.7l6.9,0.5l4.5-19c-1.9-0.1-3.9-0.2-5.8-0.2
	c-2-0.1-3.9-0.2-5.8-0.4c-0.9-0.1-1.6-0.5-2.2-1.2c-0.6-0.7-0.9-1.4-0.8-2.3c0.1-0.8,0.5-1.5,1.1-2.1c0.6-0.6,1.4-0.8,2.2-0.7
	c2.1,0.2,4.3,0.4,6.4,0.5c2.1,0.1,4.3,0.2,6.4,0.2c1.1-4.7,2.1-9.1,3-13.3c0.9-4.2,1.7-7.9,2.3-11c0.6-3.1,1.3-6.5,2.1-10.2
	c0.3-1.1,0.9-1.8,1.6-2.3c0.7-0.5,1.5-0.7,2.2-0.6c0.7,0.1,1.4,0.5,1.9,1.1c0.5,0.6,0.7,1.5,0.5,2.7c-0.6,3.6-1.3,7-1.9,10
	s-1.4,6.6-2.2,10.7c-0.9,4.1-1.8,8.4-2.9,13c3.5,0,6.9,0,10.1,0c3.2,0,6.2-0.1,9-0.2c1.1-4.7,2-9.1,2.9-13.3c0.9-4.2,1.6-7.9,2.2-11
	c0.6-3.1,1.4-6.5,2.2-10.2c0.3-1.1,0.9-1.8,1.6-2.3c0.7-0.5,1.5-0.7,2.2-0.6c0.7,0.1,1.4,0.5,1.9,1.1c0.5,0.6,0.7,1.5,0.5,2.7
	c-0.6,3.5-1.3,6.8-1.9,9.8c-0.6,3-1.4,6.5-2.2,10.6c-0.9,4.1-1.8,8.4-2.7,12.9c2.3-0.1,4.2-0.2,5.4-0.2c1.3-0.1,2-0.1,2.1-0.1
	c1.1-0.1,2,0.1,2.7,0.7c0.7,0.6,1.2,1.2,1.4,2c0.2,0.7,0,1.4-0.4,2.1c-0.4,0.7-1.2,1.1-2.4,1.3c-0.1,0.1-1.1,0.2-2.9,0.2
	c-1.8,0.1-4.3,0.2-7.4,0.4l-4.5,19.3c4-0.2,7.3-0.4,9.7-0.5C59.4,67.6,60.7,67.5,60.8,67.5z M26.2,49.1c-0.7,3.1-1.5,6.2-2.2,9.4
	c-0.7,3.2-1.5,6.4-2.3,9.6c6.6,0.2,12.8,0.2,18.7,0c0.9-3.2,1.7-6.4,2.4-9.6c0.7-3.2,1.5-6.4,2.2-9.6c-2.8,0.1-5.8,0.2-9,0.2
	C33,49.1,29.7,49.1,26.2,49.1z"/>
<g id="Sin_popote">
	<path class="st0" d="M142.1,29.9c0.1-2.1,1.1-3.7,1-5.8c0-2.1-0.5-4.2-1.4-6.1c-0.9-1.9-2.2-3.6-4-4.9c0,0-5.6-3.5-13.6-3.4
		c-2.8,0-5.6,0.6-8.3,1.8c-2.8,1.2-5.2,2.7-7.4,4.7c-2.2,2-4,4.2-5.3,6.8c-1.4,2.6-2,5.3-2,8.2c-0.1,4.1,0.6,7.5,2,10.3
		c1.4,2.8,3.2,5.3,5.5,7.3c2.3,2,5,3.8,8,5.3c3,1.5,6.1,2.9,9.3,4.2c3.2,1.3,6.3,2.6,9.4,4c3.1,1.3,5.9,2.9,8.4,4.7
		c2.5,1.8,4.5,4,6.2,6.4c1.6,2.5,2.5,5.5,2.8,9.2c-0.2,3.7-1.2,7.1-2.9,10.2c-1.7,3.1-4,5.9-6.7,8.3c-2.8,2.4-5.8,4.4-9.3,6
		c-3.4,1.6-7,2.8-10.6,3.5c-3.7,0.7-7.3,0.9-10.9,0.6c-3.6-0.3-7-1.3-10.1-2.8c-3.1-1.5-5.7-3.6-8-6.4c-2.2-2.8-3.8-6.2-4.7-10.3
		c-0.4-1.4-0.2-2.5,0.4-3.4c0.6-0.9,1.4-1.5,2.3-1.8c0.9-0.3,1.8-0.2,2.7,0.1c0.9,0.3,1.4,1,1.6,2.1c0.3,3.5,1.6,6.5,4,8.9
		c2.4,2.4,5.3,4.1,8.7,5.1c3.4,1,7.1,1.4,11.1,1.2c4-0.2,7.7-1.2,11.2-2.8c3.5-1.6,6.6-3.9,9.2-6.9c2.6-3,4.2-6.7,4.9-11
		c0.3-2.6-0.2-4.7-1.5-6.4c-1.3-1.7-3.1-3.3-5.4-4.6c-2.3-1.4-5-2.6-8.1-3.8c-3.1-1.2-6.2-2.4-9.5-3.8c-3.3-1.4-6.5-2.9-9.7-4.7
		c-3.2-1.8-6-3.9-8.5-6.4c-2.5-2.5-4.6-5.6-6.2-9.2c-1.6-3.6-2.5-7.8-2.5-12.7c0-4.1,1.1-8,3.2-11.6c2.1-3.6,4.8-6.7,8-9.2
		c3.2-2.6,6.7-4.5,10.5-5.9c3.8-1.4,7.3-1.9,10.6-1.7c11.3,1.1,15,5.6,15,5.6c2.3,2,4.2,4.4,5.6,7.1c1.4,2.7,2.3,5.6,2.7,8.5
		c0.4,3,0.1,5.7-0.8,8.3C149,32.6,141.8,34.8,142.1,29.9z"/>
	<path class="st0" d="M162.8,37.9c-1.3,0-2.3-0.5-3.1-1.4c-0.8-0.9-1.2-2-1.2-3.1c0-1.1,0.3-2.1,0.9-2.9c0.6-0.9,1.7-1.3,3.2-1.2
		c1.3,0,2.3,0.4,3.2,1.3c0.8,0.9,1.3,1.8,1.4,2.9c0.1,1.1-0.2,2.1-0.8,3C165.7,37.4,164.5,37.9,162.8,37.9z M159.2,90.6
		c0.2-2.3,0.4-5.2,0.5-8.8c0.1-3.6,0.2-7.4,0.2-11.5s-0.1-8.2-0.2-12.3c-0.1-4.1-0.3-8-0.6-11.4c-0.4-0.5-0.2-1.1,0.5-2.1
		c0.7-0.9,1.6-1.6,2.6-2c1-0.4,2-0.4,2.9,0.2c0.9,0.5,1.4,2,1.5,4.4c0.2,2.8,0.4,5.9,0.4,9.3c0,3.4,0,6.9-0.1,10.6
		C167,70.5,167,74.2,167,78c0,3.8,0.2,7.4,0.4,11c-0.2,1.1-0.7,1.9-1.4,2.3c-0.7,0.4-1.5,0.6-2.3,0.7c-0.8,0-1.7-0.1-2.5-0.4
		C160.3,91.3,159.7,90.9,159.2,90.6z"/>
	<path class="st0" d="M174.2,39c-0.5-0.5-0.8-1.2-1.1-2c-0.3-0.8-0.3-1.6-0.2-2.3c0.1-0.8,0.4-1.4,0.9-2c0.5-0.6,1.3-0.9,2.3-1
		c1.8,0,3.7,1,5.5,2.9c1.9,2,3.8,4.5,5.7,7.5c1.9,3.1,3.8,6.4,5.7,10c1.8,3.6,3.6,7.1,5.3,10.4c1.7,3.3,3.3,6.3,4.8,8.8
		c1.5,2.6,2.8,4.3,4,5.2c0.6-3.5,0.9-7.6,0.8-12c-0.1-4.5-0.3-9-0.6-13.5c-0.3-4.5-0.7-8.7-1.1-12.7c-0.4-4-0.7-7.2-0.7-9.7
		c0-0.9,0.3-1.6,0.8-2.1c0.5-0.5,1.1-0.7,1.9-0.7c0.7,0,1.5,0.4,2.3,1c0.8,0.6,1.4,1.5,2,2.8c0,0.8,0.1,2.2,0.2,4.2
		c0.2,2.1,0.4,4.6,0.6,7.5c0.3,2.9,0.5,6.1,0.7,9.6c0.2,3.5,0.4,7,0.5,10.5c0.1,3.5,0.1,6.9-0.1,10.2c-0.1,3.3-0.4,6.2-0.8,8.6
		c-0.4,2.5-1,4.5-1.9,5.9c-0.8,1.5-1.9,2.2-3.3,2.1c-1.4,0.2-2.8-0.5-4.2-2c-1.5-1.5-2.9-3.5-4.4-6c-1.5-2.5-3-5.4-4.5-8.5
		c-1.5-3.2-3.1-6.3-4.6-9.3c-1.5-3.1-3.1-5.9-4.6-8.4c-1.5-2.6-3-4.6-4.5-6v42.1c-0.2,1-0.6,1.7-1.4,2.2c-0.8,0.5-1.6,0.7-2.5,0.6
		c-0.9-0.1-1.7-0.5-2.5-1.1c-0.8-0.6-1.1-1.6-1.1-2.9L174.2,39z"/>
	<path class="st0" d="M221.2,88.4c0.1,0.2,0.2-0.6,0.2-2.5c0.1-1.9,0.1-4.5,0.2-7.7c0-3.2,0-6.8,0-10.9c0-4.1-0.1-8.2-0.3-12.4
		c-0.2-4.2-0.4-8.2-0.7-12c-0.3-3.8-0.8-7.2-1.3-9.9c0.2-1.2,0.6-2.1,1.3-2.7c0.7-0.6,1.5-0.9,2.3-1c0.8-0.1,1.6,0.1,2.3,0.5
		c0.7,0.4,1.1,0.9,1.1,1.7c2.4-1.2,5.2-2,8.5-2.4c3.2-0.4,6.3-0.2,9.2,0.6c2.9,0.8,5.2,2.1,7,4.1c1.8,2,2.5,4.7,2.1,8.1
		c-0.4,3.2-1.4,6-3.1,8.4c-1.7,2.4-3.7,4.6-6,6.4c-2.3,1.9-4.9,3.5-7.6,5c-2.8,1.4-5.5,2.8-8.2,4.1l0.1,23.2
		c-0.1,0.8-0.5,1.4-1.2,1.8c-0.8,0.5-1.6,0.7-2.5,0.7c-0.9,0-1.7-0.2-2.4-0.6C221.4,90.2,221.1,89.5,221.2,88.4z M227.8,38.3
		c-0.2,1.1-0.2,2.7-0.2,4.6c0,1.9,0,3.9,0.1,5.8c0,2,0.1,3.8,0.2,5.4c0.1,1.6,0.2,2.7,0.3,3.2c2-0.2,4-0.8,6.1-1.8
		c2.1-0.9,4-2.2,5.8-3.7c1.7-1.5,3.1-3.2,4.2-5.2c1.1-2,1.6-4,1.5-6.2c0.3-1.9-0.2-3.2-1.6-3.9c-1.4-0.7-3.1-1.1-5.1-1
		c-2,0-4.1,0.3-6.3,0.9C230.6,37,229,37.7,227.8,38.3z"/>
	<path class="st0" d="M269.8,91.7c-2.3,0-4.4-0.8-6.1-2.5c-1.7-1.7-3.1-4-4.2-6.8c-1.1-2.8-1.8-6-2.3-9.6c-0.5-3.6-0.7-7.3-0.6-11.1
		c0.1-3.8,0.5-7.5,1.2-11.2c0.7-3.7,1.6-6.9,2.9-9.8c1.2-2.9,2.8-5.3,4.5-7.2c1.8-1.9,3.8-2.9,6-3.2c2.6-0.3,5,0.4,7,2
		c2,1.6,3.7,3.8,5.1,6.7c1.4,2.8,2.4,6.1,3.1,9.8c0.7,3.7,1,7.5,1,11.4c0,3.9-0.4,7.7-1.1,11.5c-0.7,3.8-1.8,7.1-3.3,10.1
		c-1.5,3-3.3,5.4-5.5,7.2C275.4,90.8,272.8,91.7,269.8,91.7z M271.9,37c-1.4,0-2.6,0.7-3.6,2c-1.1,1.4-2,3.1-2.7,5.3
		c-0.8,2.2-1.3,4.7-1.8,7.5c-0.4,2.8-0.7,5.7-0.8,8.6c-0.1,2.9,0,5.8,0.2,8.6c0.3,2.8,0.7,5.3,1.2,7.5c0.6,2.2,1.3,4,2.3,5.4
		c1,1.4,2.1,2.1,3.4,2.2c2.2,0.2,4.1-0.9,5.7-3.2c1.6-2.3,2.9-5.2,3.8-8.7c0.9-3.5,1.4-7.3,1.6-11.4c0.2-4.1,0-7.9-0.6-11.5
		c-0.6-3.5-1.6-6.5-3.1-8.9C276.1,38.1,274.2,36.9,271.9,37z"/>
	<path class="st0" d="M295.4,88.4c0.1,0.2,0.2-0.6,0.2-2.5c0.1-1.9,0.1-4.5,0.2-7.7c0-3.2,0-6.8,0-10.9c0-4.1-0.1-8.2-0.3-12.4
		c-0.2-4.2-0.4-8.2-0.7-12c-0.3-3.8-0.8-7.2-1.3-9.9c0.2-1.2,0.6-2.1,1.3-2.7c0.7-0.6,1.5-0.9,2.3-1c0.8-0.1,1.6,0.1,2.3,0.5
		c0.7,0.4,1.1,0.9,1.1,1.7c2.4-1.2,5.2-2,8.5-2.4c3.2-0.4,6.3-0.2,9.2,0.6c2.9,0.8,5.2,2.1,7,4.1c1.8,2,2.5,4.7,2.1,8.1
		c-0.4,3.2-1.4,6-3.1,8.4c-1.7,2.4-3.7,4.6-6,6.4c-2.3,1.9-4.9,3.5-7.6,5c-2.8,1.4-5.5,2.8-8.2,4.1l0.1,23.2
		c-0.1,0.8-0.5,1.4-1.2,1.8c-0.8,0.5-1.6,0.7-2.5,0.7c-0.9,0-1.7-0.2-2.4-0.6C295.6,90.2,295.3,89.5,295.4,88.4z M301.9,38.3
		c-0.2,1.1-0.2,2.7-0.2,4.6c0,1.9,0,3.9,0.1,5.8c0,2,0.1,3.8,0.2,5.4c0.1,1.6,0.2,2.7,0.3,3.2c2-0.2,4-0.8,6.1-1.8
		c2.1-0.9,4-2.2,5.8-3.7c1.7-1.5,3.1-3.2,4.2-5.2c1.1-2,1.6-4,1.5-6.2c0.3-1.9-0.2-3.2-1.6-3.9c-1.4-0.7-3.1-1.1-5.1-1
		c-2,0-4.1,0.3-6.3,0.9C304.8,37,303.1,37.7,301.9,38.3z"/>
	<path class="st0" d="M344,91.7c-2.3,0-4.4-0.8-6.1-2.5c-1.7-1.7-3.1-4-4.2-6.8c-1.1-2.8-1.8-6-2.3-9.6c-0.5-3.6-0.7-7.3-0.6-11.1
		c0.1-3.8,0.5-7.5,1.2-11.2c0.7-3.7,1.6-6.9,2.9-9.8c1.2-2.9,2.8-5.3,4.5-7.2c1.8-1.9,3.8-2.9,6-3.2c2.6-0.3,5,0.4,7,2
		c2,1.6,3.7,3.8,5.1,6.7c1.4,2.8,2.4,6.1,3.1,9.8c0.7,3.7,1,7.5,1,11.4c0,3.9-0.4,7.7-1.1,11.5c-0.7,3.8-1.8,7.1-3.3,10.1
		c-1.5,3-3.3,5.4-5.5,7.2C349.6,90.8,347,91.7,344,91.7z M346,37c-1.4,0-2.6,0.7-3.6,2c-1.1,1.4-2,3.1-2.7,5.3
		c-0.8,2.2-1.3,4.7-1.8,7.5c-0.4,2.8-0.7,5.7-0.8,8.6c-0.1,2.9,0,5.8,0.2,8.6c0.3,2.8,0.7,5.3,1.2,7.5c0.6,2.2,1.3,4,2.3,5.4
		c1,1.4,2.1,2.1,3.4,2.2c2.2,0.2,4.1-0.9,5.7-3.2c1.6-2.3,2.9-5.2,3.8-8.7c0.9-3.5,1.4-7.3,1.6-11.4c0.2-4.1,0-7.9-0.6-11.5
		c-0.6-3.5-1.6-6.5-3.1-8.9C350.3,38.1,348.4,36.9,346,37z"/>
	<path class="st0" d="M381.1,50.8l-12.7-0.1c-0.6-0.5-1.1-1.1-1.4-1.9c-0.3-0.8-0.4-1.6-0.3-2.4c0.1-0.8,0.3-1.5,0.7-2.1
		c0.4-0.6,0.9-0.9,1.7-1c0.6,0,1.4,0,2.5-0.1c1.1-0.1,2.2-0.1,3.3-0.2c1.2,0,2.3-0.1,3.3-0.1c1.1,0,1.9,0,2.5,0l-0.6-12.1
		c0.2-0.8,0.5-1.3,1.2-1.7c0.6-0.4,1.3-0.5,2.1-0.5c0.8,0,1.5,0.3,2.3,0.7c0.8,0.5,1.3,1.1,1.7,2l0.2,11.2l12.8-0.9
		c0.8-0.1,1.4,0.1,1.8,0.8c0.3,0.7,0.5,1.5,0.4,2.4c-0.1,0.9-0.3,1.7-0.6,2.5c-0.3,0.8-0.7,1.1-1.1,1c-0.5,0.2-1.4,0.3-2.6,0.4
		c-1.2,0.1-2.5,0.2-3.8,0.3c-1.4,0.1-2.6,0.2-3.8,0.2c-1.2,0.1-2.1,0.2-2.6,0.2l0.8,39.7c-0.1,0.8-0.4,1.3-1,1.8
		c-0.6,0.4-1.3,0.6-2,0.7c-0.8,0-1.5-0.1-2.3-0.3c-0.8-0.2-1.3-0.6-1.7-1L381.1,50.8z"/>
	<path class="st0" d="M410.7,53.8c-1.1-0.8-1.9-1.6-2.4-2.4c-0.6-0.9-0.8-1.7-0.8-2.4c0-0.8,0.4-1.4,1.1-2c0.7-0.6,1.7-0.9,3.1-1
		c0.8-1.7,1.5-3.4,2.3-5.4c0.8-1.9,1.8-3.7,3-5.3c1.2-1.6,2.7-3,4.6-4.1c1.8-1.1,4.2-1.8,7.1-1.9c1.6,0,3,0.3,4.2,0.9
		c1.2,0.6,2.2,1.4,3.1,2.4c0.8,1,1.5,2.2,1.9,3.5c0.4,1.3,0.6,2.7,0.6,4.1c0,2.9-0.6,5.3-1.9,7.2c-1.3,1.8-2.9,3.3-5,4.4
		c-2,1.1-4.3,1.8-6.8,2.1c-2.5,0.4-5,0.6-7.4,0.6c-0.2,0.5-0.4,1.5-0.5,3.1c-0.1,1.6,0,3.4,0.2,5.5c0.2,2.1,0.5,4.3,0.9,6.6
		c0.4,2.3,1,4.5,1.7,6.6c0.7,2.1,1.6,3.9,2.8,5.4c1.1,1.5,2.4,2.5,4,2.8c1.4,0.4,2.7,0.4,3.7,0c1.1-0.4,1.9-0.9,2.7-1.6
		c0.7-0.7,1.3-1.5,1.8-2.3c0.5-0.8,0.9-1.4,1.2-1.8c0.8-0.8,1.4-1.1,2-1c0.6,0.1,1.1,0.4,1.5,0.8c0.4,0.5,0.6,1.1,0.8,1.8
		c0.2,0.7,0.2,1.3,0,1.8c-0.4,1.3-1,2.5-1.9,3.7c-0.9,1.2-1.9,2.2-3,3.1c-1.1,0.9-2.4,1.5-3.8,2c-1.4,0.5-2.8,0.7-4.2,0.7
		c-3.2,0-6-1.3-8.2-3.9c-2.2-2.6-4-5.8-5.3-9.7c-1.3-3.8-2.2-8-2.7-12.3C410.4,61.4,410.3,57.4,410.7,53.8z M432.4,39.9
		c-0.2-2.5-1.1-3.9-2.5-4.3c-1.4-0.4-3-0.1-4.6,0.8c-1.6,0.9-3.1,2.4-4.5,4.2c-1.4,1.9-2.2,3.8-2.4,5.9c1,0.3,2.3,0.5,3.8,0.5
		c1.6,0,3.1-0.2,4.6-0.7c1.5-0.5,2.8-1.2,3.9-2.3C431.9,43,432.4,41.7,432.4,39.9z"/>
</g>
</svg>
