<svg version="1.1" id="Layer_2" xmlns="http://www.w3.org/2000/svg" xmlns:xlink="http://www.w3.org/1999/xlink" x="0px" y="0px"
	 viewBox="0 0 792 83.7" style="enable-background:new 0 0 792 83.7;" xml:space="preserve">
<style type="text/css">
	.st0{clip-path:url(#SVGID_2_);}
	.st1{clip-path:url(#SVGID_4_);}
	.st2{fill:#13BCEF;}
	.st3{fill:#1FBFF1;}
	.st4{fill:#FCFDFD;}
	.st5{fill:#F9FCFD;}
	.st6{fill:#00A2DE;}
	.st7{fill:#00A6E0;}
	.st8{fill:#EDF8FA;}
	.st9{fill:#EEF8FA;}
	.st10{fill:#009BDD;}
	.st11{fill:#08C1E7;}
	.st12{fill:#AEE0EA;}
	.st13{fill:#ACDFEA;}
	.st14{fill:#A8DEE8;}
	.st15{fill:#F8FCFA;}
	.st16{fill:#00C2F0;}
	.st17{fill:#00B8EE;}
	.st18{fill:#ADDFE9;}
	.st19{fill:#17C1E4;}
	.st20{fill:#AADEEA;}
	.st21{fill:#00BFEA;}
	.st22{fill:#2DC3EA;}
	.st23{fill:#8ED3D5;}
	.st24{fill:#12C1E3;}
	.st25{fill:#12C0E0;}
	.st26{fill:#05C0E1;}
	.st27{fill:#A9DEE9;}
	.st28{fill:#A7DDE7;}
	.st29{fill:#00BAEF;}
	.st30{fill:#F7FCFC;}
	.st31{fill:#A7DDE8;}
	.st32{fill:#88D2D5;}
	.st33{fill:#F6FBFA;}
	.st34{fill:#00BEDD;}
	.st35{fill:#F4FAFA;}
	.st36{fill:#FAFDFD;}
	.st37{fill:#00BCE6;}
	.st38{fill:#A3DCE6;}
	.st39{fill:#A6DDE7;}
	.st40{fill:#00BDE1;}
	.st41{fill:#A4DCE6;}
	.st42{fill:#A4DCE7;}
	.st43{clip-path:url(#SVGID_6_);}
	.st44{clip-path:url(#SVGID_8_);}
</style>
<g id="Olas">
	<defs>
		<rect id="SVGID_1_" y="-12.2" width="792" height="108.1"/>
	</defs>
	<clipPath id="SVGID_2_">
		<use xlink:href="#SVGID_1_"  style="overflow:visible;"/>
	</clipPath>
	<g class="st0">
		<defs>
			
				<rect id="SVGID_3_" x="-132.7" y="-1.7" transform="matrix(-1 4.490351e-11 -4.490351e-11 -1 105.9675 84.8493)" width="371.4" height="88.3"/>
		</defs>
		<clipPath id="SVGID_4_">
			<use xlink:href="#SVGID_3_"  style="overflow:visible;"/>
		</clipPath>
		<g id="xsDX5g_3_" class="st1">
			<g>
				<path class="st2" d="M-164.7,60.2c7.2,0.5,13.9-1.9,20.5-4.2c2.1-0.7,3.3-0.9,4.8,1.1c2.1,2.9,5.3,4.6,8.3,6.6
					c3,3.8,7.3,4.4,11.8,4.6c1.2-0.6,2.4-0.9,3.9-0.6c2.9,0.6,3.7-0.6,2.9-3.6c-2.9-1.8-6.5-1.6-9.4-3.3c-2.6-1.5-5.3-2.7-7.6-4.7
					c2.1-0.1,4,0.6,5.9,1.3c2.1,0.7,4.1,1.6,6.4,1.6c2,0,3.7-0.7,3.9-3c0.2-2.2-1.3-3.3-3.2-3.8c-1.7-0.5-3.7,0.2-5.6-1
					c1.6-0.5,3.3,0,4.6-0.8c1.8-1.5,4.1-1.1,6.1-1c7.7,0.3,15.3-1.5,23.1-1.3c0.4,0,0.8,0,1.1-0.1c1.3-0.4,2.8-0.7,2.8-2.4
					c0-1.5-1.2-2.1-2.4-2.5c-1.1-0.4-2.2-0.8-3.4-0.7c-2.4,0.1-4.6-0.5-6.8-1.3c-3.3-0.9-6.4-2.4-9.7-3.4c-2.3-0.7-4.5-0.7-6.7,0.2
					c-4.8,1.9-9.7,3.4-14.7,4.9c-1,0.3-2.1,0.4-3.1,0.5c-3.9,0.5-7.9-0.2-11.8,0.7c-3.4,0.8-7.1,0.3-10.4,2c-2.1,1-4.6-0.4-6.4-3.1
					c0.9-0.7,2-0.4,3-0.4c9.5,0.4,18.8-0.9,28.2-1.5c1.2-0.1,2.3-0.1,3.5,0.1c1.6,0.4,3.1-0.1,4.5-0.8c3.9-1.8,7.9-3.6,11-6.6
					c1-1.5,2.2-2.9,2.8-4.6c0.5-1.2,0.9-2.4-1-2.9c-2.1,0.1-3.8,1.4-5.4,2.5c-2.3,1.7-4.4,1.3-6.6-0.1c-3.2-2.1-6.5-4.1-10-5.6
					c-1.2-0.7-2.5-0.9-3.8-1c-5.2-2.3-11.3-2.7-15.8-6.7c-0.8-0.7-2-0.8-3-0.6c-3.6,0.8-7.1,1.6-10.7,2.4c-0.7,0.2-1.1,0.7-1.6,1.1
					c0,1,0,1.9,0,2.9c0.8,1.5,1.5,3,3.6,3c5.1-0.3,10.2,0.2,15.2,1.5c0.9,0.2,2,0.5,2.7,1.1c3.6,3.2,8,4.5,12.4,5.8
					c0.5,0.1,1.2,0.3,1.4,1.1c-1.2,1.1-2.6,0.6-3.9,0.2c-4.7-1.3-8.7-4-13.1-6c-3.2-1.4-6.4-2.9-10-1.8c-0.5,0.3-1,0.6-1.3,1.1
					c-0.2,1.8,1.4,2,2.4,2.7c2.2,1.4,5.1,1.5,7.4,3.4c-1.3,0.9-2.7,0.9-3.8,1.6c-1,1-2.2,1-3.5,0.6c-2-0.6-4.1-0.9-6.1-1.8
					c-1.1-0.5-2.2-0.9-3.2,0.1C-164.7,42.5-164.7,51.3-164.7,60.2z"/>
				<path class="st3" d="M246.7,52.1c7.7,1.2,15.5,1.1,23.2,0c0-7.5,0-15,0-22.5c-0.7-0.8-1.7-1.1-2.8-1.3
					c-3.8-0.5-7.6-0.2-11.4,0.3c-1.1,0.2-1.8-0.3-2.7-0.7c-1-0.3-2.2-0.3-2.7,0.5c-1.1,2-2.5,1.2-3.7,0.7c-4-1.8-8.6-2.2-11.9-5.4
					c-1.1-1.1-2.8-0.7-4.2-0.3c-3.5,0.9-7.1,1.6-10.7,2.2c-2.6,0.5-3.2,2-1.5,4c1.2,1.4,2.6,2.6,4.4,3c5.9-0.5,11.7,0.2,17.3,1.9
					c0.6,0.2,1.3,0.5,1.7,1c2.5,2.5,5.7,3.6,8.9,4.5c1.5,0.4,2.9,0.9,4.2,2c-1,1.1-2,0.7-3,0.6c-3.2-0.4-6.1-1.7-8.9-3.3
					c-1.1-0.6-2.2-1.3-3.5-1.2c-1.4,0.7-2.7,0.6-4.1-0.1c-1.1-0.6-2.2-0.6-3.2,0.3c-0.4,0.6-1,0.7-1.8,0.7c-7.8,0.1-15.7-0.4-23.5-1
					c-4.3-0.3-8.6,0.4-12.9,0c-0.9-0.1-2,0.2-2,1.6c0.8,1.5,2.2,1.6,3.7,1.7c3.5,0.1,6.9,0.7,10.2,1.7c3.4,1.1,7.1,0.8,10.6,1.1
					c8.7,0.6,17.4,1.9,26.1,2.4c1.5,0.1,2.4,0.7,2.1,2.3c-0.2,1.1,0,2.1,1.1,2.7C246.2,51.7,246.4,51.9,246.7,52.1z"/>
				<path class="st4" d="M222.9,31.9c-1.9-1.2-3.5-2.7-5.2-4.8c5.3-0.6,10.3-1.7,15.1-3c0.5-0.1,1,0.1,1.3,0.5
					c1.9,2.8,5.1,3.3,7.9,4.3c2.8,0.9,5.7,1.7,8.7,2.6c-1.7-3.2,1.2-2.3,2.3-3c0.9,0.8,1.8,0.4,2.7,0c4.4-2.3,8.5-5.1,12.4-8.1
					c0.8-0.6,1-1.6,1.7-2.3c0-3.5,0-6.9,0-10.4c-1.4,1.5-2.7,3.1-4.1,4.6c-0.9,0.2-1.6,0.7-2.2,1.3c-3.5,3.8-7.5,7.2-11.7,10.2
					c-3.9,3.4-5.4,3.5-10-0.3c-1.7-1.5-3.7-2.7-5.5-4.1c-2.4-1.9-4.5,0.1-6.7,0.8c-1,0.4-2.1,0.8-3.1,1c-3.1,1.1-6.4,1.1-9.2,1.4
					c1.7-0.8,4.3,0.6,6.2-1.1c-0.7-2.5-3.2-1.3-4.7-2.4c-1.6-0.1-3.1-0.6-4.5-1.2c-1-0.3-2.1-0.3-3.1-0.7c-4.6-1.5-8.9-1-13.1,1.4
					c-2.5,1.7-5.5,2-8.2,3.3c-1.1,0.5-2.4,0.8-2.7,2.2c1.3,2,3.2,1.4,4.9,1.1c3.9-0.8,7.7-1.7,11.2-3.5c-3.2,3.8-7.1,6.7-11.2,9.3
					c-2.9,2.3-6.2,3.9-9.5,5.7c-1,0.4-1.9,1.3-3.1,1.3c-1,0-2.1,0.5-2,1.6c0.1,1.3,1.4,1.5,2.4,1.5c3.6,0,7-0.9,10.2-2.4
					c5.8-1.2,10.5-4.8,15.4-7.7c2.5-1.5,4.5-1.9,7.1-0.3c3.2,1.9,6.6,3.5,10.1,5c1.3,0.5,2.6,1.4,4.1,0.4
					C227.4,33,225.1,32.6,222.9,31.9z"/>
				<path class="st5" d="M-164.7,18.1c4.2-0.1,8.2-1.2,12.2-2.3c1.3-0.3,2.2-0.4,3.2,0.9c1.6,2.1,4.2,2.6,6.6,3.4
					c3.1,1,6.3,1.8,9.4,2.7c1.7-1.1,0.3-2-0.4-2.6c-1.4-0.9-2.5-2.4-4.4-2.5c-1-0.1-1.6-1-2.2-1.7c-2.1-1.6-4.5-2.9-6.5-4.7
					c-0.7-0.6-1.7-1.3-2.6-1.1c-4,0.9-8.3,1-11.7,3.9c-1.1,0.9-2.3,0.3-3.5,0.5C-164.7,15.8-164.7,16.9-164.7,18.1z"/>
				<path class="st6" d="M269.9,18.1c-2,0.5-3.3,2.1-4.9,3.2c-3.9,2.5-7.5,5.4-11.9,7.2c-0.4,1.4,0.6,1.6,1.4,1.4
					c5.1-1,10.2-0.4,15.4-0.3C269.9,25.8,269.9,21.9,269.9,18.1z"/>
				<path class="st7" d="M-151.4,35.4c1.2-0.2,2.4-0.4,3.7-0.6c0.7-0.1,1.6-0.2,1.8-1.2c0.1-0.9-0.7-1.3-1.3-1.7
					c-3.3-2-7.2-2.4-10.4-4.5c-1.5-2.2-4.8-3.6-6.9-3c0,1.9,0,3.8,0,5.8C-162.5,33.4-155.4,36.2-151.4,35.4z"/>
				<path class="st8" d="M-151.4,35.4c-4.6-1.2-9-3.2-13.3-5.2c0,1.2,0,2.3,0,3.5c3.3,1.2,6.5,2.8,10.2,2.7
					C-153.3,36.3-152,36.8-151.4,35.4z"/>
				<path class="st9" d="M-164.7,24.4c2.3,1,4.6,2,6.9,3c0.4-0.1,1,0,1-0.7c-0.5-2.4-2.5-2.9-4.5-3.5c-1.2-0.8-2.3-1.5-3.5-2.3
					C-164.7,22.1-164.7,23.3-164.7,24.4z"/>
				<path class="st10" d="M-164.7,74c0.9-2.7,0.9-5.4,0-8.1C-164.7,68.6-164.7,71.3-164.7,74z"/>
				<path class="st11" d="M-119.4,67.5c14.9,3.1,28.6-0.6,41.7-7.3c1.9-1,2.9-0.9,4.2,0.9c4.7,6.1,10.2,11.1,17.8,13.5
					c5.1,0.7,10.2,1.7,15-1.1c1.1-0.6,2.2-1.1,2.6-2.4c-0.3-2.3-2.8-1.5-3.6-2.6c-0.8-1.1,1-3.2-1.3-4.1c-2.7,0.6-5.4,1.4-8.2,1.7
					c-4.3,0.5-7.6-1.7-11.2-3.1c-0.5-0.2-0.8-0.8-1.2-1.2c-0.5-0.7-0.8-1.4-0.1-2.1c0.7-0.6,1.3,0,1.8,0.4c3.1,2.5,6.5,4.2,10.6,3.6
					c1.7-0.3,3.5-0.4,4.6-2c0.4-2.6-1.8-1.7-3-2.3c2-3.5,1.5-5-2.3-6c-1.2-0.3-1.5-1-1.7-2c-0.7-1.5-2.1-1.9-3.4-2.5
					c-1.4-0.5-2.6-1.2-3.4-2.8c2-0.3,3.4,0.6,4.6,1.6c5,4,10.6,3,16.3,1.9c1.1-0.2,2.1-1,2.3-2.3c0.2-1.3-0.6-2.1-1.7-2.7
					c-2.6-1.5-5-3.5-8.1-4.2c1.2,0.2,2.4,0.6,3.5,0c2.6-0.9,5.1-1.5,7.9-0.8c0.9,0.2,2,0.3,2.9,0c3-1,6.1-0.9,9.1-1
					c1.9-0.1,4.6,0,4.8-2.5c0.2-2.5-2.4-2.7-4.1-3.2c-2.7-0.7-5.3-1.6-8-2.4c-1.8-0.5-3.6-0.6-5.3,0.2c-3.4,0.8-6.9,0.6-10.3,0.7
					c-7.8,0.3-15.5,0.7-23.2,1.5c-1,0.1-1.9-0.2-2.9-0.2c-0.6,0.1-1.3,0.1-1.3,0.1c3.3-0.2,6.7-1.8,10.2-3.4c0.9-0.4,1.9-1,1.8-2.3
					c-0.8-1.7-2.3-1.9-3.8-1.9c-3.5,0.1-7-0.5-10.4-1.1c-1.9,0.4-3.8,0.1-5.7-0.4c-0.3-0.1-0.7,0-1,0c-4.2,0.7-8.2-0.8-12.2-1.2
					c-3.2-0.4-5.8-0.3-8.2,1.8c-0.5,0.4-1.2,0.5-1.7,1.1c-0.7,0.8-0.6,1.6-0.1,2.4c1.6,2.3,1.3,4.4-0.4,6.5c-0.4,0.4-0.5,1-0.5,1.6
					c0.7,2.5,2.7,3.3,5,3.7c6.2-0.8,12.3-0.3,16.8,1.1c-3.1-0.7-7.6-0.9-12.2,0c-0.6,0.3-0.9,0.8-1,1.5c3,1.3,6.3,1.4,9.5,2.2
					c1,0.3,2.8,0.2,2.7,1.5c-0.1,1.1-1.9,1.1-3,1.2c-3.7,0.1-7.5-0.1-11.2,0.7c-5.2,1.1-10.6,0-15.8,1c-1.2,0.2-2.2,0.6-3.2,1.3
					c0,1.3,1,1.5,1.9,1.7c3.3,0.7,6.4,2,9.4,3.5c3.7,1.8,7.5,1.4,11.3,0.2c3.8-1.1,7.3-2.9,11.4-4.2c-2.3,1.6-4.6,2.4-6.8,3.3
					c-0.8,0.3-1.6,0.7-2.2,1.3c-1.4,1.3-1.1,2.6,0.7,3.2c0.3,0.1,0.6,0.1,0.8,0.2c1.1,0.1,2.1,0.1,2.6,0c-6.5,2.4-13.8,3.8-21.4,4
					c-1,0-1.9,0.2-2.4,1.3c0.5,2.2-0.1,3.2-2.6,2.5C-116.9,66.4-118.5,65.8-119.4,67.5z"/>
				<path class="st12" d="M-113.1,64.3c9.9,0.1,19.3-1.8,29-5.9c-3.4-1.2-6.5,0-9.7-0.9c1.6-1.8,3.7-2,5.4-2.9c2-1,4-1.9,6-2.9
					c0.6-0.3,1.2-0.8,0.9-1.6c-0.3-0.8-1-0.7-1.7-0.6c-3,0.3-5.6,2.1-8.4,3c-2.3,0.7-4.6,1.6-6.9,2.2c-2.3,0.6-4.7,0.8-6.8-0.3
					c-4.1-2.2-8.5-3.6-13-4.5c-1.3,0-2.7-0.1-4,0c-1,0-2.4,0-2.5,1.3c-0.1,1,1.2,1.3,2.1,1.6c1.5,0.4,3,0.6,4.5,0.7
					c0.9,0,1.9,0.2,2.8,0.5c1,0.4,1.4,1.3,1.2,2.3c-0.2,1-0.8,1.5-1.7,1.7c-1.1,0.2-2.3,0.2-3.4-0.2c-3.1-1-6.2-2.1-9.3-3.1
					c-1-0.3-2.2-1.4-3.1-0.1c-1,1.4,0.3,2.4,1.3,3C-125.1,60.8-119.8,64.3-113.1,64.3z"/>
				<path class="st13" d="M-124.7,40c-10.3-0.6-20.5,1.7-30.9,1.3c-2.4-0.1-5-0.4-7.8,0.8c1.7,1.1,2.8,2.4,4,3.5
					c2.2,2.2,5.1,2.5,7.8,0.9c1-0.6,2-0.7,3.1-0.7c5.2-0.3,10.3-1.3,15.5-1.2c0.6,0,1.3-0.3,1.9-0.5c0.9-1.5,2.7-0.9,3.9-1.6
					C-126,41.9-124.2,42-124.7,40z"/>
				<path class="st14" d="M-161.2,23.2c1,1.8,2.9,2.5,4.5,3.5c5.2-0.5,9.5,2,13.9,4.2c2.5,1.3,4.9,2.7,7.6,3.6
					c0.9,0.3,1.8,0.7,2.8,0.8c2,0.2,4.7,0.7,5.2-1.7c0.4-2.1-2.3-2.2-3.8-2.7c-3.8-1.3-7.5-2.3-10.8-5.1c-3.3-2.8-8-2.6-12.2-3
					C-156.4,22.6-158.9,22.3-161.2,23.2z"/>
				<path class="st15" d="M-124.7,40c-2.1,2.3-5.5,1.9-8,3.6c0.5,0.7,1.2,0.3,1.7,0.5c6.4-0.8,12.5-2.9,18.4-5.3
					c1.7-0.7,3.2-0.8,5-0.2c3.3,1.2,6.7,2.2,10.1,3.2c0.5-0.1,1-0.1,1.3-0.7c-0.7-2.4-3.1-2-4.8-2.8c-1.9-0.5-3.4-1.4-4.6-2.9
					c-0.9-2.1-2.3-3.3-4.8-2.4C-114.8,35.8-119.1,39.2-124.7,40z"/>
				<path class="st12" d="M-110.3,33c1.9,0.2,2.9,2.1,4.8,2.4c3.7-3.2,3.8-5,0.6-9.8c-0.1-0.4-0.3-0.6-0.7-0.6
					c-0.7,0.6-1.5,1.1-2.2,1.7c1.3,0.4,0.5,1.2,0.2,1.7C-108.5,30-109.4,31.5-110.3,33z"/>
				<path class="st16" d="M195.9,66.6c2.5-0.5,4.5-1.9,5.6-4.1c0.9-1.9,2-2.1,3.8-1.8c5.6,0.8,11.2,1.5,16.9,1.9
					c6.7,0.4,11.2-2.6,14.7-7.9c0.7-1,1.4-2.1,2-3.2c0.6-1.3,1.4-1.6,2.8-1c1.6,0.7,3.3,1.1,5,1.3c-1-1-1.1-2-0.4-3.4
					c1.1-2.2,0.2-3-2.2-3.2C234,44.3,224,43,213.9,42.5c-7.3-0.4-14.3-2.9-21.6-3.1c-0.5-0.7-1.2-1.1-1.8-1.7
					c-3.9,1-7.7,2.6-12.6,2.1c2.2-0.9,3.9-1.6,5.5-2.2c0.1-1.3-1-1.5-1.9-1.7c-5.4-0.9-10.7-0.8-16.1-0.6c-1.9,0.1-3.5,1.1-4.9,2.2
					c-1.4,1.1-1.9,2.7-1.3,4.4c0.8,2.2,1.5,4.7,4.4,5.1c0.9,0.1,1.7,0.1,2.6,0.1c2.8-0.3,4.9-2.1,7.4-3.2c1.5-0.7,2.7-0.7,4.1,0.3
					c3.9,2.8,8.2,4.9,11.7,5.8c-2.8-0.9-6.6-2.5-10.6-3.6c-2.2-0.6-4.3-0.7-6.5,0.1c-3.9,1.3-7.9,2.6-11.9,3.6
					c-2.8,1.6-6.2,0.8-9.1,2.2c-1.6,0.8-4.1,1.1-3.8,3.3c0.4,2.4,2.9,1.5,4.6,1.7c3.7,0.5,7.4,0.5,11.1,1.4
					c3.8,0.9,7.6,0.4,11.5,0.9c5.8,0.7,11.6,1.6,17.4,1.6c1.6,0,1.6,1.3,1.6,2.5C193.7,65.2,193.7,66.7,195.9,66.6z"/>
				<path class="st17" d="M190.5,37.7c0,1.2,0.6,1.7,1.8,1.7c1.5-1.2,2.9,0.1,4.4,0c8.2-0.3,16.4,0.1,24.6,0.9
					c3.4,0.3,7,0.1,10.5-0.1c1.4-0.1,1.6-0.8,1-1.9c-0.9-1.9-3-1.6-4.6-2.3c-0.4-0.1-0.8,0-1.2,0.1c-5.4-1.8-10.3-4.6-15.3-7.2
					c-1.7-0.9-2.9-1-4.7,0.1c-4.4,2.8-9.1,5.3-13.6,7.9C192.5,37.3,191.6,37.7,190.5,37.7z"/>
				<path class="st18" d="M227,36c0.2,0.2,0.4,0.4,0.6,0.6c2.8-0.6,5.3,0.5,7.7,1.4c1.3,0.5,2.5,0.8,3.9,0.8c4,1.6,7.4,4.5,11.9,4.9
					c2.1,0.2,4.9,1.3,5.5-1.3c0.6-2.3-2.4-2.5-4-3.1c-3.8-1.3-7.4-2.5-10.7-5.2c-3-2.5-7.4-2.4-11.3-2.7c-2.6-0.2-5.2-0.6-7.7,0.4
					C224.3,33.3,225.7,34.6,227,36z"/>
				<path class="st16" d="M239.3,38.8c-2.8-2.2-6.2-2.9-9.7-3.5c-1-0.2-2-0.2-1.9,1.2c1.6,0.9,3.3,1.6,5.2,1.7
					c1.8-0.1,2.9,1.2,4.4,1.8C238.8,40.6,238.9,39.7,239.3,38.8z"/>
				<path class="st19" d="M127.4,19.8c-2.4,0.4-4.7,0.7-7.1,1.1c-0.6,1-1.5,0.5-2.3,0.6c-0.9,0.1-1.5,0.4-1.5,1.4
					c0,1.1,0.7,1.5,1.6,1.6c1,0.2,2.1-0.5,3,0.4c1.9,1.1,2.8,3.1,4.1,4.7c1.1,1.3,2,2.8,3.8,3.4c4.5,1,8.8-0.4,13.1-1.3
					c9.6-2.1,19-1.5,28.6,0.3c5.7,1,11.7,1,17.5,1c1.6,0,3.2-0.5,4.7-1.1c5.2-2.4,9.1-6.6,13.2-10.5c0.3-0.3,0.7-0.8,0.3-1.2
					c-0.3-0.3-0.9-0.5-1.3-0.4c-0.7,0.2-1.4,0.5-2.1,0.8c-4.9,2.2-9.9,3.8-15.3,3.7c-6.5,0.4-12.8-0.3-18.8-2.8
					c-2.4-1-5-0.1-7.3-1.1c-0.4-1-1.3-1-2.1-1.3c-1.3-0.5-2.6-0.6-3.8-1.2c-4.6-2.2-9-1.9-13.8-0.2
					C137.2,19.6,132.2,19.6,127.4,19.8z"/>
				<path class="st20" d="M192.8,32c-9.5-0.5-19.1,0-28.4-2.2c-4.6-1.1-9.4-1.2-14.1-0.6c-6.2,0.8-12.3,2-18.5,3
					c-1.2,0.2-2.3,0.3-3.4-0.2c-0.3,3.1,2,4.3,4.1,5.5c4-0.1,8,0.3,11.8,1.7c3.5,1.2,6.2,3.3,6.6,7.5c0.2,2.6,2.4,3.9,6.6,4.3
					c2.5-1.2,5.3-1.4,7.7-2.9c0.8-0.5,1.9-0.6,1.5-1.9c-4.4,0.1-5.8-0.9-6.8-5.1c-0.3-1.1,0.3-1.9,1.1-2.5c1.1-0.9,2.4-1.8,3.9-1.9
					c6.2-0.5,12.5-0.5,18.6,0.9C186.9,36.3,190,34.3,192.8,32z"/>
				<path class="st21" d="M243.2,23.9c-0.6,0-1.2,0-1.6,0.5c0.8,0.6,1.6,1.3,2.5,1.9c3.4,2.3,5.9,1.8,8.5-1.8
					C249.4,24.2,246.2,25,243.2,23.9z"/>
				<path class="st22" d="M226.9,22c-1-0.8-2.2-0.3-3.3-0.5c-2.8,0-5.5,0-8.3,0c-0.6,0-1.8-0.6-1.8,0.7c0,0.7,0.7,1.6,1.8,1.6
					c1.4-0.1,2.9-0.2,4.3-0.4C222.1,23.1,224.5,22.9,226.9,22z"/>
				<path class="st23" d="M218.8,20c0.5-0.4,0.9-0.8,1.9-1.7c-2.6,0.4-4.5,0.1-6.4,0.9C215.8,19.4,217.3,19.7,218.8,20z"/>
				<path class="st24" d="M110.6,65.9c8.2,4,16.9,6.2,26.1,6.4c1.1,0.3,2.3,0.4,3.4-0.1c5.8-1,11.7-2,17.4-3.8
					c0.6-0.2,1.2-0.5,1.8-0.8c3.5-1.7,7-3.5,10-6.2c1-0.9,2.1-0.8,3.2-0.3c2.9,1.3,5.7,2.8,8.6,4c3.6,1.5,7.4,2.6,11.4,2.5
					c1.3,0,2.5-0.1,3.5-1.1c-1.1-0.6-1.2-1.5-1-2.7c0.7-4-0.1-4.7-4-4c-0.7,0.1-1.6,0.3-2.3,0.2c-7.6-1.4-15.4-1.6-23.1-2.4
					c-5.8-0.6-11.5-1.5-18.1-1.8c4.4-3.4,9.2-3.5,13.5-4.7c-0.7-1.7-2.1-1.1-3.4-0.9c-1.1-0.4-2.2-0.8-3.3-1.1
					c-1.6-0.5-2.5-1.2-2.2-3.2c0.4-2.8-1.8-4.7-3.8-6c-4.7-3.1-10-4.1-15.6-2.9c-0.3,1.8,1.3,2.3,2.3,3.3c0.9,0.8,2.1,1.3,2.4,2.6
					c-0.3,1.6-1.7,1.1-2.5,1.1c-5.3-0.2-10.7,0.7-16,0c-0.7-0.1-1.3,0-1.9,0.3c-0.6,0.4-0.9,1-1.1,1.7c-0.5,2.3-2,3.5-4.2,4.3
					c-3.8,1.4-4.4,3.5-1.9,6.7c2.2,2.8,5.1,4.6,8.4,5.8c2.3,0.9,4.8,1.4,7.3,2.3c-4.1-0.8-7.9-2.1-11.5-3.9
					c-1.4-0.7-2.9-1.7-4.5-0.1C108.3,62.9,109.3,64.4,110.6,65.9z"/>
				<path class="st9" d="M-82.4,24.4c-2.8-1.2-5.8-1.1-8.7-1.9c-1-0.3-2-0.7-3-1c-0.3,0-0.6,0.1-0.9,0c-4.7-2.1-7.7,0.9-10.8,3.5
					c0.2,0.2,0.4,0.4,0.7,0.6c4-3.3,8.5-3,13.2-2C-88.7,24.3-85.5,24.6-82.4,24.4z"/>
				<path class="st25" d="M30.1,21.5c-3.1-1.3-6.5-0.3-9.7-0.9C14.1,19.6,7.8,18.9,1.5,18c-5.9-0.7-11.8-1.6-17.6-2.7
					c-2.8-0.6-5.2,1.2-7.6,2.4c-2.4,1.1-4.9,1.5-7.3,2.5c-1.8,0.7-3.4,2.2-5.6,1.8c-1.1-0.2-1.1,1-0.8,1.7c0.9,1.9,0,3.5-0.8,5.2
					c-0.2,1.2,0.7,1.6,1.5,2c0.2,0.2,0.4,0.3,0.6,0.5c1.6-0.6,3.1-0.4,4.7,0.1c3.5,1.1,7,2.1,10.5,3.1c0.6,0.2,1.5,0.3,1.3,1.2
					c-0.1,0.7-0.8,0.6-1.4,0.8c-1.8,0.5-3.6,0.6-5.4,0.5c-2-0.1-4,0-6,0.8c-1.2,0.5-2.4,0.4-3.7,0.1c-3-0.7-5.7-0.2-8.3,1.5
					c-0.2,1.1,0.2,1.9,1.1,2.4c2.8,1.7,5.5,3.5,9.2,3.5c3.5,0,7,0.2,10.4,1.7c2.4,1,5.1,0.4,7.7,0.2c4.6-0.3,9-2.1,13.6-1.7
					c4.9-1.1,9.5-3,12.8-7c0.5-2.5,1.9-2.9,4-1.7c1.8,1,3.6,1,5.6,1.1c3.5,0.1,7,0.8,10.5,1.1c5.9,0.5,11.7,0.3,17.6,0.4
					c0.7,0,1.3,0,2,0.2c2.5-0.6,1.9-2.6,1.7-4.2c-0.2-2-0.7-4.1,0.3-6.7c3.2,4.6,7.7,6.8,11.9,9.4c1.3,0.8,2.6,1.7,4.3,0.9
					c0.7-0.6,1.3-1.4,2.4-1.4c2.9,0.1,5.6-1.1,8.5-1.3c1.2-1.1,2.8-1.4,4.4-1.3c0.8,0,1.7,0.3,2.4-0.4c0-3-2.4-5.5-5.7-6.1
					c-1.5,0.9-2.7,0.1-4-0.4c-2.7-1.1-5.1-3-8.2-3.1c-1.1,0.1-2.3,0.9-3.3-0.3c-0.3-0.2-0.5-0.2-0.8-0.3C54.9,24.8,46,26.3,37.1,25
					c-2.1-0.3-4.2,1-6.2-0.5c-1.6-0.6-3,0-4.4,0.7c-2.1,0.9-4.2,1.6-6.5,2c2.7-0.5,5.4-1.3,7.8-2.7C28.9,23.8,30.3,23.3,30.1,21.5z"
					/>
				<path class="st26" d="M-38.3,70.5c1.3-0.7,2.9-1.2,4-2.2c2.5-2.1,4.2-1.6,6.5,0.7c9.1,8.7,20.1,10,31.9,6.9
					c5.4-1.4,10.5-3.6,15-7.1c0.2-1.5-0.8-1.6-1.8-1.4c-1.1,0.3-1.8-0.5-2.6-0.8c-2-0.4-3.6,0.7-5.1,1.6c-4.2,2.7-8.8,2.6-13.4,2.1
					c-3-0.3-6.2-0.7-9.6-2.4c2.9-1.1,5.2-0.4,7.1,0.6c7.5,3.9,12.9-0.7,18.4-4.4c0.9-0.6,1.4-1.7,0.9-2.8c-0.4-1.1-1.4-1.5-2.5-1.6
					c-1.6-0.2-3,0.3-4.5,1c-4.1,2-8.3,2.1-12.8,1.5c1.5-1.2,4.5-2.1,8-2.6c4.1-0.6,8.2-1.1,12.2-2.2c0.7-0.2,1.6-0.2,2.2-0.8
					c2.4-2.5,4.5-1.8,6.5,0.4c5.4-0.9,10.7-2.2,16.2-2.6c1.2-0.1,2.3-0.6,2.6-1.9c0.3-1.4-0.7-2.2-1.8-2.7c-2.3-0.9-4.4-2.3-6.9-2.8
					c-0.9,0.1-1.8,0.2-2.7,0.2c-0.8,0-1.7,0.4-2.4-0.5c-2.7-2.4-6.4-2.4-9.5-4c-3.3-1.7-6.5-1.5-10-0.1C3.1,44.4-1.3,46.2-6,47.3
					c-3.2,0.7-6.4,1.3-9.7,0.6c-7.5,0.5-15,1.6-22.6,1.9c-4.4,0.2-8.8,0.5-13.2,0.5c-1,0-1.9,0.2-2.5,1.2c-0.4,0.7-1.9,0.6-1.4,1.8
					c0.3,0.8,1.2,0.9,1.9,1c0.8,0.1,1.5,0,2.3,0.1c1,0.1,1.5,0.8,1.7,1.7c0.2,0.9-0.3,1.4-1.1,1.8c-0.9,0.4-2,0.8-1.3,2
					c0.6,1.2,1.6,1.6,2.9,0.7c0.9-0.6,1.6-0.7,2,0.6c1,1.4,2.5,0.4,3.8,0.6c0.6,0.9-0.6,2,0.3,2.9c1.4,2.2-0.9,3.5-1.5,5.6
					C-42.2,69.7-40.3,69.9-38.3,70.5z"/>
				<path class="st27" d="M-54,51.5c13,0.4,25.9-1.1,38.8-2.3c3.4-0.6,6.8-1,10-2c1.3-0.4,3.2-0.4,3.3-2.5
					c-4.8-0.1-9.5,1.1-14.3,1.4c-3.2,0.2-6.1,0.5-9.2-1c-2.5-1.1-5.6-1-8.5-0.9c-4.3,0.1-7.6-1.7-10.4-4.7c-1.6,0-3.3,0-4.9,0
					c-0.1,0.2-0.1,0.4-0.2,0.5c2.2,1.1,4.4,2.2,6.6,3.4c1.2,0.6,2.3,1.3,3.5,2.1c0.6,0.4,1.5,0.7,1.3,1.7c-0.2,0.8-1.1,1.1-1.8,1.2
					c-5.5,1.1-11,2.2-15.8-2.2c-1.4-1.3-3.4-1.8-5.4-1.6c-0.7,0.1-1.4,0.1-1.7,0.9c-0.3,0.8,0.4,1.2,0.8,1.7
					C-59.8,49.5-56.7,50.2-54,51.5z"/>
				<path class="st28" d="M-43,64.8c0.3-1.5,2.8-2.8,1.6-4.2c-1.1-1.3-3,0.2-4.5,0.5c-0.4,0.1-0.8,0.1-1.1,0.1
					c-5.3,2.4-10.1,1.5-14.4-2.3c-0.8-0.8-1.6-2.4-3-1c-1.3,1.3-1.4,2.9-0.4,4.4c0.4,0.6,0.8,1.2,1.3,1.5c6,3.3,12.3,4.7,19,2.2
					C-43.9,65.8-43.5,65.2-43,64.8z"/>
				<path class="st29" d="M-36,31.3c0-0.1,0-0.2,0-0.4c-4-2.9-8.8-4.1-13.4-5.7c-1.4-0.5-2.9-0.3-4.3,0.3c-6.2,2.6-12.5,5-18.9,7
					c-0.3,0.1-0.4,0.4-0.6,0.6c0.9,1.5,2.3,0.6,3.4,0.4c6.7-0.8,13.4-0.6,20-1C-45.1,32.3-40.6,32.2-36,31.3z"/>
				<path class="st30" d="M-73.1,33.1c6.9-0.7,13.1-3.6,19.4-6.3c1.8-0.8,3.4-0.8,5.2-0.1c4.1,1.5,8.3,2.8,12.5,4.3
					c0.1-1.3-1.3-1.1-1.9-1.7c-1.6-2.9-4.3-4.2-7.4-4.8c-0.3-0.2-0.7-0.4-1-0.6c-4.7-3.7-4.7-3.7-9.6-0.6c-2.1,1.3-4.2,2.6-6.3,4
					c-4.9,2.2-9.7,4.3-14.9,5.9C-75.7,33.1-74.4,33.1-73.1,33.1z"/>
				<path class="st31" d="M-100.9,38.3c1.5,1.1,2.9,2.4,4.8,2.8c6-0.3,11.9,0.2,17.9,0.6C-85.4,38.1-93,36.8-100.9,38.3z"/>
				<path class="st32" d="M-76.6,25c-1.8-1.1-3.8-0.4-5.7-0.5C-80.5,25.4-78.5,24.8-76.6,25z"/>
				<path class="st33" d="M157.6,50.3c1.1,0.3,2.3,0.6,3.4,0.9c4.2-1.3,8.4-2.6,12.6-4c1.3-0.4,2.4-0.4,3.6,0
					c5.2,1.5,10.5,3,15.9,3.9c-5.8-2.2-11.1-5.3-16.2-8.9c-0.9-0.6-1.7-0.6-2.6,0c-2.5,1.4-5.1,2.7-7.6,4
					C163.7,47.7,160.4,48.5,157.6,50.3z"/>
				<path class="st34" d="M80,29c2.2,1.6,4.6,3.1,5.6,5.8c-0.1,1.9,1.3,2.5,2.7,2.8c6.3,1.4,12.5,1,18.7-0.5
					c1.2-0.3,2.5-0.2,3.7-0.6c4.6-2.2,7.6-6.1,10.6-9.9c0.5-0.6,0.7-1.4,0.2-2.2c-0.4-1.9-1.5-1.9-2.9-1c-0.5,0.3-1.2,0.5-1.4-0.3
					c-0.2-0.8,0.5-0.9,1.1-1c0.9-0.1,1.7-0.1,2.6-0.2c0.3,0,0.9-0.3,0.5-0.7c-0.2-0.2-0.7-0.2-1-0.3c-9.4,0.3-18.6-1.4-27.7-3.4
					c-2.6-0.4-5.3-0.7-8-1.1c-3.9-0.5-7.8-1.3-11.4-3c-1.7-0.8-3.4-0.9-5.1-0.3c-2.6,1-5.3,1.7-7.9,2.7c-2.6,1-3,2.6-0.8,4.4
					c1.4,1.2,2.6,2.5,3.8,3.9c0.4,0.4,1.1,0.5,1.5,0.9l0,0c0.6,0.6,1.3,0.6,2,0.5c0.9-0.4,1.3-1.1,1.7-1.9c1.2-2.1,2-2.4,4-1
					c1.7,1.3,3.1,2.9,4.4,4.5C77.8,28.1,78.5,29.1,80,29z"/>
				<path class="st4" d="M64.2,23.9c-0.8-2.1-3.1-2.8-4.5-4.4c-1.2-1.3-1.7-2,0.6-2.6c3-0.8,5.9-1.8,8.8-2.8c1-0.3,1.8-0.5,2.8,0.1
					c6.5,3.7,13.6,3.5,20.7,3.4c-6.9-2.1-13.8-4.1-20.7-6.1c-1.6-0.5-3-0.1-4.5,0.5c-2.8,1.2-5.8,2.2-8.6,3.3
					c-1.7,0.7-2.9,0.3-3.9-1.3c-1.8-2.7-3.7-5.4-5.5-8.1c-1.1-1.7-1.7-2.3-3.2-0.2c-4.5,6.2-10,11.4-16.1,16
					c-3,2.2-6.3,3.8-10.2,5.6c4.2,0.5,7.4-1.3,10.8-2c1.9,0.9,3.4-0.1,4.8-1c3.4-2,6.5-4.4,9.6-6.8c1.8-1.4,3.2-1.6,5.1-0.2
					c3.1,2.3,6.6,3.9,9.8,5.9C61.2,23.7,62.5,24.8,64.2,23.9z"/>
				<path class="st30" d="M127.4,19.8c6.7,1.5,13.2,0.3,19.5-2.1c1.3-0.5,2.2-0.7,3.5-0.1c3.5,1.7,7.2,2.5,11.1,2.9
					c0.7-0.1,1.5-0.1,3.1-0.3c-5.6-2.1-10.1-4.4-14.5-6.8c-0.9-0.5-1.8-0.6-2.8-0.1C140.9,16,134.2,18.2,127.4,19.8z"/>
				<path class="st35" d="M-31.4,21c4.3-0.4,8.3-2.1,12.2-3.9c1.4-0.7,2.7-0.8,4.2-0.5c5.5,1.4,11,1.7,16.6,1.4
					c-4.2-1.8-8.8-1.9-13-3.3c-4.1-1.4-8-1.1-11.8,1.3c-3.6,2.2-8,2.6-11.6,4.9C-33.7,22.2-32.6,21.5-31.4,21z"/>
				<path class="st11" d="M-31.4,21c-1.2,0-2.3-0.1-3.5-0.1c-3.5,1.2-6.9,2.3-10.4,3.5c2.2,2,4.7,3.6,7.4,4.8c2.5-0.9,3-3.6,1.2-6.7
					C-34.7,22.6-32.6,23-31.4,21z"/>
				<path class="st36" d="M121.6,24.5c-2.9,4.2-6.4,7.8-10.4,11c-1.8,1.2-4.2,1.4-5.6,3.3c-2.1,1.7-4.8,2.3-7.1,3.7
					c-0.7,0.4-1.4,0.6-2,1.1c-0.8,0.5-1.8,1.1-1.4,2.2c0.3,1,1.4,1.2,2.4,1.2c1.9,0,3.8-0.7,5.6-1c6.2-2,11.5-5.7,16.8-9.3
					c1.9-1.3,3.4-1.2,5.2,0.1c2.7,1.9,5.8,3.3,8.8,4.9c1.3,0.7,2.6,1.3,4.1,0.6c0.2,0,0.5,0,0.5-0.1c0.3-0.5-0.2-0.6-0.5-0.8
					c-2-1.1-3.5-2.8-5.2-4.3c-1.4-1.6-2.8-3.3-4.2-4.9c-1.6-2.1-3.2-4.3-4.8-6.4C123.2,24.9,122.9,23.7,121.6,24.5z"/>
				<path class="st34" d="M103.1,44.6c-2.5,0.1-4.9,1.4-8.2,0.9c4.3-2.1,8.1-3.9,11.5-6.2c-0.1-1.6-1.4-1.3-2.3-1.3
					c-2.2,0-4.4,0.5-6.6,0.7c-5,0.4-9.7-0.8-14.3-2.6c-1.3-0.5-2.5-1-3.8-0.2c-3.7-1.3-7.2,1.1-10.9,0.8c-1.6-0.1-0.3,1.4-0.1,2.2
					c-0.2,1.7,1,2.1,2.2,2.6c1.5,0.6,3.1,0.8,5.3,0.9c-3.9,2-7.2,1.8-10.4,0c-2.3-1.3-4.6-2.4-7-3.3c-2.8-1-3.8-0.5-4.6,2.4
					c-1,3.4-2.2,4.5-5.6,4.7c-2.8,0.1-5.6,0.2-8.4-0.1c-0.8-0.1-2.6,0.1-1.5-1.8c2.4-0.9,4.8-0.6,7.2-0.3c3.8-0.5,4.9-1.5,4.9-4.5
					c0-1.2-0.6-1.4-1.6-1.3c-7.3,0.4-14.6,0.3-21.8-0.7c-4.3-0.6-8.7-0.3-12.9-1.8c-3.1-1.1-4.2-0.3-4,2.6c4.2-0.6,6.3,3.3,9.8,4.2
					c1.7,0.1,3.6-0.3,5.1,0.8c0.6,0.5,0.4,1.3,0.6,1.9c0.5,1,1.5,1.4,2.3,2c0.2,0.1,0.5,0.2,0.7,0.2c1.2-0.4,2.2-0.1,3.2,0.6
					c2.3,0.9,4.6,1.9,6.9,2.9c0.6,0.3,1.7,0.5,1.4,1.5c-0.2,0.7-1,0.8-1.7,0.8c-4.8-0.3-9.2,1.8-13.9,1.8c-1.3,0-1.8,1-2.5,1.7
					c-2.5,1.7-3.3,4.5-4.9,6.9c-0.2,1.4-1.3,2.1-2.1,3c0,0.1,0,0.3-0.1,0.4c0.2,1.4,0.4,2.6,2.2,1.4c0.7-0.5,1.4-0.5,1.9,0.4
					c2-1.1,3.9-2.4,5.6-4c1.4-1.3,2.5-1.6,4.5-0.3c7.5,5,15.5,8.7,24.5,10.5c11.1,2.2,20.8-0.6,29.7-7c3.4-2.5,6.5-5.4,9-8.9
					c1.4-1.8,2.5-1.8,4.3-0.6c4.4,2.9,9,5.5,14,7.4c0.1-1.8-0.9-3.5-0.5-5.3c0.2-1.1-0.5-1.8-1.3-2.4c-3.9-2.6-8.1-4.4-12.9-4.4
					c-2,0-3.6,0.6-4.8,2.2c-1.4,1.8-3.2,3-4.9,4.2c-0.3-0.1-0.3-0.2-0.3-0.5c1-4.6,1-4.5,6-5.3c3.3-0.5,6.7-0.7,10-1.1
					c3-0.4,5.8-1.4,8.1-3.5c0.9-0.8,1.7-1.6,1.7-2.9c-1.5-2.6-3.3-3.3-6.6-2.5C104.3,44.6,103.7,45.1,103.1,44.6z"/>
				<path class="st37" d="M103.1,44.6c2.8,0.6,5.9,0.1,8.2,2.3c2.6,0.9,3.9-1.3,5.7-2.4c7.6,1.7,15.1,0.5,22.8,0
					c-0.3-1.7-1.7-1.5-2-2.5c-4.9-2.4-9.8-4.9-14.4-7.9c-1.4-0.9-2.2-0.2-3.3,0.5C114.7,38.5,109.3,42.3,103.1,44.6z"/>
				<path class="st28" d="M117,44.6c-2.6-0.8-3.7,1.8-5.7,2.4c-3.9,4.7-9.4,5.2-14.9,5.7c-3.2,0.3-6.3,0.8-9.5,1.1
					c-1.1,0.1-1.8,0.5-1.7,1.8c0.1,2,0,3.8-1.4,5.4c-0.4,0.4-0.5,1.1,0,1.6c0.5,0.5,1.1,0,1.6-0.2c2.4-1.6,5-3,6.6-5.5
					c1.1-1.6,2.4-2,4.2-1.9c5.3,0.3,9.8,2.5,14,5.6c4.4,1.9,8.6,4.4,13.4,5.3c0.6,0.1,1.1,0.3,1.7,0.4c1.2,0.1,3,0.9,3.3-0.5
					c0.4-1.5-1.6-1.6-2.7-2c-4.2-1.5-8.9-2.1-12.5-5.1c-0.6-0.5-1.3-0.9-1.8-1.4c-3.4-3.6-3.2-4.6,1.4-6.2
					C116,50,117.2,47.7,117,44.6z"/>
				<path class="st38" d="M156.6,59.1c-10-1.1-20-1-29.9-2.6C136.4,60,146.2,62.6,156.6,59.1z"/>
				<path class="st39" d="M50.3,39.5c-0.8,2.1-2.3,3.3-4.6,3.4c-2.9,0.4-5.9,0.4-8.8,0c-1.9,0.2-2,1.2-1,2.5
					c0.8,1.1,1.9,1.8,3.2,1.9c3.6,0.3,7.1,0.5,10.7,0c3.5-0.5,4.9-1.9,5.1-5.5c0.2-2.5,1.1-2.5,2.9-1.6c2.5,1.3,5,2.4,7.5,3.7
					c4.1,2,8,1.5,11.9-0.6c0.6-0.3,1.3-0.6,1-1.5c-0.2-0.6-0.9-0.6-1.5-0.6c-3-0.1-6,0-8.4-2.2c-5.3-2.8-10.9-5.2-14.6-10.3
					c-0.6-0.8-1.2-2-2.5-1.6c-1.2,0.5-0.7,1.8-0.8,2.8C49.8,33.1,51.5,36.3,50.3,39.5z"/>
				<path class="st40" d="M64.2,23.9c-5-2.6-10-5.3-14.6-8.6c-1.6-1.2-2.7-1-4.2,0.2c-4.7,3.6-9.2,7.4-14.8,9.6
					c0.4,0.7,0.9,1.2,1.8,1.3c5.5,0.2,11,0.8,16.4,0.4c4.2-0.4,8.4-0.6,12.6-0.4c1.1,0,2.3-0.9,3.4-1.3
					C64.6,24.6,64.4,24.2,64.2,23.9z"/>
				<path class="st15" d="M19.5,41.8c-1.1-0.9-2.3-1.7-3.4-2.6c-1.9-1.7-3.8-2.7-6.2-0.8c-3.6,2.7-7.5,4.8-11.7,6.3
					c-4,2.6-9,2.8-13.3,4.6c8.3,0.2,15.9-2.5,23.4-5.5c2.9-1.1,5.4-1.4,8.2-0.1c3.4,1.6,7.4,1.9,10.7,3.9c0.7,0.3,0.9-0.1,1-0.7
					c-0.8-0.5-1.5-1-2.3-1.6c-1.1-1.8-3.2-2.1-4.9-3.1C20.5,41.9,19.9,42.1,19.5,41.8z"/>
				<path class="st39" d="M-3.6,35.4c2.1-0.4,5.1,0.2,5.2-1.4c0.2-1.9-2.7-1.8-4.4-2.3c-2.3-0.6-4.7-1-7.1-1.1
					c-4-0.2-7.8-0.8-10.6-4.2c-0.8-1-2.1-1.3-3.3-1.7c-1-0.3-2.2-0.8-2.8,0.4c-0.6,1.1,0.1,2,0.9,2.8c3.2,3.1,6.8,5.3,11.3,5.9
					C-10.7,34.3-7,34.9-3.6,35.4z"/>
				<path class="st41" d="M79.3,35.9c8.1,4,16.6,5.2,25.5,3.1c0.6-0.1,1.1-0.2,1.6,0.3c1.6-1.3,3.2-2.6,4.8-3.9
					c-7.2,1.2-14.4,2.5-21.7,1.1c-1.4-0.3-2.9-0.5-3.8-1.7c-1.8-1.5-3.7-0.9-5.6-0.4C79.3,34.7,78.9,35.1,79.3,35.9z"/>
				<path class="st42" d="M80,29c-1.9-2.3-3.7-4.8-6.1-6.8c-1.4-1.2-2.9-2.4-4.9-1.7c-2,0.7-1.6,2.8-1.8,4.4
					c0.1,0.3,0.2,0.5,0.5,0.5c3.7,1.7,7.4,3.4,11.2,5c0.5,0.2,1.2,1,1.8,0.2C81.1,30.1,80.1,29.7,80,29z"/>
				<path class="st40" d="M67.7,25.5c-0.2-0.2-0.3-0.4-0.5-0.5c-0.8,0-1.6,0-2.4,0.1c-0.3,2,1.5,1.1,2.3,1.5
					C67.8,26.9,67.8,26,67.7,25.5z"/>
				<path class="st39" d="M17.9,64.2c1.4-2.4,3.4-4.6,4-7.5C21,53,18.8,52.3,16,54.8c-2.2,2-5.2,1.9-7.9,2.4
					c-4.6,0.9-9.3,1.4-13.9,2.6c-0.7,0.2-1.3,0.3-2,0.5c-0.9,0.3-2,0.8-2,1.8c0.1,1.2,1.4,1.2,2.3,1.3C-2.5,63.8,2.5,64,7,61.5
					c1.2-0.7,2.5-1,3.9-0.8c0.6,0.1,1.2,0.3,1.4,0.8c0.3,0.6-0.1,1.2-0.6,1.5c-3.5,2.2-7,4.5-11,5.6c-1.6,0.4-3.4,0.2-5-0.7
					c-2.5-1.4-5.2-1.9-8.1-2c-1.1-0.1-2.5-0.1-2.7,1.5c-0.2,1.5,0.8,2.2,2.2,2.5c9.3,2.2,18.5,3.5,26.9-2.7c0.2-0.2,0.5-0.2,0.8-0.2
					c0,0,0,0.1,0,0.1C15.8,66.1,17.3,65.5,17.9,64.2z"/>
				<path class="st34" d="M28.2,46.8c-0.3,0.2-0.7,0.4-1,0.7c-0.4,0.6-1.6,1.2-0.7,1.8c1.3,1,1.3-1.4,2.4-1.3
					c0.4-0.6-0.1-0.9-0.5-1.1L28.2,46.8z"/>
				<path class="st25" d="M28.3,46.9c0.2,0.4,0.4,0.8,0.5,1.1c1,0,1.9,0,2.9,0C31,46.7,29.9,45.9,28.3,46.9z"/>
				<path class="st39" d="M58.9,64.8c-5.7,0.3-11.4-0.5-16.6-3.9c-1.5-1-3.4-1.3-5.1-1.9c-0.7-0.2-1.6-0.3-2.2,0.3
					c-0.6,0.8,0.1,1.4,0.5,2c2.8,4.6,6.9,7.2,12.3,7.3c3,0.1,5.9,0.7,8.8,1.4c3.6,0.8,7.3,1.1,10.5-1.4c0.8-0.6,1.6-1.3,1.4-2.4
					c-0.2-1-1.3-1-2.1-1.2C64,64.4,61.5,65,58.9,64.8z"/>
				<path class="st38" d="M20.7,42.3c1.4,1.5,2.9,2.8,5.2,2.9c0.3-0.9,1.9-1.6,0.7-2.9C24.6,41.8,22.7,41.8,20.7,42.3z"/>
				<path class="st25" d="M36.9,42.9c2.9,0.8,5.9,0.9,8.8,0C42.8,42.9,39.8,42.9,36.9,42.9z"/>
				<path class="st25" d="M20.7,42.3c1.9,0,3.9,0,5.8,0c-2.3-1.2-4.7-0.4-7.1-0.6C19.9,42,20.3,42.1,20.7,42.3z"/>
				<path class="st26" d="M17.9,64.2c-1.1,0.8-2.4,1.5-3,2.8C16.4,66.6,17.7,66,17.9,64.2z"/>
			</g>
		</g>
	</g>
	<g class="st0">
		<defs>
			
				<rect id="SVGID_5_" x="584.7" y="3.3" transform="matrix(-1 -4.489887e-11 4.489887e-11 -1 1540.8829 94.84)" width="371.4" height="88.3"/>
		</defs>
		<clipPath id="SVGID_6_">
			<use xlink:href="#SVGID_5_"  style="overflow:visible;"/>
		</clipPath>
		<g id="xsDX5g_2_" class="st43">
			<g>
				<path class="st2" d="M583.7,27.1c-5.2-2.3-11.3-2.7-15.8-6.7c-0.8-0.7-2-0.8-3-0.6c-3.6,0.8-7.1,1.6-10.7,2.4
					c-0.7,0.2-1.1,0.7-1.6,1.1c0,1,0,1.9,0,2.9c0.8,1.5,1.5,3,3.6,3c5.1-0.3,10.2,0.2,15.2,1.5c0.9,0.2,2,0.5,2.7,1.1
					c3.6,3.2,8,4.5,12.4,5.8c0.5,0.1,1.2,0.3,1.4,1.1c-1.2,1.1-2.6,0.6-3.9,0.2c-4.7-1.3-8.7-4-13.1-6c-3.2-1.4-6.4-2.9-10-1.8
					c-0.5,0.3-1,0.6-1.3,1.1c-0.2,1.8,1.4,2,2.4,2.7c2.2,1.4,5.1,1.5,7.4,3.4c-1.3,0.9-2.7,0.9-3.8,1.6c-1,1-2.2,1-3.5,0.6
					c-2-0.6-4.1-0.9-6.1-1.8c-1.1-0.5-2.2-0.9-3.2,0.1c0,8.8,0,17.7,0,26.5c7.2,0.5,13.9-1.9,20.5-4.2c2.1-0.7,3.3-0.9,4.8,1.1
					c2.1,2.9,5.3,4.6,8.3,6.6c3,3.8,7.3,4.4,11.8,4.6c1.2-0.6,2.4-0.9,3.9-0.6c2.9,0.6,3.7-0.6,2.9-3.6c-2.9-1.8-6.5-1.6-9.4-3.3
					c-2.6-1.5-5.3-2.7-7.6-4.7c2.1-0.1,4,0.6,5.9,1.3c2.1,0.7,4.1,1.6,6.4,1.6c2,0,3.7-0.7,3.9-3c0.2-2.2-1.3-3.3-3.2-3.8
					c-1.7-0.5-3.7,0.2-5.6-1c1.6-0.5,3.3,0,4.6-0.8c1.8-1.5,4.1-1.1,6.1-1c7.7,0.3,15.3-1.5,23.1-1.3c0.4,0,0.8,0,1.1-0.1
					c1.3-0.4,2.8-0.7,2.8-2.4c0-1.5-1.2-2.1-2.4-2.5c-1.1-0.4-2.2-0.8-3.4-0.7c-2.4,0.1-4.6-0.5-6.8-1.3c-3.3-0.9-6.4-2.4-9.7-3.4
					c-2.3-0.7-4.5-0.7-6.7,0.2C599,45,594,46.5,589.1,48c-1,0.3-2.1,0.4-3.1,0.5c-3.9,0.5-7.9-0.2-11.8,0.7c-3.4,0.8-7.1,0.3-10.4,2
					c-2.1,1-4.6-0.4-6.4-3.1c0.9-0.7,2-0.4,3-0.4c9.5,0.4,18.8-0.9,28.2-1.5c1.2-0.1,2.3-0.1,3.5,0.1c1.6,0.4,3.1-0.1,4.5-0.8
					c3.9-1.8,7.9-3.6,11-6.6c1-1.5,2.2-2.9,2.8-4.6c0.5-1.2,0.9-2.4-1-2.9c-2.1,0.1-3.8,1.4-5.4,2.5c-2.3,1.7-4.4,1.3-6.6-0.1
					c-3.2-2.1-6.5-4.1-10-5.6"/>
				<path class="st3" d="M964.2,57.1c7.7,1.2,15.5,1.1,23.2,0c0-7.5,0-15,0-22.5c-0.7-0.8-1.7-1.1-2.8-1.3
					c-3.8-0.5-7.6-0.2-11.4,0.3c-1.1,0.2-1.8-0.3-2.7-0.7c-1-0.3-2.2-0.3-2.7,0.5c-1.1,2-2.5,1.2-3.7,0.7c-4-1.8-8.6-2.2-11.9-5.4
					c-1.1-1.1-2.8-0.7-4.2-0.3c-3.5,0.9-7.1,1.6-10.7,2.2c-2.6,0.5-3.2,2-1.5,4c1.2,1.4,2.6,2.6,4.4,3c5.9-0.5,11.7,0.2,17.3,1.9
					c0.6,0.2,1.3,0.5,1.7,1c2.5,2.5,5.7,3.6,8.9,4.5c1.5,0.4,2.9,0.9,4.2,2c-1,1.1-2,0.7-3,0.6c-3.2-0.4-6.1-1.7-8.9-3.3
					c-1.1-0.6-2.2-1.3-3.5-1.2c-1.4,0.7-2.7,0.6-4.1-0.1c-1.1-0.6-2.2-0.6-3.2,0.3c-0.4,0.6-1,0.7-1.8,0.7c-7.8,0.1-15.7-0.4-23.5-1
					c-4.3-0.3-8.6,0.4-12.9,0c-0.9-0.1-2,0.2-2,1.6c0.8,1.5,2.2,1.6,3.7,1.7c3.5,0.1,6.9,0.7,10.2,1.7c3.4,1.1,7.1,0.8,10.6,1.1
					c8.7,0.6,17.4,1.9,26.1,2.4c1.5,0.1,2.4,0.7,2.1,2.3c-0.2,1.1,0,2.1,1.1,2.7C963.6,56.7,963.9,56.9,964.2,57.1z"/>
				<path class="st4" d="M940.4,36.9c-1.9-1.2-3.5-2.7-5.2-4.8c5.3-0.6,10.3-1.7,15.1-3c0.5-0.1,1,0.1,1.3,0.5
					c1.9,2.8,5.1,3.3,7.9,4.3c2.8,0.9,5.7,1.7,8.7,2.6c-1.7-3.2,1.2-2.3,2.3-3c0.9,0.8,1.8,0.4,2.7,0c4.4-2.3,8.5-5.1,12.4-8.1
					c0.8-0.6,1-1.6,1.7-2.3c0-3.5,0-6.9,0-10.4c-1.4,1.5-2.7,3.1-4.1,4.6c-0.9,0.2-1.6,0.7-2.2,1.3c-3.5,3.8-7.5,7.2-11.7,10.2
					c-3.9,3.4-5.4,3.5-10-0.3c-1.7-1.5-3.7-2.7-5.5-4.1c-2.4-1.9-4.5,0.1-6.7,0.8c-1,0.4-2.1,0.8-3.1,1c-3.1,1.1-6.4,1.1-9.2,1.4
					c1.7-0.8,4.3,0.6,6.2-1.1c-0.7-2.5-3.2-1.3-4.7-2.4c-1.6-0.1-3.1-0.6-4.5-1.2c-1-0.3-2.1-0.3-3.1-0.7c-4.6-1.5-8.9-1-13.1,1.4
					c-2.5,1.7-5.5,2-8.2,3.3c-1.1,0.5-2.4,0.8-2.7,2.2c1.3,2,3.2,1.4,4.9,1.1c3.9-0.8,7.7-1.7,11.2-3.5c-3.2,3.8-7.1,6.7-11.2,9.3
					c-2.9,2.3-6.2,3.9-9.5,5.7c-1,0.4-1.9,1.3-3.1,1.3c-1,0-2.1,0.5-2,1.6c0.1,1.3,1.4,1.5,2.4,1.5c3.6,0,7-0.9,10.2-2.4
					c5.8-1.2,10.5-4.8,15.4-7.7c2.5-1.5,4.5-1.9,7.1-0.3c3.2,1.9,6.6,3.5,10.1,5c1.3,0.5,2.6,1.4,4.1,0.4
					C944.9,38,942.5,37.6,940.4,36.9z"/>
				<path class="st5" d="M552.8,25.1c4.2-0.1,8.2-1.2,12.2-2.3c1.3-0.3,2.2-0.4,3.2,0.9c1.6,2.1,4.2,2.6,6.6,3.4
					c3.1,1,5.4,1.1,8.6,2c1.7-1.1,1.2-1.3,0.4-1.9c-1.4-0.9-2.5-2.4-4.4-2.5c-1-0.1-1.6-1-2.2-1.7c-2.1-1.6-4.5-2.9-6.5-4.7
					c-0.7-0.6-1.7-1.3-2.6-1.1c-4,0.9-8.3,1-11.7,3.9c-1.1,0.9-2.3,0.3-3.5,0.5C552.8,22.8,552.8,23.9,552.8,25.1z"/>
				<path class="st6" d="M987.4,23.1c-2,0.5-3.3,2.1-4.9,3.2c-3.9,2.5-7.5,5.4-11.9,7.2c-0.4,1.4,0.6,1.6,1.4,1.4
					c5.1-1,10.2-0.4,15.4-0.3C987.4,30.8,987.4,26.9,987.4,23.1z"/>
				<path class="st7" d="M566.1,40.4c1.2-0.2,2.4-0.4,3.7-0.6c0.7-0.1,1.6-0.2,1.8-1.2c0.1-0.9-0.7-1.3-1.3-1.7
					c-3.3-2-7.2-2.4-10.4-4.5c-1.5-2.2-4.8-3.6-6.9-3c0,1.9,0,3.8,0,5.8C554.9,38.4,562.1,41.2,566.1,40.4z"/>
				<path class="st8" d="M566.1,40.4c-4.6-1.2-9-3.2-13.3-5.2c0,1.2,0,2.3,0,3.5c3.3,1.2,6.5,2.8,10.2,2.7
					C564.1,41.3,565.4,41.8,566.1,40.4z"/>
				<path class="st9" d="M552.8,29.4c2.3,1,4.6,2,6.9,3c0.4-0.1,1,0,1-0.7c-0.5-2.4-2.5-2.9-4.5-3.5c-1.2-0.8-2.3-1.5-3.5-2.3
					C552.8,27.1,552.8,28.3,552.8,29.4z"/>
				<path class="st10" d="M552.8,79c0.9-2.7,0.9-5.4,0-8.1C552.8,73.6,552.8,76.3,552.8,79z"/>
				<path class="st11" d="M598,72.5c14.9,3.1,28.6-0.6,41.7-7.3c1.9-1,2.9-0.9,4.2,0.9c4.7,6.1,10.2,11.1,17.8,13.5
					c5.1,0.7,10.2,1.7,15-1.1c1.1-0.6,2.2-1.1,2.6-2.4c-0.3-2.3-2.8-1.5-3.6-2.6c-0.8-1.1,1-3.2-1.3-4.1c-2.7,0.6-5.4,1.4-8.2,1.7
					c-4.3,0.5-7.6-1.7-11.2-3.1c-0.5-0.2-0.8-0.8-1.2-1.2c-0.5-0.7-0.8-1.4-0.1-2.1c0.7-0.6,1.3,0,1.8,0.4c3.1,2.5,6.5,4.2,10.6,3.6
					c1.7-0.3,3.5-0.4,4.6-2c0.4-2.6-1.8-1.7-3-2.3c2-3.5,1.5-5-2.3-6c-1.2-0.3-1.5-1-1.7-2c-0.7-1.5-2.1-1.9-3.4-2.5
					c-1.4-0.5-2.6-1.2-3.4-2.8c2-0.3,3.4,0.6,4.6,1.6c5,4,10.6,3,16.3,1.9c1.1-0.2,2.1-1,2.3-2.3c0.2-1.3-0.6-2.1-1.7-2.7
					c-2.6-1.5-5-3.5-8.1-4.2c1.2,0.2,2.4,0.6,3.5,0c2.6-0.9,5.1-1.5,7.9-0.8c0.9,0.2,2,0.3,2.9,0c3-1,6.1-0.9,9.1-1
					c1.9-0.1,4.6,0,4.8-2.5c0.2-2.5-2.4-2.7-4.1-3.2c-2.7-0.7-5.3-1.6-8-2.4c-1.8-0.5-3.6-0.6-5.3,0.2c-3.4,0.8-6.9,0.6-10.3,0.7
					c-7.8,0.3-15.5,0.7-23.2,1.5c-1,0.1-1.9-0.2-2.9-0.2c-0.6,0.1-1.3,0.1-1.3,0.1c3.3-0.2,6.7-1.8,10.2-3.4c0.9-0.4,1.9-1,1.8-2.3
					c-0.8-1.7-2.3-1.9-3.8-1.9c-3.5,0.1-7-0.5-10.4-1.1c-1.9,0.4-3.8,0.1-5.7-0.4c-0.3-0.1-0.7,0-1,0c-4.2,0.7-8.2-0.8-12.2-1.2
					c-3.2-0.4-5.8-0.3-8.2,1.8c-0.5,0.4-1.2,0.5-1.7,1.1c-0.7,0.8-0.6,1.6-0.1,2.4c1.6,2.3,1.3,4.4-0.4,6.5c-0.4,0.4-0.5,1-0.5,1.6
					c0.7,2.5,2.7,3.3,5,3.7c6.2-0.8,12.3-0.3,16.8,1.1c-3.1-0.7-7.6-0.9-12.2,0c-0.6,0.3-0.9,0.8-1,1.5c3,1.3,6.3,1.4,9.5,2.2
					c1,0.3,2.8,0.2,2.7,1.5c-0.1,1.1-1.9,1.1-3,1.2c-3.7,0.1-7.5-0.1-11.2,0.7c-5.2,1.1-10.6,0-15.8,1c-1.2,0.2-2.2,0.6-3.2,1.3
					c0,1.3,1,1.5,1.9,1.7c3.3,0.7,6.4,2,9.4,3.5c3.7,1.8,7.5,1.4,11.3,0.2c3.8-1.1,7.3-2.9,11.4-4.2c-2.3,1.6-4.6,2.4-6.8,3.3
					c-0.8,0.3-1.6,0.7-2.2,1.3c-1.4,1.3-1.1,2.6,0.7,3.2c0.3,0.1,0.6,0.1,0.8,0.2c1.1,0.1,2.1,0.1,2.6,0c-6.5,2.4-13.8,3.8-21.4,4
					c-1,0-1.9,0.2-2.4,1.3c0.5,2.2-0.1,3.2-2.6,2.5C600.5,71.4,599,70.8,598,72.5z"/>
				<path class="st12" d="M604.4,69.3c9.9,0.1,19.3-1.8,29-5.9c-3.4-1.2-6.5,0-9.7-0.9c1.6-1.8,3.7-2,5.4-2.9c2-1,4-1.9,6-2.9
					c0.6-0.3,1.2-0.8,0.9-1.6c-0.3-0.8-1-0.7-1.7-0.6c-3,0.3-5.6,2.1-8.4,3c-2.3,0.7-4.6,1.6-6.9,2.2c-2.3,0.6-4.7,0.8-6.8-0.3
					c-4.1-2.2-8.5-3.6-13-4.5c-1.3,0-2.7-0.1-4,0c-1,0-2.4,0-2.5,1.3c-0.1,1,1.2,1.3,2.1,1.6c1.5,0.4,3,0.6,4.5,0.7
					c0.9,0,1.9,0.2,2.8,0.5c1,0.4,1.4,1.3,1.2,2.3c-0.2,1-0.8,1.5-1.7,1.7c-1.1,0.2-2.3,0.2-3.4-0.2c-3.1-1-6.2-2.1-9.3-3.1
					c-1-0.3-2.2-1.4-3.1-0.1c-1,1.4,0.3,2.4,1.3,3C592.4,65.8,597.7,69.3,604.4,69.3z"/>
				<path class="st13" d="M592.6,45.5c-10.3-0.6-20.5,1.7-30.9,1.3c-2.4-0.1-5-0.4-7.8,0.8c1.7,1.1,2.8,2.4,4,3.5
					c2.2,2.2,5.1,2.5,7.8,0.9c1-0.6,2-0.7,3.1-0.7c5.2-0.3,10.3-1.3,15.5-1.2c0.6,0,1.3-0.3,1.9-0.5c0.9-1.5,2.7-0.9,3.9-1.6
					C591.3,47.5,593,47.5,592.6,45.5z"/>
				<path class="st14" d="M556.1,28.8c1,1.8,2.9,2.5,4.5,3.5c5.2-0.5,9.5,2,13.9,4.2c2.5,1.3,4.9,2.7,7.6,3.6
					c0.9,0.3,1.8,0.7,2.8,0.8c2,0.2,4.7,0.7,5.2-1.7c0.4-2.1-2.3-2.2-3.8-2.7c-3.8-1.3-7.5-2.3-10.8-5.1c-3.3-2.8-8-2.6-12.2-3
					C560.9,28.2,558.5,27.8,556.1,28.8z"/>
				<path class="st15" d="M592.8,45c-2.1,2.3-5.5,1.9-8,3.6c0.5,0.7,1.2,0.3,1.7,0.5c6.4-0.8,12.5-2.9,18.4-5.3
					c1.7-0.7,3.2-0.8,5-0.2c3.3,1.2,6.7,2.2,10.1,3.2c0.5-0.1,1-0.1,1.3-0.7c-0.7-2.4-3.1-2-4.8-2.8c-1.9-0.5-3.4-1.4-4.6-2.9
					c-0.9-2.1-2.3-3.3-4.8-2.4C602.6,40.8,598.3,44.2,592.8,45z"/>
				<path class="st12" d="M607.2,38c1.9,0.2,2.9,2.1,4.8,2.4c3.7-3.2,3.8-5,0.6-9.8c-0.1-0.4-0.3-0.6-0.7-0.6
					c-0.7,0.6-1.5,1.1-2.2,1.7c1.3,0.4,0.5,1.2,0.2,1.7C608.9,35,608,36.5,607.2,38z"/>
				<path class="st16" d="M913.3,71.6c2.5-0.5,4.5-1.9,5.6-4.1c0.9-1.9,2-2.1,3.8-1.8c5.6,0.8,11.2,1.5,16.9,1.9
					c6.7,0.4,11.2-2.6,14.7-7.9c0.7-1,1.4-2.1,2-3.2c0.6-1.3,1.4-1.6,2.8-1c1.6,0.7,3.3,1.1,5,1.3c-1-1-1.1-2-0.4-3.4
					c1.1-2.2,0.2-3-2.2-3.2c-10.1-0.8-20.1-2.1-30.1-2.7c-7.3-0.4-14.3-2.9-21.6-3.1c-0.5-0.7-1.2-1.1-1.8-1.7
					c-3.9,1-7.7,2.6-12.6,2.1c2.2-0.9,3.9-1.6,5.5-2.2c0.1-1.3-1-1.5-1.9-1.7c-5.4-0.9-10.7-0.8-16.1-0.6c-1.9,0.1-3.5,1.1-4.9,2.2
					c-1.4,1.1-1.9,2.7-1.3,4.4c0.8,2.2,1.5,4.7,4.4,5.1c0.9,0.1,1.7,0.1,2.6,0.1c2.8-0.3,4.9-2.1,7.4-3.2c1.5-0.7,2.7-0.7,4.1,0.3
					c3.9,2.8,8.2,4.9,11.7,5.8c-2.8-0.9-6.6-2.5-10.6-3.6c-2.2-0.6-4.3-0.7-6.5,0.1c-3.9,1.3-7.9,2.6-11.9,3.6
					c-2.8,1.6-6.2,0.8-9.1,2.2c-1.6,0.8-4.1,1.1-3.8,3.3c0.4,2.4,2.9,1.5,4.6,1.7c3.7,0.5,7.4,0.5,11.1,1.4
					c3.8,0.9,7.6,0.4,11.5,0.9c5.8,0.7,11.6,1.6,17.4,1.6c1.6,0,1.6,1.3,1.6,2.5C911.1,70.2,911.2,71.7,913.3,71.6z"/>
				<path class="st17" d="M908,42.7c0,1.2,0.6,1.7,1.8,1.7c1.5-1.2,2.9,0.1,4.4,0c8.2-0.3,16.4,0.1,24.6,0.9c3.4,0.3,7,0.1,10.5-0.1
					c1.4-0.1,1.6-0.8,1-1.9c-0.9-1.9-3-1.6-4.6-2.3c-0.4-0.1-0.8,0-1.2,0.1c-5.4-1.8-10.3-4.6-15.3-7.2c-1.7-0.9-2.9-1-4.7,0.1
					c-4.4,2.8-9.1,5.3-13.6,7.9C910,42.3,909,42.7,908,42.7z"/>
				<path class="st18" d="M944.5,41c0.2,0.2,0.4,0.4,0.6,0.6c2.8-0.6,5.3,0.5,7.7,1.4c1.3,0.5,2.5,0.8,3.9,0.8
					c4,1.6,7.4,4.5,11.9,4.9c2.1,0.2,4.9,1.3,5.5-1.3c0.6-2.3-2.4-2.5-4-3.1c-3.8-1.3-7.4-2.5-10.7-5.2c-3-2.5-7.4-2.4-11.3-2.7
					c-2.6-0.2-5.2-0.6-7.7,0.4C941.8,38.3,943.1,39.6,944.5,41z"/>
				<path class="st16" d="M956.7,43.8c-2.8-2.2-6.2-2.9-9.7-3.5c-1-0.2-2-0.2-1.9,1.2c1.6,0.9,3.3,1.6,5.2,1.7
					c1.8-0.1,2.9,1.2,4.4,1.8C956.2,45.6,956.4,44.7,956.7,43.8z"/>
				<path class="st19" d="M844.9,24.8c-2.4,0.4-4.7,0.7-7.1,1.1c-0.6,1-1.5,0.5-2.3,0.6c-0.9,0.1-1.5,0.4-1.5,1.4
					c0,1.1,0.7,1.5,1.6,1.6c1,0.2,2.1-0.5,3,0.4c1.9,1.1,2.8,3.1,4.1,4.7c1.1,1.3,2,2.8,3.8,3.4c4.5,1,8.8-0.4,13.1-1.3
					c9.6-2.1,19-1.5,28.6,0.3c5.7,1,11.7,1,17.5,1c1.6,0,3.2-0.5,4.7-1.1c5.2-2.4,9.1-6.6,13.2-10.5c0.3-0.3,0.7-0.8,0.3-1.2
					c-0.3-0.3-0.9-0.5-1.3-0.4c-0.7,0.2-1.4,0.5-2.1,0.8c-4.9,2.2-9.9,3.8-15.3,3.7c-6.5,0.4-12.8-0.3-18.8-2.8
					c-2.4-1-5-0.1-7.3-1.1c-0.4-1-1.3-1-2.1-1.3c-1.3-0.5-2.6-0.6-3.8-1.2c-4.6-2.2-9-1.9-13.8-0.2
					C854.7,24.5,849.7,24.6,844.9,24.8z"/>
				<path class="st20" d="M910.3,37c-9.5-0.5-19.1,0-28.4-2.2c-4.6-1.1-9.4-1.2-14.1-0.6c-6.2,0.8-12.3,2-18.5,3
					c-1.2,0.2-2.3,0.3-3.4-0.2c-0.3,3.1,2,4.3,4.1,5.5c4-0.1,8,0.3,11.8,1.7c3.5,1.2,6.2,3.3,6.6,7.5c0.2,2.6,2.4,3.9,6.6,4.3
					c2.5-1.2,5.3-1.4,7.7-2.9c0.8-0.5,1.9-0.6,1.5-1.9c-4.4,0.1-5.8-0.9-6.8-5.1c-0.3-1.1,0.3-1.9,1.1-2.5c1.1-0.9,2.4-1.8,3.9-1.9
					c6.2-0.5,12.5-0.5,18.6,0.9C904.4,41.3,907.5,39.3,910.3,37z"/>
				<path class="st21" d="M960.6,28.9c-0.6,0-1.2,0-1.6,0.5c0.8,0.6,1.6,1.3,2.5,1.9c3.4,2.3,5.9,1.8,8.5-1.8
					C966.9,29.2,963.7,30,960.6,28.9z"/>
				<path class="st22" d="M944.4,27c-1-0.8-2.2-0.3-3.3-0.5c-2.8,0-5.5,0-8.3,0c-0.6,0-1.8-0.6-1.8,0.7c0,0.7,0.7,1.6,1.8,1.6
					c1.4-0.1,2.9-0.2,4.3-0.4C939.5,28.1,942,27.8,944.4,27z"/>
				<path class="st23" d="M936.3,25c0.5-0.4,0.9-0.8,1.9-1.7c-2.6,0.4-4.5,0.1-6.4,0.9C933.3,24.4,934.8,24.7,936.3,25z"/>
				<path class="st24" d="M828,70.9c8.2,4,16.9,6.2,26.1,6.4c1.1,0.3,2.3,0.4,3.4-0.1c5.8-1,11.7-2,17.4-3.8
					c0.6-0.2,1.2-0.5,1.8-0.8c3.5-1.7,7-3.5,10-6.2c1-0.9,2.1-0.8,3.2-0.3c2.9,1.3,5.7,2.8,8.6,4c3.6,1.5,7.4,2.6,11.4,2.5
					c1.3,0,2.5-0.1,3.5-1.1c-1.1-0.6-1.2-1.5-1-2.7c0.7-4-0.1-4.7-4-4c-0.7,0.1-1.6,0.3-2.3,0.2c-7.6-1.4-15.4-1.6-23.1-2.4
					c-5.8-0.6-11.5-1.5-18.1-1.8c4.4-3.4,9.2-3.5,13.5-4.7c-0.7-1.7-2.1-1.1-3.4-0.9c-1.1-0.4-2.2-0.8-3.3-1.1
					c-1.6-0.5-2.5-1.2-2.2-3.2c0.4-2.8-1.8-4.7-3.8-6c-4.7-3.1-10-4.1-15.6-2.9c-0.3,1.8,1.3,2.3,2.3,3.3c0.9,0.8,2.1,1.3,2.4,2.6
					c-0.3,1.6-1.7,1.1-2.5,1.1c-5.3-0.2-10.7,0.7-16,0c-0.7-0.1-1.3,0-1.9,0.3c-0.6,0.4-0.9,1-1.1,1.7c-0.5,2.3-2,3.5-4.2,4.3
					c-3.8,1.4-4.4,3.5-1.9,6.7c2.2,2.8,5.1,4.6,8.4,5.8c2.3,0.9,4.8,1.4,7.3,2.3c-4.1-0.8-7.9-2.1-11.5-3.9
					c-1.4-0.7-2.9-1.7-4.5-0.1C825.8,67.9,826.8,69.4,828,70.9z"/>
				<path class="st9" d="M635.1,29.4c-2.8-1.2-5.8-1.1-8.7-1.9c-1-0.3-2-0.7-3-1c-0.3,0-0.6,0.1-0.9,0c-4.7-2.1-7.7,0.9-10.8,3.5
					c0.2,0.2,0.4,0.4,0.7,0.6c4-3.3,8.5-3,13.2-2C628.8,29.3,631.9,29.6,635.1,29.4z"/>
				<path class="st25" d="M747.5,26.5c-3.1-1.3-6.5-0.3-9.7-0.9c-6.3-1.1-12.6-1.8-18.8-2.7c-5.9-0.7-11.8-1.6-17.6-2.7
					c-2.8-0.6-5.2,1.2-7.6,2.4c-2.4,1.1-4.9,1.5-7.3,2.5c-1.8,0.7-3.4,2.2-5.6,1.8c-1.1-0.2-1.1,1-0.8,1.7c0.9,1.9,0,3.5-0.8,5.2
					c-0.2,1.2,0.7,1.6,1.5,2c0.2,0.2,0.4,0.3,0.6,0.5c1.6-0.6,3.1-0.4,4.7,0.1c3.5,1.1,7,2.1,10.5,3.1c0.6,0.2,1.5,0.3,1.3,1.2
					c-0.1,0.7-0.8,0.6-1.4,0.8c-1.8,0.5-3.6,0.6-5.4,0.5c-2-0.1-4,0-6,0.8c-1.2,0.5-2.4,0.4-3.7,0.1c-3-0.7-5.7-0.2-8.3,1.5
					c-0.2,1.1,0.2,1.9,1.1,2.4c2.8,1.7,5.5,3.5,9.2,3.5c3.5,0,7,0.2,10.4,1.7c2.4,1,5.1,0.4,7.7,0.2c4.6-0.3,9-2.1,13.6-1.7
					c4.9-1.1,9.5-3,12.8-7c0.5-2.5,1.9-2.9,4-1.7c1.8,1,3.6,1,5.6,1.1c3.5,0.1,7,0.8,10.5,1.1c5.9,0.5,11.7,0.3,17.6,0.4
					c0.7,0,1.3,0,2,0.2c2.5-0.6,1.9-2.6,1.7-4.2c-0.2-2-0.7-4.1,0.3-6.7c3.2,4.6,7.7,6.8,11.9,9.4c1.3,0.8,2.6,1.7,4.3,0.9
					c0.7-0.6,1.3-1.4,2.4-1.4c2.9,0.1,5.6-1.1,8.5-1.3c1.2-1.1,2.8-1.4,4.4-1.3c0.8,0,1.7,0.3,2.4-0.4c0-3-2.4-5.5-5.7-6.1
					c-1.5,0.9-2.7,0.1-4-0.4c-2.7-1.1-5.1-3-8.2-3.1c-1.1,0.1-2.3,0.9-3.3-0.3c-0.3-0.2-0.5-0.2-0.8-0.3c-8.9,0.4-17.8,1.9-26.8,0.5
					c-2.1-0.3-4.2,1-6.2-0.5c-1.6-0.6-3,0-4.4,0.7c-2.1,0.9-4.2,1.6-6.5,2c2.7-0.5,5.4-1.3,7.8-2.7
					C746.4,28.8,747.8,28.3,747.5,26.5z"/>
				<path class="st26" d="M679.1,75.5c1.3-0.7,2.9-1.2,4-2.2c2.5-2.1,4.2-1.6,6.5,0.7c9.1,8.7,20.1,10,31.9,6.9
					c5.4-1.4,10.5-3.6,15-7.1c0.2-1.5-0.8-1.6-1.8-1.4c-1.1,0.3-1.8-0.5-2.6-0.8c-2-0.4-3.6,0.7-5.1,1.6c-4.2,2.7-8.8,2.6-13.4,2.1
					c-3-0.3-6.2-0.7-9.6-2.4c2.9-1.1,5.2-0.4,7.1,0.6c7.5,3.9,12.9-0.7,18.4-4.4c0.9-0.6,1.4-1.7,0.9-2.8c-0.4-1.1-1.4-1.5-2.5-1.6
					c-1.6-0.2-3,0.3-4.5,1c-4.1,2-8.3,2.1-12.8,1.5c1.5-1.2,4.5-2.1,8-2.6c4.1-0.6,8.2-1.1,12.2-2.2c0.7-0.2,1.6-0.2,2.2-0.8
					c2.4-2.5,4.5-1.8,6.5,0.4c5.4-0.9,10.7-2.2,16.2-2.6c1.2-0.1,2.3-0.6,2.6-1.9c0.3-1.4-0.7-2.2-1.8-2.7c-2.3-0.9-4.4-2.3-6.9-2.8
					c-0.9,0.1-1.8,0.2-2.7,0.2c-0.8,0-1.7,0.4-2.4-0.5c-2.7-2.4-6.4-2.4-9.5-4c-3.3-1.7-6.5-1.5-10-0.1c-4.4,1.8-8.9,3.6-13.6,4.7
					c-3.2,0.7-6.4,1.3-9.7,0.6c-7.5,0.5-15,1.6-22.6,1.9c-4.4,0.2-8.8,0.5-13.2,0.5c-1,0-1.9,0.2-2.5,1.2c-0.4,0.7-1.9,0.6-1.4,1.8
					c0.3,0.8,1.2,0.9,1.9,1c0.8,0.1,1.5,0,2.3,0.1c1,0.1,1.5,0.8,1.7,1.7c0.2,0.9-0.3,1.4-1.1,1.8c-0.9,0.4-2,0.8-1.3,2
					c0.6,1.2,1.6,1.6,2.9,0.7c0.9-0.6,1.6-0.7,2,0.6c1,1.4,2.5,0.4,3.8,0.6c0.6,0.9-0.6,2,0.3,2.9c1.4,2.2-0.9,3.5-1.5,5.6
					C675.3,74.7,677.2,74.9,679.1,75.5z"/>
				<path class="st27" d="M663.5,56.5c13,0.4,25.9-1.1,38.8-2.3c3.4-0.6,6.8-1,10-2c1.3-0.4,3.2-0.4,3.3-2.5
					c-4.8-0.1-9.5,1.1-14.3,1.4c-3.2,0.2-6.1,0.5-9.2-1c-2.5-1.1-5.6-1-8.5-0.9c-4.3,0.1-7.6-1.7-10.4-4.7c-1.6,0-3.3,0-4.9,0
					c-0.1,0.2-0.1,0.4-0.2,0.5c2.2,1.1,4.4,2.2,6.6,3.4c1.2,0.6,2.3,1.3,3.5,2.1c0.6,0.4,1.5,0.7,1.3,1.7c-0.2,0.8-1.1,1.1-1.8,1.2
					c-5.5,1.1-11,2.2-15.8-2.2c-1.4-1.3-3.4-1.8-5.4-1.6c-0.7,0.1-1.4,0.1-1.7,0.9c-0.3,0.8,0.4,1.2,0.8,1.7
					C657.6,54.5,660.7,55.2,663.5,56.5z"/>
				<path class="st28" d="M674.5,69.8c0.3-1.5,2.8-2.8,1.6-4.2c-1.1-1.3-3,0.2-4.5,0.5c-0.4,0.1-0.8,0.1-1.1,0.1
					c-5.3,2.4-10.1,1.5-14.4-2.3c-0.8-0.8-1.6-2.4-3-1c-1.3,1.3-1.4,2.9-0.4,4.4c0.4,0.6,0.8,1.2,1.3,1.5c6,3.3,12.3,4.7,19,2.2
					C673.6,70.8,674,70.2,674.5,69.8z"/>
				<path class="st29" d="M681.4,36.3c0-0.1,0-0.2,0-0.4c-4-2.9-8.8-4.1-13.4-5.7c-1.4-0.5-2.9-0.3-4.3,0.3c-6.2,2.6-12.5,5-18.9,7
					c-0.3,0.1-0.4,0.4-0.6,0.6c0.9,1.5,2.3,0.6,3.4,0.4c6.7-0.8,13.4-0.6,20-1C672.3,37.3,676.9,37.2,681.4,36.3z"/>
				<path class="st30" d="M644.3,38.1c6.9-0.7,13.1-3.6,19.4-6.3c1.8-0.8,3.4-0.8,5.2-0.1c4.1,1.5,8.3,2.8,12.5,4.3
					c0.1-1.3-1.3-1.1-1.9-1.7c-1.6-2.9-4.3-4.2-7.4-4.8c-0.3-0.2-0.7-0.4-1-0.6c-4.7-3.7-4.7-3.7-9.6-0.6c-2.1,1.3-4.2,2.6-6.3,4
					c-4.9,2.2-9.7,4.3-14.9,5.9C641.7,38.1,643,38.1,644.3,38.1z"/>
				<path class="st31" d="M616.5,43.3c1.5,1.1,2.9,2.4,4.8,2.8c6-0.3,11.9,0.2,17.9,0.6C632,43.1,624.5,41.8,616.5,43.3z"/>
				<path class="st32" d="M640.9,30c-1.8-1.1-3.8-0.4-5.7-0.5C637,30.4,639,29.8,640.9,30z"/>
				<path class="st33" d="M875,55.3c1.1,0.3,2.3,0.6,3.4,0.9c4.2-1.3,8.4-2.6,12.6-4c1.3-0.4,2.4-0.4,3.6,0c5.2,1.5,10.5,3,15.9,3.9
					c-5.8-2.2-11.1-5.3-16.2-8.9c-0.9-0.6-1.7-0.6-2.6,0c-2.5,1.4-5.1,2.7-7.6,4C881.2,52.7,877.9,53.5,875,55.3z"/>
				<path class="st34" d="M797.5,34c2.2,1.6,4.6,3.1,5.6,5.8c-0.1,1.9,1.3,2.5,2.7,2.8c6.3,1.4,12.5,1,18.7-0.5
					c1.2-0.3,2.5-0.2,3.7-0.6c4.6-2.2,7.6-6.1,10.6-9.9c0.5-0.6,0.7-1.4,0.2-2.2c-0.4-1.9-1.5-1.9-2.9-1c-0.5,0.3-1.2,0.5-1.4-0.3
					c-0.2-0.8,0.5-0.9,1.1-1c0.9-0.1,1.7-0.1,2.6-0.2c0.3,0,0.9-0.3,0.5-0.7c-0.2-0.2-0.7-0.2-1-0.3c-9.4,0.3-18.6-1.4-27.7-3.4
					c-2.6-0.4-5.3-0.7-8-1.1c-3.9-0.5-7.8-1.3-11.4-3c-1.7-0.8-3.4-0.9-5.1-0.3c-2.6,1-5.3,1.7-7.9,2.7c-2.6,1-3,2.6-0.8,4.4
					c1.4,1.2,2.6,2.5,3.8,3.9c0.4,0.4,1.1,0.5,1.5,0.9l0,0c0.6,0.6,1.3,0.6,2,0.5c0.9-0.4,1.3-1.1,1.7-1.9c1.2-2.1,2-2.4,4-1
					c1.7,1.3,3.1,2.9,4.4,4.5C795.2,33.1,796,34.1,797.5,34z"/>
				<path class="st4" d="M781.7,28.9c-0.8-2.1-3.1-2.8-4.5-4.4c-1.2-1.3-1.7-2,0.6-2.6c3-0.8,5.9-1.8,8.8-2.8c1-0.3,1.8-0.5,2.8,0.1
					c6.5,3.7,13.6,3.5,20.7,3.4c-6.9-2.1-13.8-4.1-20.7-6.1c-1.6-0.5-3-0.1-4.5,0.5c-2.8,1.2-5.8,2.2-8.6,3.3
					c-1.7,0.7-2.9,0.3-3.9-1.3c-1.8-2.7-3.7-5.4-5.5-8.1c-1.1-1.7-1.7-2.3-3.2-0.2c-4.5,6.2-10,11.4-16.1,16
					c-3,2.2-6.3,3.8-10.2,5.6c4.2,0.5,7.4-1.3,10.8-2c1.9,0.9,3.4-0.1,4.8-1c3.4-2,6.5-4.4,9.6-6.8c1.8-1.4,3.2-1.6,5.1-0.2
					c3.1,2.3,6.6,3.9,9.8,5.9C778.7,28.7,780,29.8,781.7,28.9z"/>
				<path class="st30" d="M844.9,24.8c6.7,1.5,13.2,0.3,19.5-2.1c1.3-0.5,2.2-0.7,3.5-0.1c3.5,1.7,7.2,2.5,11.1,2.9
					c0.7-0.1,1.5-0.1,3.1-0.3c-5.6-2.1-10.1-4.4-14.5-6.8c-0.9-0.5-1.8-0.6-2.8-0.1C858.3,21,851.7,23.2,844.9,24.8z"/>
				<path class="st35" d="M686.1,26c4.3-0.4,8.3-2.1,12.2-3.9c1.4-0.7,2.7-0.8,4.2-0.5c5.5,1.4,11,1.7,16.6,1.4
					c-4.2-1.8-8.8-1.9-13-3.3c-4.1-1.4-8-1.1-11.8,1.3c-3.6,2.2-8,2.6-11.6,4.9C683.7,27.2,684.9,26.5,686.1,26z"/>
				<path class="st11" d="M686.1,26c-1.2,0-2.3-0.1-3.5-0.1c-3.5,1.2-6.9,2.3-10.4,3.5c2.2,2,4.7,3.6,7.4,4.8c2.5-0.9,3-3.6,1.2-6.7
					C682.8,27.6,684.8,28,686.1,26z"/>
				<path class="st36" d="M839,29.5c-2.9,4.2-6.4,7.8-10.4,11c-1.8,1.2-4.2,1.4-5.6,3.3c-2.1,1.7-4.8,2.3-7.1,3.7
					c-0.7,0.4-1.4,0.6-2,1.1c-0.8,0.5-1.8,1.1-1.4,2.2c0.3,1,1.4,1.2,2.4,1.2c1.9,0,3.8-0.7,5.6-1c6.2-2,11.5-5.7,16.8-9.3
					c1.9-1.3,3.4-1.2,5.2,0.1c2.7,1.9,5.8,3.3,8.8,4.9c1.3,0.7,2.6,1.3,4.1,0.6c0.2,0,0.5,0,0.5-0.1c0.3-0.5-0.2-0.6-0.5-0.8
					c-2-1.1-3.5-2.8-5.2-4.3c-1.4-1.6-2.8-3.3-4.2-4.9c-1.6-2.1-3.2-4.3-4.8-6.4C840.6,29.9,840.4,28.7,839,29.5z"/>
				<path class="st34" d="M820.5,49.6c-2.5,0.1-4.9,1.4-8.2,0.9c4.3-2.1,8.1-3.9,11.5-6.2c-0.1-1.6-1.4-1.3-2.3-1.3
					c-2.2,0-4.4,0.5-6.6,0.7c-5,0.4-9.7-0.8-14.3-2.6c-1.3-0.5-2.5-1-3.8-0.2c-3.7-1.3-7.2,1.1-10.9,0.8c-1.6-0.1-0.3,1.4-0.1,2.2
					c-0.2,1.7,1,2.1,2.2,2.6c1.5,0.6,3.1,0.8,5.3,0.9c-3.9,2-7.2,1.8-10.4,0c-2.3-1.3-4.6-2.4-7-3.3c-2.8-1-3.8-0.5-4.6,2.4
					c-1,3.4-2.2,4.5-5.6,4.7c-2.8,0.1-5.6,0.2-8.4-0.1c-0.8-0.1-2.6,0.1-1.5-1.8c2.4-0.9,4.8-0.6,7.2-0.3c3.8-0.5,4.9-1.5,4.9-4.5
					c0-1.2-0.6-1.4-1.6-1.3c-7.3,0.4-14.6,0.3-21.8-0.7c-4.3-0.6-8.7-0.3-12.9-1.8c-3.1-1.1-4.2-0.3-4,2.6c4.2-0.6,6.3,3.3,9.8,4.2
					c1.7,0.1,3.6-0.3,5.1,0.8c0.6,0.5,0.4,1.3,0.6,1.9c0.5,1,1.5,1.4,2.3,2c0.2,0.1,0.5,0.2,0.7,0.2c1.2-0.4,2.2-0.1,3.2,0.6
					c2.3,0.9,4.6,1.9,6.9,2.9c0.6,0.3,1.7,0.5,1.4,1.5c-0.2,0.7-1,0.8-1.7,0.8c-4.8-0.3-9.2,1.8-13.9,1.8c-1.3,0-1.8,1-2.5,1.7
					c-2.5,1.7-3.3,4.5-4.9,6.9c-0.2,1.4-1.3,2.1-2.1,3c0,0.1,0,0.3-0.1,0.4c0.2,1.4,0.4,2.6,2.2,1.4c0.7-0.5,1.4-0.5,1.9,0.4
					c2-1.1,3.9-2.4,5.6-4c1.4-1.3,2.5-1.6,4.5-0.3c7.5,5,15.5,8.7,24.5,10.5c11.1,2.2,20.8-0.6,29.7-7c3.4-2.5,6.5-5.4,9-8.9
					c1.4-1.8,2.5-1.8,4.3-0.6c4.4,2.9,9,5.5,14,7.4c0.1-1.8-0.9-3.5-0.5-5.3c0.2-1.1-0.5-1.8-1.3-2.4c-3.9-2.6-8.1-4.4-12.9-4.4
					c-2,0-3.6,0.6-4.8,2.2c-1.4,1.8-3.2,3-4.9,4.2c-0.3-0.1-0.3-0.2-0.3-0.5c1-4.6,1-4.5,6-5.3c3.3-0.5,6.7-0.7,10-1.1
					c3-0.4,5.8-1.4,8.1-3.5c0.9-0.8,1.7-1.6,1.7-2.9c-1.5-2.6-3.3-3.3-6.6-2.5C821.7,49.6,821.2,50.1,820.5,49.6z"/>
				<path class="st37" d="M820.5,49.6c2.8,0.6,5.9,0.1,8.2,2.3c2.6,0.9,3.9-1.3,5.7-2.4c7.6,1.7,15.1,0.5,22.8,0
					c-0.3-1.7-1.7-1.5-2-2.5c-4.9-2.4-9.8-4.9-14.4-7.9c-1.4-0.9-2.2-0.2-3.3,0.5C832.2,43.5,826.8,47.3,820.5,49.6z"/>
				<path class="st28" d="M834.4,49.6c-2.6-0.8-3.7,1.8-5.7,2.4c-3.9,4.7-9.4,5.2-14.9,5.7c-3.2,0.3-6.3,0.8-9.5,1.1
					c-1.1,0.1-1.8,0.5-1.7,1.8c0.1,2,0,3.8-1.4,5.4c-0.4,0.4-0.5,1.1,0,1.6c0.5,0.5,1.1,0,1.6-0.2c2.4-1.6,5-3,6.6-5.5
					c1.1-1.6,2.4-2,4.2-1.9c5.3,0.3,9.8,2.5,14,5.6c4.4,1.9,8.6,4.4,13.4,5.3c0.6,0.1,1.1,0.3,1.7,0.4c1.2,0.1,3,0.9,3.3-0.5
					c0.4-1.5-1.6-1.6-2.7-2c-4.2-1.5-8.9-2.1-12.5-5.1c-0.6-0.5-1.3-0.9-1.8-1.4c-3.4-3.6-3.2-4.6,1.4-6.2
					C833.5,55,834.6,52.7,834.4,49.6z"/>
				<path class="st38" d="M874,64.1c-10-1.1-20-1-29.9-2.6C853.9,65,863.7,67.6,874,64.1z"/>
				<path class="st39" d="M767.8,44.5c-0.8,2.1-2.3,3.3-4.6,3.4c-2.9,0.4-5.9,0.4-8.8,0c-1.9,0.2-2,1.2-1,2.5
					c0.8,1.1,1.9,1.8,3.2,1.9c3.6,0.3,7.1,0.5,10.7,0c3.5-0.5,4.9-1.9,5.1-5.5c0.2-2.5,1.1-2.5,2.9-1.6c2.5,1.3,5,2.4,7.5,3.7
					c4.1,2,8,1.5,11.9-0.6c0.6-0.3,1.3-0.6,1-1.5c-0.2-0.6-0.9-0.6-1.5-0.6c-3-0.1-6,0-8.4-2.2c-5.3-2.8-10.9-5.2-14.6-10.3
					c-0.6-0.8-1.2-2-2.5-1.6c-1.2,0.5-0.7,1.8-0.8,2.8C767.3,38.1,769,41.3,767.8,44.5z"/>
				<path class="st40" d="M781.7,28.9c-5-2.6-10-5.3-14.6-8.6c-1.6-1.2-2.7-1-4.2,0.2c-4.7,3.6-9.2,7.4-14.8,9.6
					c0.4,0.7,0.9,1.2,1.8,1.3c5.5,0.2,11,0.8,16.4,0.4c4.2-0.4,8.4-0.6,12.6-0.4c1.1,0,2.3-0.9,3.4-1.3
					C782.1,29.6,781.9,29.2,781.7,28.9z"/>
				<path class="st15" d="M737,46.8c-1.1-0.9-2.3-1.7-3.4-2.6c-1.9-1.7-3.8-2.7-6.2-0.8c-3.6,2.7-7.5,4.8-11.7,6.3
					c-4,2.6-9,2.8-13.3,4.6c8.3,0.2,15.9-2.5,23.4-5.5c2.9-1.1,5.4-1.4,8.2-0.1c3.4,1.6,7.4,1.9,10.7,3.9c0.7,0.3,0.9-0.1,1-0.7
					c-0.8-0.5-1.5-1-2.3-1.6c-1.1-1.8-3.2-2.1-4.9-3.1C738,46.9,737.4,47.1,737,46.8z"/>
				<path class="st39" d="M713.8,40.4c2.1-0.4,5.1,0.2,5.2-1.4c0.2-1.9-2.7-1.8-4.4-2.3c-2.3-0.6-4.7-1-7.1-1.1
					c-4-0.2-7.8-0.8-10.6-4.2c-0.8-1-2.1-1.3-3.3-1.7c-1-0.3-2.2-0.8-2.8,0.4c-0.6,1.1,0.1,2,0.9,2.8c3.2,3.1,6.8,5.3,11.3,5.9
					C706.8,39.3,710.5,39.9,713.8,40.4z"/>
				<path class="st41" d="M796.8,40.9c8.1,4,16.6,5.2,25.5,3.1c0.6-0.1,1.1-0.2,1.6,0.3c1.6-1.3,3.2-2.6,4.8-3.9
					c-7.2,1.2-14.4,2.5-21.7,1.1c-1.4-0.3-2.9-0.5-3.8-1.7c-1.8-1.5-3.7-0.9-5.6-0.4C796.7,39.7,796.3,40.1,796.8,40.9z"/>
				<path class="st42" d="M797.5,34c-1.9-2.3-3.7-4.8-6.1-6.8c-1.4-1.2-2.9-2.4-4.9-1.7c-2,0.7-1.6,2.8-1.8,4.4
					c0.1,0.3,0.2,0.5,0.5,0.5c3.7,1.7,7.4,3.4,11.2,5c0.5,0.2,1.2,1,1.8,0.2C798.6,35.1,797.6,34.7,797.5,34z"/>
				<path class="st40" d="M785.2,30.5c-0.2-0.2-0.3-0.4-0.5-0.5c-0.8,0-1.6,0-2.4,0.1c-0.3,2,1.5,1.1,2.3,1.5
					C785.3,31.9,785.3,31,785.2,30.5z"/>
				<path class="st39" d="M735.3,69.2c1.4-2.4,3.4-4.6,4-7.5c-0.9-3.7-3.1-4.4-5.8-1.9c-2.2,2-5.2,1.9-7.9,2.4
					c-4.6,0.9-9.3,1.4-13.9,2.6c-0.7,0.2-1.3,0.3-2,0.5c-0.9,0.3-2,0.8-2,1.8c0.1,1.2,1.4,1.2,2.3,1.3c4.9,0.3,9.9,0.6,14.4-1.9
					c1.2-0.7,2.5-1,3.9-0.8c0.6,0.1,1.2,0.3,1.4,0.8c0.3,0.6-0.1,1.2-0.6,1.5c-3.5,2.2-7,4.5-11,5.6c-1.6,0.4-3.4,0.2-5-0.7
					c-2.5-1.4-5.2-1.9-8.1-2c-1.1-0.1-2.5-0.1-2.7,1.5c-0.2,1.5,0.8,2.2,2.2,2.5c9.3,2.2,18.5,3.5,26.9-2.7c0.2-0.2,0.5-0.2,0.8-0.2
					c0,0,0,0.1,0,0.1C733.3,71.1,734.7,70.5,735.3,69.2z"/>
				<path class="st34" d="M745.6,51.8c-0.3,0.2-0.7,0.4-1,0.7c-0.4,0.6-1.6,1.2-0.7,1.8c1.3,1,1.3-1.4,2.4-1.3
					c0.4-0.6-0.1-0.9-0.5-1.1L745.6,51.8z"/>
				<path class="st25" d="M745.8,51.9c0.2,0.4,0.4,0.8,0.5,1.1c1,0,1.9,0,2.9,0C748.4,51.7,747.4,50.9,745.8,51.9z"/>
				<path class="st39" d="M776.3,69.8c-5.7,0.3-11.4-0.5-16.6-3.9c-1.5-1-3.4-1.3-5.1-1.9c-0.7-0.2-1.6-0.3-2.2,0.3
					c-0.6,0.8,0.1,1.4,0.5,2c2.8,4.6,6.9,7.2,12.3,7.3c3,0.1,5.9,0.7,8.8,1.4c3.6,0.8,7.3,1.1,10.5-1.4c0.8-0.6,1.6-1.3,1.4-2.4
					c-0.2-1-1.3-1-2.1-1.2C781.4,69.4,779,70,776.3,69.8z"/>
				<path class="st38" d="M738.2,47.3c1.4,1.5,2.9,2.8,5.2,2.9c0.3-0.9,1.9-1.6,0.7-2.9C742.1,46.8,740.1,46.8,738.2,47.3z"/>
				<path class="st25" d="M754.4,47.9c2.9,0.8,5.9,0.9,8.8,0C760.2,47.9,757.3,47.9,754.4,47.9z"/>
				<path class="st25" d="M738.2,47.3c1.9,0,3.9,0,5.8,0c-2.3-1.2-4.7-0.4-7.1-0.6C737.4,46.9,737.8,47.1,738.2,47.3z"/>
				<path class="st26" d="M735.3,69.2c-1.1,0.8-2.4,1.5-3,2.8C733.8,71.6,735.2,71,735.3,69.2z"/>
			</g>
		</g>
	</g>
	<g class="st0">
		<defs>
			<rect id="SVGID_7_" x="213.4" y="3.8" width="371.4" height="88.3"/>
		</defs>
		<clipPath id="SVGID_8_">
			<use xlink:href="#SVGID_7_"  style="overflow:visible;"/>
		</clipPath>
		<g id="xsDX5g_1_" class="st44">
			<g>
				<path class="st2" d="M616.7,65.7c-7.2,0.5-13.9-1.9-20.5-4.2c-2.1-0.7-3.3-0.9-4.8,1.1c-2.1,2.9-5.3,4.6-8.3,6.6
					c-3,3.8-7.3,4.4-11.8,4.6c-1.2-0.6-2.4-0.9-3.9-0.6c-2.9,0.6-3.7-0.6-2.9-3.6c2.9-1.8,6.5-1.6,9.4-3.3c2.6-1.5,5.3-2.7,7.6-4.7
					c-2.1-0.1-4,0.6-5.9,1.3c-2.1,0.7-4.1,1.6-6.4,1.6c-2,0-3.7-0.7-3.9-3c-0.2-2.2,1.3-3.3,3.2-3.8c1.7-0.5,3.7,0.2,5.6-1
					c-1.6-0.5-3.3,0-4.6-0.8c-1.8-1.5-4.1-1.1-6.1-1c-7.7,0.3-15.3-1.5-23.1-1.3c-0.4,0-0.8,0-1.1-0.1c-1.3-0.4-2.8-0.7-2.8-2.4
					c0-1.5,1.2-2.1,2.4-2.5c1.1-0.4,2.2-0.8,3.4-0.7c2.4,0.1,4.6-0.5,6.8-1.3c3.3-0.9,6.4-2.4,9.7-3.4c2.3-0.7,4.5-0.7,6.7,0.2
					c4.8,1.9,9.7,3.4,14.7,4.9c1,0.3,2.1,0.4,3.1,0.5c3.9,0.5,7.9-0.2,11.8,0.7c3.4,0.8,7.1,0.3,10.4,2c2.1,1,4.6-0.4,6.4-3.1
					c-0.9-0.7-2-0.4-3-0.4c-9.5,0.4-18.8-0.9-28.2-1.5c-1.2-0.1-2.3-0.1-3.5,0.1c-1.6,0.4-3.1-0.1-4.5-0.8c-3.9-1.8-7.9-3.6-11-6.6
					c-1-1.5-2.2-2.9-2.8-4.6c-0.5-1.2-0.9-2.4,1-2.9c2.1,0.1,3.8,1.4,5.4,2.5c2.3,1.7,4.4,1.3,6.6-0.1c3.2-2.1,6.5-4.1,10-5.6
					c1.2-0.7,2.5-0.9,3.8-1c5.2-2.3,11.3-2.7,15.8-6.7c0.8-0.7,2-0.8,3-0.6c3.6,0.8,7.1,1.6,10.7,2.4c0.7,0.2,1.1,0.7,1.6,1.1
					c0,1,0,1.9,0,2.9c-0.8,1.5-1.5,3-3.6,3c-5.1-0.3-10.2,0.2-15.2,1.5c-0.9,0.2-2,0.5-2.7,1.1c-3.6,3.2-8,4.5-12.4,5.8
					c-0.5,0.1-1.2,0.3-1.4,1.1c1.2,1.1,2.6,0.6,3.9,0.2c4.7-1.3,8.7-4,13.1-6c3.2-1.4,6.4-2.9,10-1.8c0.5,0.3,1,0.6,1.3,1.1
					c0.2,1.8-1.4,2-2.4,2.7c-2.2,1.4-5.1,1.5-7.4,3.4c1.3,0.9,2.7,0.9,3.8,1.6c1,1,2.2,1,3.5,0.6c2-0.6,4.1-0.9,6.1-1.8
					c1.1-0.5,2.2-0.9,3.2,0.1C616.7,48,616.7,56.8,616.7,65.7z"/>
				<path class="st3" d="M205.3,57.6c-7.7,1.2-15.5,1.1-23.2,0c0-7.5,0-15,0-22.5c0.7-0.8,1.7-1.1,2.8-1.3c3.8-0.5,7.6-0.2,11.4,0.3
					c1.1,0.2,1.8-0.3,2.7-0.7c1-0.3,2.2-0.3,2.7,0.5c1.1,2,2.5,1.2,3.7,0.7c4-1.8,8.6-2.2,11.9-5.4c1.1-1.1,2.8-0.7,4.2-0.3
					c3.5,0.9,7.1,1.6,10.7,2.2c2.6,0.5,3.2,2,1.5,4c-1.2,1.4-2.6,2.6-4.4,3c-5.9-0.5-11.7,0.2-17.3,1.9c-0.6,0.2-1.3,0.5-1.7,1
					c-2.5,2.5-5.7,3.6-8.9,4.5c-1.5,0.4-2.9,0.9-4.2,2c1,1.1,2,0.7,3,0.6c3.2-0.4,6.1-1.7,8.9-3.3c1.1-0.6,2.2-1.3,3.5-1.2
					c1.4,0.7,2.7,0.6,4.1-0.1c1.1-0.6,2.2-0.6,3.2,0.3c0.4,0.6,1,0.7,1.8,0.7c7.8,0.1,15.7-0.4,23.5-1c4.3-0.3,8.6,0.4,12.9,0
					c0.9-0.1,2,0.2,2,1.6c-0.8,1.5-2.2,1.6-3.7,1.7c-3.5,0.1-6.9,0.7-10.2,1.7c-3.4,1.1-7.1,0.8-10.6,1.1
					c-8.7,0.6-17.4,1.9-26.1,2.4c-1.5,0.1-2.4,0.7-2.1,2.3c0.2,1.1,0,2.1-1.1,2.7C205.9,57.2,205.6,57.4,205.3,57.6z"/>
				<path class="st4" d="M229.1,37.4c1.9-1.2,3.5-2.7,5.2-4.8c-5.3-0.6-10.3-1.7-15.1-3c-0.5-0.1-1,0.1-1.3,0.5
					c-1.9,2.8-5.1,3.3-7.9,4.3c-2.8,0.9-5.7,1.7-8.7,2.6c1.7-3.2-1.2-2.3-2.3-3c-0.9,0.8-1.8,0.4-2.7,0c-4.4-2.3-8.5-5.1-12.4-8.1
					c-0.8-0.6-1-1.6-1.7-2.3c0-3.5,0-6.9,0-10.4c1.4,1.5,2.7,3.1,4.1,4.6c0.9,0.2,1.6,0.7,2.2,1.3c3.5,3.8,7.5,7.2,11.7,10.2
					c3.9,3.4,5.4,3.5,10-0.3c1.7-1.5,3.7-2.7,5.5-4.1c2.4-1.9,4.5,0.1,6.7,0.8c1,0.4,2.1,0.8,3.1,1c3.1,1.1,6.4,1.1,9.2,1.4
					c-1.7-0.8-4.3,0.6-6.2-1.1c0.7-2.5,3.2-1.3,4.7-2.4c1.6-0.1,3.1-0.6,4.5-1.2c1-0.3,2.1-0.3,3.1-0.7c4.6-1.5,8.9-1,13.1,1.4
					c2.5,1.7,5.5,2,8.2,3.3c1.1,0.5,2.4,0.8,2.7,2.2c-1.3,2-3.2,1.4-4.9,1.1c-3.9-0.8-7.7-1.7-11.2-3.5c3.2,3.8,7.1,6.7,11.2,9.3
					c2.9,2.3,6.2,3.9,9.5,5.7c1,0.4,1.9,1.3,3.1,1.3c1,0,2.1,0.5,2,1.6c-0.1,1.3-1.4,1.5-2.4,1.5c-3.6,0-7-0.9-10.2-2.4
					c-5.8-1.2-10.5-4.8-15.4-7.7c-2.5-1.5-4.5-1.9-7.1-0.3c-3.2,1.9-6.6,3.5-10.1,5c-1.3,0.5-2.6,1.4-4.1,0.4
					C224.6,38.6,227,38.1,229.1,37.4z"/>
				<path class="st6" d="M182.1,23.6c2,0.5,3.3,2.1,4.9,3.2c3.9,2.5,7.5,5.4,11.9,7.2c0.4,1.4-0.6,1.6-1.4,1.4
					c-5.1-1-10.2-0.4-15.4-0.3C182.1,31.3,182.1,27.4,182.1,23.6z"/>
				<path class="st7" d="M603.4,40.9c-1.2-0.2-2.4-0.4-3.7-0.6c-0.7-0.1-1.6-0.2-1.8-1.2c-0.1-0.9,0.7-1.3,1.3-1.7
					c3.3-2,7.2-2.4,10.4-4.5c1.5-2.2,4.8-3.6,6.9-3c0,1.9,0,3.8,0,5.8C614.6,38.9,607.4,41.7,603.4,40.9z"/>
				<path class="st8" d="M603.4,40.9c4.6-1.2,9-3.2,13.3-5.2c0,1.2,0,2.3,0,3.5c-3.3,1.2-6.5,2.8-10.2,2.7
					C605.4,41.8,604.1,42.3,603.4,40.9z"/>
				<path class="st9" d="M616.7,29.9c-2.3,1-4.6,2-6.9,3c-0.4-0.1-1,0-1-0.7c0.5-2.4,2.5-2.9,4.5-3.5c1.2-0.8,2.3-1.5,3.5-2.3
					C616.7,27.6,616.7,28.8,616.7,29.9z"/>
				<path class="st10" d="M616.7,79.5c-0.9-2.7-0.9-5.4,0-8.1C616.7,74.1,616.7,76.8,616.7,79.5z"/>
				<path class="st11" d="M571.5,73c-14.9,3.1-28.6-0.6-41.7-7.3c-1.9-1-2.9-0.9-4.2,0.9c-4.7,6.1-10.2,11.1-17.8,13.5
					c-5.1,0.7-10.2,1.7-15-1.1c-1.1-0.6-2.2-1.1-2.6-2.4c0.3-2.3,2.8-1.5,3.6-2.6c0.8-1.1-1-3.2,1.3-4.1c2.7,0.6,5.4,1.4,8.2,1.7
					c4.3,0.5,7.6-1.7,11.2-3.1c0.5-0.2,0.8-0.8,1.2-1.2c0.5-0.7,0.8-1.4,0.1-2.1c-0.7-0.6-1.3,0-1.8,0.4c-3.1,2.5-6.5,4.2-10.6,3.6
					c-1.7-0.3-3.5-0.4-4.6-2c-0.4-2.6,1.8-1.7,3-2.3c-2-3.5-1.5-5,2.3-6c1.2-0.3,1.5-1,1.7-2c0.7-1.5,2.1-1.9,3.4-2.5
					c1.4-0.5,2.6-1.2,3.4-2.8c-2-0.3-3.4,0.6-4.6,1.6c-5,4-10.6,3-16.3,1.9c-1.1-0.2-2.1-1-2.3-2.3c-0.2-1.3,0.6-2.1,1.7-2.7
					c2.6-1.5,5-3.5,8.1-4.2c-1.2,0.2-2.4,0.6-3.5,0c-2.6-0.9-5.1-1.5-7.9-0.8c-0.9,0.2-2,0.3-2.9,0c-3-1-6.1-0.9-9.1-1
					c-1.9-0.1-4.6,0-4.8-2.5c-0.2-2.5,2.4-2.7,4.1-3.2c2.7-0.7,5.3-1.6,8-2.4c1.8-0.5,3.6-0.6,5.3,0.2c3.4,0.8,6.9,0.6,10.3,0.7
					c7.8,0.3,15.5,0.7,23.2,1.5c1,0.1,1.9-0.2,2.9-0.2C525.3,38,526,38,526,38c-3.3-0.2-6.7-1.8-10.2-3.4c-0.9-0.4-1.9-1-1.8-2.3
					c0.8-1.7,2.3-1.9,3.8-1.9c3.5,0.1,7-0.5,10.4-1.1c1.9,0.4,3.8,0.1,5.7-0.4c0.3-0.1,0.7,0,1,0c4.2,0.7,8.2-0.8,12.2-1.2
					c3.2-0.4,5.8-0.3,8.2,1.8c0.5,0.4,1.2,0.5,1.7,1.1c0.7,0.8,0.6,1.6,0.1,2.4c-1.6,2.3-1.3,4.4,0.4,6.5c0.4,0.4,0.5,1,0.5,1.6
					c-0.7,2.5-2.7,3.3-5,3.7c-6.2-0.8-12.3-0.3-16.8,1.1c3.1-0.7,7.6-0.9,12.2,0c0.6,0.3,0.9,0.8,1,1.5c-3,1.3-6.3,1.4-9.5,2.2
					c-1,0.3-2.8,0.2-2.7,1.5c0.1,1.1,1.9,1.1,3,1.2c3.7,0.1,7.5-0.1,11.2,0.7c5.2,1.1,10.6,0,15.8,1c1.2,0.2,2.2,0.6,3.2,1.3
					c0,1.3-1,1.5-1.9,1.7c-3.3,0.7-6.4,2-9.4,3.5c-3.7,1.8-7.5,1.4-11.3,0.2c-3.8-1.1-7.3-2.9-11.4-4.2c2.3,1.6,4.6,2.4,6.8,3.3
					c0.8,0.3,1.6,0.7,2.2,1.3c1.4,1.3,1.1,2.6-0.7,3.2c-0.3,0.1-0.6,0.1-0.8,0.2c-1.1,0.1-2.1,0.1-2.6,0c6.5,2.4,13.8,3.8,21.4,4
					c1,0,1.9,0.2,2.4,1.3c-0.5,2.2,0.1,3.2,2.6,2.5C569,71.9,570.5,71.3,571.5,73z"/>
				<path class="st12" d="M565.1,69.8c-9.9,0.1-19.3-1.8-29-5.9c3.4-1.2,6.5,0,9.7-0.9c-1.6-1.8-3.7-2-5.4-2.9c-2-1-4-1.9-6-2.9
					c-0.6-0.3-1.2-0.8-0.9-1.6c0.3-0.8,1-0.7,1.7-0.6c3,0.3,5.6,2.1,8.4,3c2.3,0.7,4.6,1.6,6.9,2.2c2.3,0.6,4.7,0.8,6.8-0.3
					c4.1-2.2,8.5-3.6,13-4.5c1.3,0,2.7-0.1,4,0c1,0,2.4,0,2.5,1.3c0.1,1-1.2,1.3-2.1,1.6c-1.5,0.4-3,0.6-4.5,0.7
					c-0.9,0-1.9,0.2-2.8,0.5c-1,0.4-1.4,1.3-1.2,2.3c0.2,1,0.8,1.5,1.7,1.7c1.1,0.2,2.3,0.2,3.4-0.2c3.1-1,6.2-2.1,9.3-3.1
					c1-0.3,2.2-1.4,3.1-0.1c1,1.4-0.3,2.4-1.3,3C577.1,66.3,571.8,69.8,565.1,69.8z"/>
				<path class="st13" d="M576.7,45.5c10.3-0.6,20.5,1.7,30.9,1.3c2.4-0.1,5-0.4,7.8,0.8c-1.7,1.1-2.8,2.4-4,3.5
					c-2.2,2.2-5.1,2.5-7.8,0.9c-1-0.6-2-0.7-3.1-0.7c-5.2-0.3-10.3-1.3-15.5-1.2c-0.6,0-1.3-0.3-1.9-0.5c-0.9-1.5-2.7-0.9-3.9-1.6
					C578,47.5,576.3,47.5,576.7,45.5z"/>
				<path class="st14" d="M613.2,28.7c-1,1.8-2.9,2.5-4.5,3.5c-5.2-0.5-9.5,2-13.9,4.2c-2.5,1.3-4.9,2.7-7.6,3.6
					c-0.9,0.3-1.8,0.7-2.8,0.8c-2,0.2-4.7,0.7-5.2-1.7c-0.4-2.1,2.3-2.2,3.8-2.7c3.8-1.3,7.5-2.3,10.8-5.1c3.3-2.8,8-2.6,12.2-3
					C608.5,28.1,610.9,27.8,613.2,28.7z"/>
				<path class="st15" d="M576.7,45.5c2.1,2.3,5.5,1.9,8,3.6c-0.5,0.7-1.2,0.3-1.7,0.5c-6.4-0.8-12.5-2.9-18.4-5.3
					c-1.7-0.7-3.2-0.8-5-0.2c-3.3,1.2-6.7,2.2-10.1,3.2c-0.5-0.1-1-0.1-1.3-0.7c0.7-2.4,3.1-2,4.8-2.8c1.9-0.5,3.4-1.4,4.6-2.9
					c0.9-2.1,2.3-3.3,4.8-2.4C566.9,41.4,571.2,44.7,576.7,45.5z"/>
				<path class="st12" d="M562.3,38.5c-1.9,0.2-2.9,2.1-4.8,2.4c-3.7-3.2-3.8-5-0.6-9.8c0.1-0.4,0.3-0.6,0.7-0.6
					c0.7,0.6,1.5,1.1,2.2,1.7c-1.3,0.4-0.5,1.2-0.2,1.7C560.6,35.5,561.5,37,562.3,38.5z"/>
				<path class="st16" d="M256.2,72.1c-2.5-0.5-4.5-1.9-5.6-4.1c-0.9-1.9-2-2.1-3.8-1.8c-5.6,0.8-11.2,1.5-16.9,1.9
					c-6.7,0.4-11.2-2.6-14.7-7.9c-0.7-1-1.4-2.1-2-3.2c-0.6-1.3-1.4-1.6-2.8-1c-1.6,0.7-3.3,1.1-5,1.3c1-1,1.1-2,0.4-3.4
					c-1.1-2.2-0.2-3,2.2-3.2c10.1-0.8,20.1-2.1,30.1-2.7c7.3-0.4,14.3-2.9,21.6-3.1c0.5-0.7,1.2-1.1,1.8-1.7c3.9,1,7.7,2.6,12.6,2.1
					c-2.2-0.9-3.9-1.6-5.5-2.2c-0.1-1.3,1-1.5,1.9-1.7c5.4-0.9,10.7-0.8,16.1-0.6c1.9,0.1,3.5,1.1,4.9,2.2c1.4,1.1,1.9,2.7,1.3,4.4
					c-0.8,2.2-1.5,4.7-4.4,5.1c-0.9,0.1-1.7,0.1-2.6,0.1c-2.8-0.3-4.9-2.1-7.4-3.2c-1.5-0.7-2.7-0.7-4.1,0.3
					c-3.9,2.8-8.2,4.9-11.7,5.8c2.8-0.9,6.6-2.5,10.6-3.6c2.2-0.6,4.3-0.7,6.5,0.1c3.9,1.3,7.9,2.6,11.9,3.6
					c2.8,1.6,6.2,0.8,9.1,2.2c1.6,0.8,4.1,1.1,3.8,3.3c-0.4,2.4-2.9,1.5-4.6,1.7c-3.7,0.5-7.4,0.5-11.1,1.4
					c-3.8,0.9-7.6,0.4-11.5,0.9c-5.8,0.7-11.6,1.6-17.4,1.6c-1.6,0-1.6,1.3-1.6,2.5C258.4,70.7,258.3,72.2,256.2,72.1z"/>
				<path class="st17" d="M261.5,43.2c0,1.2-0.6,1.7-1.8,1.7c-1.5-1.2-2.9,0.1-4.4,0c-8.2-0.3-16.4,0.1-24.6,0.9
					c-3.4,0.3-7,0.1-10.5-0.1c-1.4-0.1-1.6-0.8-1-1.9c0.9-1.9,3-1.6,4.6-2.3c0.4-0.1,0.8,0,1.2,0.1c5.4-1.8,10.3-4.6,15.3-7.2
					c1.7-0.9,2.9-1,4.7,0.1c4.4,2.8,9.1,5.3,13.6,7.9C259.5,42.8,260.5,43.2,261.5,43.2z"/>
				<path class="st18" d="M225,41.5c-0.2,0.2-0.4,0.4-0.6,0.6c-2.8-0.6-5.3,0.5-7.7,1.4c-1.3,0.5-2.5,0.8-3.9,0.8
					c-4,1.6-7.4,4.5-11.9,4.9c-2.1,0.2-4.9,1.3-5.5-1.3c-0.6-2.3,2.4-2.5,4-3.1c3.8-1.3,7.4-2.5,10.7-5.2c3-2.5,7.4-2.4,11.3-2.7
					c2.6-0.2,5.2-0.6,7.7,0.4C227.7,38.8,226.4,40.1,225,41.5z"/>
				<path class="st16" d="M212.8,44.3c2.8-2.2,6.2-2.9,9.7-3.5c1-0.2,2-0.2,1.9,1.2c-1.6,0.9-3.3,1.6-5.2,1.7
					c-1.8-0.1-2.9,1.2-4.4,1.8C213.3,46.2,213.1,45.3,212.8,44.3z"/>
				<path class="st19" d="M324.6,25.3c2.4,0.4,4.7,0.7,7.1,1.1c0.6,1,1.5,0.5,2.3,0.6c0.9,0.1,1.5,0.4,1.5,1.4
					c0,1.1-0.7,1.5-1.6,1.6c-1,0.2-2.1-0.5-3,0.4c-1.9,1.1-2.8,3.1-4.1,4.7c-1.1,1.3-2,2.8-3.8,3.4c-4.5,1-8.8-0.4-13.1-1.3
					c-9.6-2.1-19-1.5-28.6,0.3c-5.7,1-11.7,1-17.5,1c-1.6,0-3.2-0.5-4.7-1.1c-5.2-2.4-9.1-6.6-13.2-10.5c-0.3-0.3-0.7-0.8-0.3-1.2
					c0.3-0.3,0.9-0.5,1.3-0.4c0.7,0.2,1.4,0.5,2.1,0.8c4.9,2.2,9.9,3.8,15.3,3.7c6.5,0.4,12.8-0.3,18.8-2.8c2.4-1,5-0.1,7.3-1.1
					c0.4-1,1.3-1,2.1-1.3c1.3-0.5,2.6-0.6,3.8-1.2c4.6-2.2,9-1.9,13.8-0.2C314.8,25.1,319.8,25.1,324.6,25.3z"/>
				<path class="st20" d="M259.2,37.5c9.5-0.5,19.1,0,28.4-2.2c4.6-1.1,9.4-1.2,14.1-0.6c6.2,0.8,12.3,2,18.5,3
					c1.2,0.2,2.3,0.3,3.4-0.2c0.3,3.1-2,4.3-4.1,5.5c-4-0.1-8,0.3-11.8,1.7c-3.5,1.2-6.2,3.3-6.6,7.5c-0.2,2.6-2.4,3.9-6.6,4.3
					c-2.5-1.2-5.3-1.4-7.7-2.9c-0.8-0.5-1.9-0.6-1.5-1.9c4.4,0.1,5.8-0.9,6.8-5.1c0.3-1.1-0.3-1.9-1.1-2.5c-1.1-0.9-2.4-1.8-3.9-1.9
					c-6.2-0.5-12.5-0.5-18.6,0.9C265.1,41.8,262,39.8,259.2,37.5z"/>
				<path class="st21" d="M208.9,29.4c0.6,0,1.2,0,1.6,0.5c-0.8,0.6-1.6,1.3-2.5,1.9c-3.4,2.3-5.9,1.8-8.5-1.8
					C202.6,29.7,205.8,30.5,208.9,29.4z"/>
				<path class="st22" d="M225.1,27.6c1-0.8,2.2-0.3,3.3-0.5c2.8,0,5.5,0,8.3,0c0.6,0,1.8-0.6,1.8,0.7c0,0.7-0.7,1.6-1.8,1.6
					c-1.4-0.1-2.9-0.2-4.3-0.4C230,28.6,227.5,28.4,225.1,27.6z"/>
				<path class="st23" d="M233.2,25.5c-0.5-0.4-0.9-0.8-1.9-1.7c2.6,0.4,4.5,0.1,6.4,0.9C236.2,24.9,234.7,25.2,233.2,25.5z"/>
				<path class="st24" d="M341.5,71.4c-8.2,4-16.9,6.2-26.1,6.4c-1.1,0.3-2.3,0.4-3.4-0.1c-5.8-1-11.7-2-17.4-3.8
					c-0.6-0.2-1.2-0.5-1.8-0.8c-3.5-1.7-7-3.5-10-6.2c-1-0.9-2.1-0.8-3.2-0.3c-2.9,1.3-5.7,2.8-8.6,4c-3.6,1.5-7.4,2.6-11.4,2.5
					c-1.3,0-2.5-0.1-3.5-1.1c1.1-0.6,1.2-1.5,1-2.7c-0.7-4,0.1-4.7,4-4c0.7,0.1,1.6,0.3,2.3,0.2c7.6-1.4,15.4-1.6,23.1-2.4
					c5.8-0.6,11.5-1.5,18.1-1.8c-4.4-3.4-9.2-3.5-13.5-4.7c0.7-1.7,2.1-1.1,3.4-0.9c1.1-0.4,2.2-0.8,3.3-1.1
					c1.6-0.5,2.5-1.2,2.2-3.2c-0.4-2.8,1.8-4.7,3.8-6c4.7-3.1,10-4.1,15.6-2.9c0.3,1.8-1.3,2.3-2.3,3.3c-0.9,0.8-2.1,1.3-2.4,2.6
					c0.3,1.6,1.7,1.1,2.5,1.1c5.3-0.2,10.7,0.7,16,0c0.7-0.1,1.3,0,1.9,0.3c0.6,0.4,0.9,1,1.1,1.7c0.5,2.3,2,3.5,4.2,4.3
					c3.8,1.4,4.4,3.5,1.9,6.7c-2.2,2.8-5.1,4.6-8.4,5.8c-2.3,0.9-4.8,1.4-7.3,2.3c4.1-0.8,7.9-2.1,11.5-3.9c1.4-0.7,2.9-1.7,4.5-0.1
					C343.7,68.4,342.7,70,341.5,71.4z"/>
				<path class="st9" d="M534.4,29.9c2.8-1.2,5.8-1.1,8.7-1.9c1-0.3,2-0.7,3-1c0.3,0,0.6,0.1,0.9,0c4.7-2.1,7.7,0.9,10.8,3.5
					c-0.2,0.2-0.4,0.4-0.7,0.6c-4-3.3-8.5-3-13.2-2C540.7,29.8,537.6,30.1,534.4,29.9z"/>
				<path class="st25" d="M422,27c3.1-1.3,6.5-0.3,9.7-0.9c6.3-1.1,12.6-1.8,18.8-2.7c5.9-0.7,11.8-1.6,17.6-2.7
					c2.8-0.6,5.2,1.2,7.6,2.4c2.4,1.1,4.9,1.5,7.3,2.5c1.8,0.7,3.4,2.2,5.6,1.8c1.1-0.2,1.1,1,0.8,1.7c-0.9,1.9,0,3.5,0.8,5.2
					c0.2,1.2-0.7,1.6-1.5,2c-0.2,0.2-0.4,0.3-0.6,0.5c-1.6-0.6-3.1-0.4-4.7,0.1c-3.5,1.1-7,2.1-10.5,3.1c-0.6,0.2-1.5,0.3-1.3,1.2
					c0.1,0.7,0.8,0.6,1.4,0.8c1.8,0.5,3.6,0.6,5.4,0.5c2-0.1,4,0,6,0.8c1.2,0.5,2.4,0.4,3.7,0.1c3-0.7,5.7-0.2,8.3,1.5
					c0.2,1.1-0.2,1.9-1.1,2.4c-2.8,1.7-5.5,3.5-9.2,3.5c-3.5,0-7,0.2-10.4,1.7c-2.4,1-5.1,0.4-7.7,0.2c-4.6-0.3-9-2.1-13.6-1.7
					c-4.9-1.1-9.5-3-12.8-7c-0.5-2.5-1.9-2.9-4-1.7c-1.8,1-3.6,1-5.6,1.1c-3.5,0.1-7,0.8-10.5,1.1c-5.9,0.5-11.7,0.3-17.6,0.4
					c-0.7,0-1.3,0-2,0.2c-2.5-0.6-1.9-2.6-1.7-4.2c0.2-2,0.7-4.1-0.3-6.7c-3.2,4.6-7.7,6.8-11.9,9.4c-1.3,0.8-2.6,1.7-4.3,0.9
					c-0.7-0.6-1.3-1.4-2.4-1.4c-2.9,0.1-5.6-1.1-8.5-1.3c-1.2-1.1-2.8-1.4-4.4-1.3c-0.8,0-1.7,0.3-2.4-0.4c0-3,2.4-5.5,5.7-6.1
					c1.5,0.9,2.7,0.1,4-0.4c2.7-1.1,5.1-3,8.2-3.1c1.1,0.1,2.3,0.9,3.3-0.3c0.3-0.2,0.5-0.2,0.8-0.3c8.9,0.4,17.8,1.9,26.8,0.5
					c2.1-0.3,4.2,1,6.2-0.5c1.6-0.6,3,0,4.4,0.7c2.1,0.9,4.2,1.6,6.5,2c-2.7-0.5-5.4-1.3-7.8-2.7C423.1,29.3,421.7,28.8,422,27z"/>
				<path class="st26" d="M490.4,76c-1.3-0.7-2.9-1.2-4-2.2c-2.5-2.1-4.2-1.6-6.5,0.7c-9.1,8.7-20.1,10-31.9,6.9
					c-5.4-1.4-10.5-3.6-15-7.1c-0.2-1.5,0.8-1.6,1.8-1.4c1.1,0.3,1.8-0.5,2.6-0.8c2-0.4,3.6,0.7,5.1,1.6c4.2,2.7,8.8,2.6,13.4,2.1
					c3-0.3,6.2-0.7,9.6-2.4c-2.9-1.1-5.2-0.4-7.1,0.6c-7.5,3.9-12.9-0.7-18.4-4.4c-0.9-0.6-1.4-1.7-0.9-2.8c0.4-1.1,1.4-1.5,2.5-1.6
					c1.6-0.2,3,0.3,4.5,1c4.1,2,8.3,2.1,12.8,1.5c-1.5-1.2-4.5-2.1-8-2.6c-4.1-0.6-8.2-1.1-12.2-2.2c-0.7-0.2-1.6-0.2-2.2-0.8
					c-2.4-2.5-4.5-1.8-6.5,0.4c-5.4-0.9-10.7-2.2-16.2-2.6c-1.2-0.1-2.3-0.6-2.6-1.9c-0.3-1.4,0.7-2.2,1.8-2.7
					c2.3-0.9,4.4-2.3,6.9-2.8c0.9,0.1,1.8,0.2,2.7,0.2c0.8,0,1.7,0.4,2.4-0.5c2.7-2.4,6.4-2.4,9.5-4c3.3-1.7,6.5-1.5,10-0.1
					c4.4,1.8,8.9,3.6,13.6,4.7c3.2,0.7,6.4,1.3,9.7,0.6c7.5,0.5,15,1.6,22.6,1.9c4.4,0.2,8.8,0.5,13.2,0.5c1,0,1.9,0.2,2.5,1.2
					c0.4,0.7,1.9,0.6,1.4,1.8c-0.3,0.8-1.2,0.9-1.9,1c-0.8,0.1-1.5,0-2.3,0.1c-1,0.1-1.5,0.8-1.7,1.7c-0.2,0.9,0.3,1.4,1.1,1.8
					c0.9,0.4,2,0.8,1.3,2c-0.6,1.2-1.6,1.6-2.9,0.7c-0.9-0.6-1.6-0.7-2,0.6c-1,1.4-2.5,0.4-3.8,0.6c-0.6,0.9,0.6,2-0.3,2.9
					c-1.4,2.2,0.9,3.5,1.5,5.6C494.2,75.3,492.3,75.4,490.4,76z"/>
				<path class="st27" d="M506,57c-13,0.4-25.9-1.1-38.8-2.3c-3.4-0.6-6.8-1-10-2c-1.3-0.4-3.2-0.4-3.3-2.5
					c4.8-0.1,9.5,1.1,14.3,1.4c3.2,0.2,6.1,0.5,9.2-1c2.5-1.1,5.6-1,8.5-0.9c4.3,0.1,7.6-1.7,10.4-4.7c1.6,0,3.3,0,4.9,0
					c0.1,0.2,0.1,0.4,0.2,0.5c-2.2,1.1-4.4,2.2-6.6,3.4c-1.2,0.6-2.3,1.3-3.5,2.1c-0.6,0.4-1.5,0.7-1.3,1.7c0.2,0.8,1.1,1.1,1.8,1.2
					c5.5,1.1,11,2.2,15.8-2.2c1.4-1.3,3.4-1.8,5.4-1.6c0.7,0.1,1.4,0.1,1.7,0.9c0.3,0.8-0.4,1.2-0.8,1.7C511.9,55,508.8,55.7,506,57
					z"/>
				<path class="st28" d="M495,70.3c-0.3-1.5-2.8-2.8-1.6-4.2c1.1-1.3,3,0.2,4.5,0.5c0.4,0.1,0.8,0.1,1.1,0.1
					c5.3,2.4,10.1,1.5,14.4-2.3c0.8-0.8,1.6-2.4,3-1c1.3,1.3,1.4,2.9,0.4,4.4c-0.4,0.6-0.8,1.2-1.3,1.5c-6,3.3-12.3,4.7-19,2.2
					C495.9,71.3,495.5,70.7,495,70.3z"/>
				<path class="st29" d="M488.1,36.8c0-0.1,0-0.2,0-0.4c4-2.9,8.8-4.1,13.4-5.7c1.4-0.5,2.9-0.3,4.3,0.3c6.2,2.6,12.5,5,18.9,7
					c0.3,0.1,0.4,0.4,0.6,0.6c-0.9,1.5-2.3,0.6-3.4,0.4c-6.7-0.8-13.4-0.6-20-1C497.2,37.8,492.6,37.7,488.1,36.8z"/>
				<path class="st30" d="M525.2,38.6c-6.9-0.7-13.1-3.6-19.4-6.3c-1.8-0.8-3.4-0.8-5.2-0.1c-4.1,1.5-8.3,2.8-12.5,4.3
					c-0.1-1.3,1.3-1.1,1.9-1.7c1.6-2.9,4.3-4.2,7.4-4.8c0.3-0.2,0.7-0.4,1-0.6c4.7-3.7,4.7-3.7,9.6-0.6c2.1,1.3,4.2,2.6,6.3,4
					c4.9,2.2,9.7,4.3,14.9,5.9C527.8,38.6,526.5,38.6,525.2,38.6z"/>
				<path class="st31" d="M553,43.8c-1.5,1.1-2.9,2.4-4.8,2.8c-6-0.3-11.9,0.2-17.9,0.6C537.5,43.6,545,42.3,553,43.8z"/>
				<path class="st32" d="M528.6,30.5c1.8-1.1,3.8-0.4,5.7-0.5C532.5,30.9,530.5,30.3,528.6,30.5z"/>
				<path class="st33" d="M294.5,55.8c-1.1,0.3-2.3,0.6-3.4,0.9c-4.2-1.3-8.4-2.6-12.6-4c-1.3-0.4-2.4-0.4-3.6,0
					c-5.2,1.5-10.5,3-15.9,3.9c5.8-2.2,11.1-5.3,16.2-8.9c0.9-0.6,1.7-0.6,2.6,0c2.5,1.4,5.1,2.7,7.6,4
					C288.3,53.2,291.6,54,294.5,55.8z"/>
				<path class="st34" d="M372,34.5c-2.2,1.6-4.6,3.1-5.6,5.8c0.1,1.9-1.3,2.5-2.7,2.8c-6.3,1.4-12.5,1-18.7-0.5
					c-1.2-0.3-2.5-0.2-3.7-0.6c-4.6-2.2-7.6-6.1-10.6-9.9c-0.5-0.6-0.7-1.4-0.2-2.2c0.4-1.9,1.5-1.9,2.9-1c0.5,0.3,1.2,0.5,1.4-0.3
					c0.2-0.8-0.5-0.9-1.1-1c-0.9-0.1-1.7-0.1-2.6-0.2c-0.3,0-0.9-0.3-0.5-0.7c0.2-0.2,0.7-0.2,1-0.3c9.4,0.3,18.6-1.4,27.7-3.4
					c2.6-0.4,5.3-0.7,8-1.1c3.9-0.5,7.8-1.3,11.4-3c1.7-0.8,3.4-0.9,5.1-0.3c2.6,1,5.3,1.7,7.9,2.7c2.6,1,3,2.6,0.8,4.4
					c-1.4,1.2-2.6,2.5-3.8,3.9c-0.4,0.4-1.1,0.5-1.5,0.9l0,0c-0.6,0.6-1.3,0.6-2,0.5c-0.9-0.4-1.3-1.1-1.7-1.9c-1.2-2.1-2-2.4-4-1
					c-1.7,1.3-3.1,2.9-4.4,4.5C374.3,33.6,373.5,34.7,372,34.5z"/>
				<path class="st4" d="M387.8,29.4c0.8-2.1,3.1-2.8,4.5-4.4c1.2-1.3,1.7-2-0.6-2.6c-3-0.8-5.9-1.8-8.8-2.8c-1-0.3-1.8-0.5-2.8,0.1
					c-6.5,3.7-13.6,3.5-20.7,3.4c6.9-2.1,13.8-4.1,20.7-6.1c1.6-0.5,3-0.1,4.5,0.5c2.8,1.2,5.8,2.2,8.6,3.3c1.7,0.7,2.9,0.3,3.9-1.3
					c1.8-2.7,3.7-5.4,5.5-8.1c1.1-1.7,1.7-2.3,3.2-0.2c4.5,6.2,10,11.4,16.1,16c3,2.2,6.3,3.8,10.2,5.6c-4.2,0.5-7.4-1.3-10.8-2
					c-1.9,0.9-3.4-0.1-4.8-1c-3.4-2-6.5-4.4-9.6-6.8c-1.8-1.4-3.2-1.6-5.1-0.2c-3.1,2.3-6.6,3.9-9.8,5.9
					C390.8,29.2,389.5,30.3,387.8,29.4z"/>
				<path class="st30" d="M324.6,25.3c-6.7,1.5-13.2,0.3-19.5-2.1c-1.3-0.5-2.2-0.7-3.5-0.1c-3.5,1.7-7.2,2.5-11.1,2.9
					c-0.7-0.1-1.5-0.1-3.1-0.3c5.6-2.1,10.1-4.4,14.5-6.8c0.9-0.5,1.8-0.6,2.8-0.1C311.2,21.5,317.8,23.7,324.6,25.3z"/>
				<path class="st35" d="M483.4,26.5c-4.3-0.4-8.3-2.1-12.2-3.9c-1.4-0.7-2.7-0.8-4.2-0.5c-5.5,1.4-11,1.7-16.6,1.4
					c4.2-1.8,8.8-1.9,13-3.3c4.1-1.4,8-1.1,11.8,1.3c3.6,2.2,8,2.6,11.6,4.9C485.8,27.7,484.6,27,483.4,26.5z"/>
				<path class="st11" d="M483.4,26.5c1.2,0,2.3-0.1,3.5-0.1c3.5,1.2,6.9,2.3,10.4,3.5c-2.2,2-4.7,3.6-7.4,4.8
					c-2.5-0.9-3-3.6-1.2-6.7C486.7,28.1,484.7,28.5,483.4,26.5z"/>
				<path class="st36" d="M330.5,30c2.9,4.2,6.4,7.8,10.4,11c1.8,1.2,4.2,1.4,5.6,3.3c2.1,1.7,4.8,2.3,7.1,3.7
					c0.7,0.4,1.4,0.6,2,1.1c0.8,0.5,1.8,1.1,1.4,2.2c-0.3,1-1.4,1.2-2.4,1.2c-1.9,0-3.8-0.7-5.6-1c-6.2-2-11.5-5.7-16.8-9.3
					c-1.9-1.3-3.4-1.2-5.2,0.1c-2.7,1.9-5.8,3.3-8.8,4.9c-1.3,0.7-2.6,1.3-4.1,0.6c-0.2,0-0.5,0-0.5-0.1c-0.3-0.5,0.2-0.6,0.5-0.8
					c2-1.1,3.5-2.8,5.2-4.3c1.4-1.6,2.8-3.3,4.2-4.9c1.6-2.1,3.2-4.3,4.8-6.4C328.9,30.5,329.1,29.2,330.5,30z"/>
				<path class="st34" d="M349,50.1c2.5,0.1,4.9,1.4,8.2,0.9c-4.3-2.1-8.1-3.9-11.5-6.2c0.1-1.6,1.4-1.3,2.3-1.3
					c2.2,0,4.4,0.5,6.6,0.7c5,0.4,9.7-0.8,14.3-2.6c1.3-0.5,2.5-1,3.8-0.2c3.7-1.3,7.2,1.1,10.9,0.8c1.6-0.1,0.3,1.4,0.1,2.2
					c0.2,1.7-1,2.1-2.2,2.6c-1.5,0.6-3.1,0.8-5.3,0.9c3.9,2,7.2,1.8,10.4,0c2.3-1.3,4.6-2.4,7-3.3c2.8-1,3.8-0.5,4.6,2.4
					c1,3.4,2.2,4.5,5.6,4.7c2.8,0.1,5.6,0.2,8.4-0.1c0.8-0.1,2.6,0.1,1.5-1.8c-2.4-0.9-4.8-0.6-7.2-0.3c-3.8-0.5-4.9-1.5-4.9-4.5
					c0-1.2,0.6-1.4,1.6-1.3c7.3,0.4,14.6,0.3,21.8-0.7c4.3-0.6,8.7-0.3,12.9-1.8c3.1-1.1,4.2-0.3,4,2.6c-4.2-0.6-6.3,3.3-9.8,4.2
					c-1.7,0.1-3.6-0.3-5.1,0.8c-0.6,0.5-0.4,1.3-0.6,1.9c-0.5,1-1.5,1.4-2.3,2c-0.2,0.1-0.5,0.2-0.7,0.2c-1.2-0.4-2.2-0.1-3.2,0.6
					c-2.3,0.9-4.6,1.9-6.9,2.9c-0.6,0.3-1.7,0.5-1.4,1.5c0.2,0.7,1,0.8,1.7,0.8c4.8-0.3,9.2,1.8,13.9,1.8c1.3,0,1.8,1,2.5,1.7
					c2.5,1.7,3.3,4.5,4.9,6.9c0.2,1.4,1.3,2.1,2.1,3c0,0.1,0,0.3,0.1,0.4c-0.2,1.4-0.4,2.6-2.2,1.4c-0.7-0.5-1.4-0.5-1.9,0.4
					c-2-1.1-3.9-2.4-5.6-4c-1.4-1.3-2.5-1.6-4.5-0.3c-7.5,5-15.5,8.7-24.5,10.5c-11.1,2.2-20.8-0.6-29.7-7c-3.4-2.5-6.5-5.4-9-8.9
					c-1.4-1.8-2.5-1.8-4.3-0.6c-4.4,2.9-9,5.5-14,7.4c-0.1-1.8,0.9-3.5,0.5-5.3c-0.2-1.1,0.5-1.8,1.3-2.4c3.9-2.6,8.1-4.4,12.9-4.4
					c2,0,3.6,0.6,4.8,2.2c1.4,1.8,3.2,3,4.9,4.2c0.3-0.1,0.3-0.2,0.3-0.5c-1-4.6-1-4.5-6-5.3c-3.3-0.5-6.7-0.7-10-1.1
					c-3-0.4-5.8-1.4-8.1-3.5c-0.9-0.8-1.7-1.6-1.7-2.9c1.5-2.6,3.3-3.3,6.6-2.5C347.8,50.1,348.3,50.6,349,50.1z"/>
				<path class="st37" d="M349,50.1c-2.8,0.6-5.9,0.1-8.2,2.3c-2.6,0.9-3.9-1.3-5.7-2.4c-7.6,1.7-15.1,0.5-22.8,0
					c0.3-1.7,1.7-1.5,2-2.5c4.9-2.4,9.8-4.9,14.4-7.9c1.4-0.9,2.2-0.2,3.3,0.5C337.3,44,342.7,47.8,349,50.1z"/>
				<path class="st28" d="M335.1,50.1c2.6-0.8,3.7,1.8,5.7,2.4c3.9,4.7,9.4,5.2,14.9,5.7c3.2,0.3,6.3,0.8,9.5,1.1
					c1.1,0.1,1.8,0.5,1.7,1.8c-0.1,2,0,3.8,1.4,5.4c0.4,0.4,0.5,1.1,0,1.6c-0.5,0.5-1.1,0-1.6-0.2c-2.4-1.6-5-3-6.6-5.5
					c-1.1-1.6-2.4-2-4.2-1.9c-5.3,0.3-9.8,2.5-14,5.6c-4.4,1.9-8.6,4.4-13.4,5.3c-0.6,0.1-1.1,0.3-1.7,0.4c-1.2,0.1-3,0.9-3.3-0.5
					c-0.4-1.5,1.6-1.6,2.7-2c4.2-1.5,8.9-2.1,12.5-5.1c0.6-0.5,1.3-0.9,1.8-1.4c3.4-3.6,3.2-4.6-1.4-6.2
					C336,55.5,334.9,53.2,335.1,50.1z"/>
				<path class="st38" d="M295.5,64.6c10-1.1,20-1,29.9-2.6C315.6,65.5,305.8,68.1,295.5,64.6z"/>
				<path class="st39" d="M401.7,45c0.8,2.1,2.3,3.3,4.6,3.4c2.9,0.4,5.9,0.4,8.8,0c1.9,0.2,2,1.2,1,2.5c-0.8,1.1-1.9,1.8-3.2,1.9
					c-3.6,0.3-7.1,0.5-10.7,0c-3.5-0.5-4.9-1.9-5.1-5.5c-0.2-2.5-1.1-2.5-2.9-1.6c-2.5,1.3-5,2.4-7.5,3.7c-4.1,2-8,1.5-11.9-0.6
					c-0.6-0.3-1.3-0.6-1-1.5c0.2-0.6,0.9-0.6,1.5-0.6c3-0.1,6,0,8.4-2.2c5.3-2.8,10.9-5.2,14.6-10.3c0.6-0.8,1.2-2,2.5-1.6
					c1.2,0.5,0.7,1.8,0.8,2.8C402.2,38.6,400.5,41.8,401.7,45z"/>
				<path class="st40" d="M387.8,29.4c5-2.6,10-5.3,14.6-8.6c1.6-1.2,2.7-1,4.2,0.2c4.7,3.6,9.2,7.4,14.8,9.6
					c-0.4,0.7-0.9,1.2-1.8,1.3c-5.5,0.2-11,0.8-16.4,0.4c-4.2-0.4-8.4-0.6-12.6-0.4c-1.1,0-2.3-0.9-3.4-1.3
					C387.4,30.1,387.6,29.8,387.8,29.4z"/>
				<path class="st15" d="M432.5,47.3c1.1-0.9,2.3-1.7,3.4-2.6c1.9-1.7,3.8-2.7,6.2-0.8c3.6,2.7,7.5,4.8,11.7,6.3
					c4,2.6,9,2.8,13.3,4.6c-8.3,0.2-15.9-2.5-23.4-5.5c-2.9-1.1-5.4-1.4-8.2-0.1c-3.4,1.6-7.4,1.9-10.7,3.9c-0.7,0.3-0.9-0.1-1-0.7
					c0.8-0.5,1.5-1,2.3-1.6c1.1-1.8,3.2-2.1,4.9-3.1C431.5,47.5,432.1,47.6,432.5,47.3z"/>
				<path class="st39" d="M455.7,40.9c-2.1-0.4-5.1,0.2-5.2-1.4c-0.2-1.9,2.7-1.8,4.4-2.3c2.3-0.6,4.7-1,7.1-1.1
					c4-0.2,7.8-0.8,10.6-4.2c0.8-1,2.1-1.3,3.3-1.7c1-0.3,2.2-0.8,2.8,0.4c0.6,1.1-0.1,2-0.9,2.8c-3.2,3.1-6.8,5.3-11.3,5.9
					C462.7,39.9,459,40.5,455.7,40.9z"/>
				<path class="st41" d="M372.7,41.4c-8.1,4-16.6,5.2-25.5,3.1c-0.6-0.1-1.1-0.2-1.6,0.3c-1.6-1.3-3.2-2.6-4.8-3.9
					c7.2,1.2,14.4,2.5,21.7,1.1c1.4-0.3,2.9-0.5,3.8-1.7c1.8-1.5,3.7-0.9,5.6-0.4C372.8,40.2,373.2,40.6,372.7,41.4z"/>
				<path class="st42" d="M372,34.5c1.9-2.3,3.7-4.8,6.1-6.8c1.4-1.2,2.9-2.4,4.9-1.7c2,0.7,1.6,2.8,1.8,4.4
					c-0.1,0.3-0.2,0.5-0.5,0.5c-3.7,1.7-7.4,3.4-11.2,5c-0.5,0.2-1.2,1-1.8,0.2C370.9,35.6,371.9,35.2,372,34.5z"/>
				<path class="st40" d="M384.3,31c0.2-0.2,0.3-0.4,0.5-0.5c0.8,0,1.6,0,2.4,0.1c0.3,2-1.5,1.1-2.3,1.5
					C384.2,32.4,384.2,31.5,384.3,31z"/>
				<path class="st39" d="M434.2,69.7c-1.4-2.4-3.4-4.6-4-7.5c0.9-3.7,3.1-4.4,5.8-1.9c2.2,2,5.2,1.9,7.9,2.4
					c4.6,0.9,9.3,1.4,13.9,2.6c0.7,0.2,1.3,0.3,2,0.5c0.9,0.3,2,0.8,2,1.8c-0.1,1.2-1.4,1.2-2.3,1.3c-4.9,0.3-9.9,0.6-14.4-1.9
					c-1.2-0.7-2.5-1-3.9-0.8c-0.6,0.1-1.2,0.3-1.4,0.8c-0.3,0.6,0.1,1.2,0.6,1.5c3.5,2.2,7,4.5,11,5.6c1.6,0.4,3.4,0.2,5-0.7
					c2.5-1.4,5.2-1.9,8.1-2c1.1-0.1,2.5-0.1,2.7,1.5c0.2,1.5-0.8,2.2-2.2,2.5c-9.3,2.2-18.5,3.5-26.9-2.7c-0.2-0.2-0.5-0.2-0.8-0.2
					c0,0,0,0.1,0,0.1C436.2,71.6,434.8,71.1,434.2,69.7z"/>
				<path class="st34" d="M423.9,52.3c0.3,0.2,0.7,0.4,1,0.7c0.4,0.6,1.6,1.2,0.7,1.8c-1.3,1-1.3-1.4-2.4-1.3
					c-0.4-0.6,0.1-0.9,0.5-1.1L423.9,52.3z"/>
				<path class="st25" d="M423.7,52.4c-0.2,0.4-0.4,0.8-0.5,1.1c-1,0-1.9,0-2.9,0C421.1,52.2,422.1,51.4,423.7,52.4z"/>
				<path class="st39" d="M393.2,70.3c5.7,0.3,11.4-0.5,16.6-3.9c1.5-1,3.4-1.3,5.1-1.9c0.7-0.2,1.6-0.3,2.2,0.3
					c0.6,0.8-0.1,1.4-0.5,2c-2.8,4.6-6.9,7.2-12.3,7.3c-3,0.1-5.9,0.7-8.8,1.4c-3.6,0.8-7.3,1.1-10.5-1.4c-0.8-0.6-1.6-1.3-1.4-2.4
					c0.2-1,1.3-1,2.1-1.2C388.1,69.9,390.5,70.5,393.2,70.3z"/>
				<path class="st38" d="M431.3,47.8c-1.4,1.5-2.9,2.8-5.2,2.9c-0.3-0.9-1.9-1.6-0.7-2.9C427.4,47.3,429.4,47.3,431.3,47.8z"/>
				<path class="st25" d="M415.1,48.4c-2.9,0.8-5.9,0.9-8.8,0C409.3,48.4,412.2,48.4,415.1,48.4z"/>
				<path class="st25" d="M431.3,47.8c-1.9,0-3.9,0-5.8,0c2.3-1.2,4.7-0.4,7.1-0.6C432.1,47.5,431.7,47.7,431.3,47.8z"/>
				<path class="st26" d="M434.2,69.7c1.1,0.8,2.4,1.5,3,2.8C435.7,72.1,434.3,71.5,434.2,69.7z"/>
			</g>
		</g>
	</g>
</g>
</svg>
